{"glyphs":{"0":{"ha":854,"x_min":92,"x_max":763,"o":"m 428 -15 q 344 -15 428 -15 q 176 120 260 -15 q 92 467 92 256 q 176 804 92 676 q 428 932 261 932 q 678 805 594 932 q 763 467 763 678 q 679 120 763 256 q 428 -15 596 -15 m 428 85 q 485 85 428 85 q 597 188 543 85 q 650 465 650 290 q 597 735 650 638 q 428 832 544 832 q 258 735 311 832 q 204 465 204 638 q 258 188 204 290 q 428 85 313 85 z "},"1":{"ha":526,"x_min":42,"x_max":376,"o":"m 376 917 l 376 0 l 268 0 l 268 789 l 68 726 l 42 819 l 336 917 l 376 917 z "},"2":{"ha":778,"x_min":65,"x_max":703,"o":"m 703 97 l 703 0 l 65 0 l 65 28 l 392 375 q 514 523 475 463 q 553 649 553 583 q 505 778 553 725 q 376 832 457 832 q 243 776 293 832 q 193 643 193 721 q 201 567 193 604 l 90 567 q 81 647 81 604 q 117 785 81 719 q 220 892 153 851 q 376 932 288 932 q 526 895 460 932 q 628 795 592 858 q 665 654 665 732 q 639 532 665 590 q 574 425 613 474 q 474 311 536 376 l 271 97 l 703 97 z "},"3":{"ha":747,"x_min":36,"x_max":672,"o":"m 406 572 q 536 531 475 565 q 635 436 597 497 q 672 290 672 375 q 628 129 672 199 q 508 22 583 60 q 347 -15 433 -15 q 162 38 242 -15 q 36 175 82 92 l 113 229 q 213 124 157 164 q 346 85 268 85 q 500 141 440 85 q 560 289 560 197 q 499 428 560 378 q 328 478 439 478 l 238 478 l 238 510 l 478 817 l 99 817 l 99 917 l 649 917 l 649 885 l 406 572 z "},"4":{"ha":761,"x_min":29,"x_max":731,"o":"m 731 171 l 597 171 l 597 0 l 489 0 l 489 171 l 29 171 l 29 201 l 331 917 l 442 917 l 167 265 l 489 265 l 489 571 l 597 571 l 597 265 l 731 265 l 731 171 z "},"5":{"ha":771,"x_min":54,"x_max":696,"o":"m 382 574 q 538 542 467 574 q 653 447 610 511 q 696 290 696 383 q 651 129 696 199 q 531 22 606 60 q 371 -15 457 -15 q 181 38 261 -15 q 54 174 101 90 l 129 229 q 230 124 172 164 q 369 85 288 85 q 523 141 463 85 q 583 289 583 197 q 523 429 583 379 q 350 479 463 479 l 143 479 l 143 917 l 644 917 l 644 819 l 251 819 l 251 563 q 382 574 315 574 z "},"6":{"ha":765,"x_min":69,"x_max":694,"o":"m 396 593 q 545 553 476 593 q 654 445 614 514 q 694 293 694 376 q 653 136 694 207 q 540 25 611 65 q 382 -15 468 -15 q 225 25 297 -15 q 111 136 153 65 q 69 294 69 207 q 95 421 69 365 q 176 558 121 476 q 188 574 183 567 q 196 586 192 581 l 424 917 l 553 917 l 319 581 q 396 593 353 593 m 382 83 q 410 83 382 83 q 486 111 439 83 q 560 187 533 139 q 588 293 588 235 q 560 398 588 350 q 486 474 533 446 q 382 501 439 501 q 278 474 325 501 q 203 398 231 446 q 176 293 176 350 q 203 187 176 235 q 278 111 231 139 q 382 83 325 83 z "},"7":{"ha":696,"x_min":49,"x_max":661,"o":"m 661 917 l 661 885 l 197 0 l 79 0 l 515 819 l 49 819 l 49 917 l 661 917 z "},"8":{"ha":803,"x_min":78,"x_max":722,"o":"m 722 233 q 683 103 722 160 q 570 16 643 47 q 401 -15 497 -15 q 232 16 306 -15 q 118 104 158 47 q 78 235 78 161 q 296 479 78 403 q 167 572 213 518 q 121 704 121 626 q 201 872 121 811 q 401 932 281 932 q 599 872 519 932 q 679 704 679 811 q 504 481 679 557 q 722 233 722 399 m 228 700 q 270 604 228 642 q 400 531 313 567 q 530 603 488 565 q 572 700 572 640 q 524 802 572 765 q 401 839 476 839 q 276 802 325 839 q 228 700 228 765 m 401 78 q 452 78 401 78 q 558 122 503 78 q 613 238 613 165 q 559 351 613 310 q 401 429 506 392 q 242 350 296 392 q 188 238 188 308 q 244 122 188 165 q 401 78 300 78 z "},"9":{"ha":765,"x_min":69,"x_max":694,"o":"m 383 932 q 540 892 468 932 q 653 781 611 851 q 694 622 694 710 q 678 522 694 568 q 641 440 663 475 q 568 331 619 406 l 340 0 l 213 0 l 446 336 q 368 324 413 324 q 220 363 289 324 q 110 472 151 403 q 69 624 69 540 q 112 781 69 710 q 226 892 154 851 q 383 932 297 932 m 383 415 q 412 415 383 415 q 488 443 440 415 q 561 519 535 471 q 588 625 588 567 q 561 731 588 683 q 488 806 535 779 q 383 833 440 833 q 278 806 326 833 q 203 731 231 779 q 176 625 176 683 q 203 519 176 567 q 278 443 231 471 q 383 415 326 415 z "}," ":{"ha":389,"x_min":0,"x_max":0,"o":""},"!":{"ha":424,"x_min":124,"x_max":299,"o":"m 146 917 l 275 917 l 256 290 l 167 290 l 146 917 m 211 -15 q 149 10 175 -15 q 124 72 124 35 q 149 135 124 110 q 211 160 175 160 q 274 135 249 160 q 299 72 299 110 q 274 10 299 35 q 211 -15 249 -15 z "},"\"":{"ha":643,"x_min":131,"x_max":529,"o":"m 150 917 l 275 917 l 215 560 l 131 560 l 150 917 m 404 917 l 529 917 l 469 560 l 385 560 l 404 917 z "},"#":{"ha":829,"x_min":39,"x_max":790,"o":"m 656 585 l 622 332 l 758 332 l 758 240 l 610 240 l 576 0 l 486 0 l 518 240 l 253 240 l 219 0 l 129 0 l 161 240 l 39 240 l 39 332 l 174 332 l 207 585 l 72 585 l 72 676 l 219 676 l 251 917 l 344 917 l 311 676 l 576 676 l 608 917 l 701 917 l 668 676 l 790 676 l 790 585 l 656 585 m 531 332 l 564 585 l 299 585 l 265 332 l 531 332 z "},"$":{"ha":744,"x_min":56,"x_max":657,"o":"m 657 258 q 592 105 657 165 q 425 32 528 44 l 425 -131 l 318 -131 l 318 33 q 166 96 232 46 q 56 224 100 146 l 133 279 q 378 125 226 125 q 501 160 453 125 q 549 257 549 196 q 514 339 549 307 q 408 403 479 371 l 310 444 q 169 533 221 482 q 117 668 117 585 q 173 807 117 751 q 318 876 229 863 l 318 1042 l 425 1042 l 425 879 q 639 731 561 861 l 565 674 q 483 758 528 731 q 378 785 438 785 q 271 756 317 785 q 225 669 225 728 q 256 592 225 619 q 354 532 288 564 l 456 490 q 605 395 553 450 q 657 258 657 340 z "},"%":{"ha":1169,"x_min":92,"x_max":1078,"o":"m 319 485 q 205 515 257 485 q 122 595 153 544 q 92 708 92 646 q 122 822 92 771 q 205 902 153 872 q 319 932 257 932 q 433 902 381 932 q 515 822 485 872 q 546 708 546 771 q 515 595 546 646 q 433 515 485 544 q 319 485 381 485 m 800 917 l 896 917 l 371 0 l 275 0 l 800 917 m 319 564 q 349 564 319 564 q 418 606 379 564 q 457 708 457 647 q 418 811 457 769 q 319 853 379 853 q 221 812 260 853 q 182 708 182 771 q 221 605 182 646 q 319 564 260 564 m 850 -14 q 819 -14 850 -14 q 737 16 789 -14 q 655 97 685 46 q 625 210 625 147 q 655 323 625 272 q 737 403 685 374 q 850 433 789 433 q 964 403 911 433 q 1047 323 1017 374 q 1078 210 1078 272 q 1047 97 1078 147 q 964 16 1017 46 q 850 -14 911 -14 m 851 67 q 949 108 910 67 q 988 210 988 149 q 949 313 988 272 q 851 354 910 354 q 753 313 792 354 q 714 210 714 272 q 753 108 714 149 q 851 67 792 67 z "},"&":{"ha":868,"x_min":69,"x_max":836,"o":"m 821 382 q 682 181 731 244 l 833 0 l 703 0 l 615 104 q 493 15 557 46 q 350 -15 429 -15 q 206 15 269 -15 q 106 101 142 46 q 69 224 69 156 q 116 361 69 297 q 276 510 163 425 q 201 625 225 575 q 178 731 178 675 q 234 876 178 821 q 382 932 290 932 q 526 878 469 932 q 583 743 583 825 q 544 622 583 681 q 419 497 504 563 l 614 264 q 704 399 646 307 l 747 464 l 836 406 l 821 382 m 382 833 q 308 807 333 833 q 283 731 283 781 q 301 656 283 693 q 361 568 319 619 q 451 658 424 619 q 478 739 478 696 q 452 808 478 783 q 382 833 426 833 m 549 185 l 339 436 q 240 353 272 385 q 196 294 208 321 q 183 233 183 268 q 231 126 183 168 q 353 85 279 85 q 549 185 457 85 z "},"'":{"ha":389,"x_min":131,"x_max":275,"o":"m 150 917 l 275 917 l 215 560 l 131 560 l 150 917 z "},"(":{"ha":463,"x_min":108,"x_max":424,"o":"m 378 -182 q 185 20 261 -125 q 108 418 108 165 q 185 817 108 672 q 378 1019 261 963 l 424 946 q 214 418 214 810 q 273 74 214 199 q 424 -108 332 -51 l 378 -182 z "},")":{"ha":463,"x_min":39,"x_max":354,"o":"m 39 -108 q 190 74 131 -51 q 250 418 250 199 q 39 946 250 808 l 86 1019 q 278 817 201 963 q 354 418 354 672 q 278 19 354 164 q 86 -182 201 -125 l 39 -108 z "},"*":{"ha":569,"x_min":64,"x_max":506,"o":"m 375 806 l 506 717 l 471 660 l 329 728 l 318 571 l 251 571 l 239 728 l 97 660 l 64 717 l 194 806 l 64 894 l 97 953 l 239 885 l 251 1042 l 318 1042 l 329 885 l 471 953 l 506 894 l 375 806 z "},"+":{"ha":778,"x_min":78,"x_max":699,"o":"m 339 390 l 78 390 l 78 485 l 339 485 l 339 749 l 444 749 l 444 485 l 699 485 l 699 390 l 444 390 l 444 122 l 339 122 l 339 390 z "},",":{"ha":389,"x_min":125,"x_max":269,"o":"m 143 125 l 269 125 l 213 -249 l 125 -249 l 143 125 z "},"-":{"ha":481,"x_min":74,"x_max":406,"o":"m 74 482 l 406 482 l 406 392 l 74 392 l 74 482 z "},".":{"ha":389,"x_min":107,"x_max":282,"o":"m 194 -15 q 176 -15 194 -15 q 133 10 158 -15 q 107 72 107 35 q 133 135 107 110 q 194 160 158 160 q 256 135 231 160 q 282 72 282 110 q 256 10 282 35 q 194 -15 231 -15 z "},"/":{"ha":872,"x_min":10,"x_max":863,"o":"m 736 1083 l 863 1083 l 136 -168 l 10 -168 l 736 1083 z "},":":{"ha":389,"x_min":107,"x_max":282,"o":"m 194 508 q 176 508 194 508 q 133 533 158 508 q 107 596 107 558 q 133 658 107 633 q 194 683 158 683 q 256 658 231 683 q 282 596 282 633 q 256 533 282 558 q 194 508 231 508 m 194 -15 q 176 -15 194 -15 q 133 10 158 -15 q 107 72 107 35 q 133 135 107 110 q 194 160 158 160 q 256 135 231 160 q 282 72 282 110 q 256 10 282 35 q 194 -15 231 -15 z "},";":{"ha":389,"x_min":107,"x_max":282,"o":"m 194 508 q 176 508 194 508 q 133 533 158 508 q 107 596 107 558 q 133 658 107 633 q 194 683 158 683 q 256 658 231 683 q 282 596 282 633 q 256 533 282 558 q 194 508 231 508 m 143 125 l 269 125 l 213 -249 l 125 -249 l 143 125 z "},"<":{"ha":778,"x_min":72,"x_max":681,"o":"m 681 614 l 261 438 l 681 263 l 681 161 l 72 421 l 72 454 l 681 714 l 681 614 z "},"=":{"ha":778,"x_min":92,"x_max":686,"o":"m 92 629 l 686 629 l 686 533 l 92 533 l 92 629 m 92 340 l 686 340 l 686 246 l 92 246 l 92 340 z "},">":{"ha":778,"x_min":97,"x_max":707,"o":"m 707 454 l 707 421 l 97 161 l 97 263 l 517 438 l 97 614 l 97 714 l 707 454 z "},"?":{"ha":618,"x_min":63,"x_max":556,"o":"m 225 351 q 253 435 225 399 q 336 522 281 472 q 421 613 397 579 q 444 693 444 646 q 405 794 444 754 q 308 833 365 833 q 214 799 254 833 q 153 700 174 765 l 63 738 q 155 881 90 831 q 311 932 219 932 q 434 902 378 932 q 523 819 490 872 q 556 700 556 767 q 523 585 556 636 q 424 475 490 535 q 347 397 369 425 q 325 335 325 369 q 332 290 325 322 l 239 290 q 225 351 225 318 m 292 -15 q 231 10 257 -15 q 204 72 204 35 q 231 135 204 110 q 292 160 257 160 q 355 135 329 160 q 381 72 381 110 q 355 10 381 35 q 292 -15 329 -15 z "},"@":{"ha":1281,"x_min":67,"x_max":1214,"o":"m 657 913 q 941 843 814 913 q 1141 656 1068 774 q 1214 397 1214 538 q 1169 210 1214 289 q 1043 91 1124 132 q 858 50 963 50 l 825 50 l 825 140 q 737 63 793 90 q 614 35 681 35 q 472 74 535 35 q 374 180 410 113 q 338 331 338 247 q 373 480 338 413 q 472 586 408 547 q 615 625 536 625 q 731 601 678 625 q 817 533 785 576 l 817 614 l 917 614 l 917 144 q 1063 217 1008 151 q 1117 397 1117 282 q 1059 613 1117 517 q 897 765 1001 710 q 660 821 793 821 q 407 759 519 821 q 231 589 294 697 q 167 343 167 481 q 231 97 167 206 q 406 -74 296 -12 q 651 -136 517 -136 q 832 -106 747 -136 l 851 -189 q 642 -226 756 -226 q 352 -152 483 -226 q 144 53 221 -78 q 67 342 67 183 q 145 633 67 503 q 359 838 224 764 q 657 913 494 913 m 632 133 q 758 184 704 133 q 811 332 811 235 q 758 478 811 428 q 632 529 706 529 q 500 474 553 529 q 447 331 447 418 q 500 189 447 244 q 632 133 553 133 z "},"A":{"ha":921,"x_min":43,"x_max":878,"o":"m 685 186 l 235 186 l 157 0 l 43 0 l 440 932 l 481 932 l 878 0 l 763 0 l 685 186 m 460 735 l 276 283 l 643 283 l 460 735 z "},"B":{"ha":856,"x_min":126,"x_max":794,"o":"m 615 504 q 747 416 700 479 q 794 264 794 353 q 760 128 794 188 q 659 34 725 68 q 504 0 593 0 l 126 0 l 126 917 l 442 917 q 632 851 561 917 q 703 685 703 786 q 680 582 703 628 q 615 504 657 536 m 235 819 l 235 535 l 431 535 q 550 574 508 535 q 592 678 592 613 q 551 781 592 743 q 431 819 510 819 l 235 819 m 493 97 q 633 144 583 97 q 683 267 683 190 q 633 390 683 343 q 493 436 583 436 l 235 436 l 235 97 l 493 97 z "},"C":{"ha":993,"x_min":67,"x_max":924,"o":"m 543 -15 q 303 47 413 -15 q 130 218 193 110 q 67 458 67 326 q 130 699 67 590 q 303 869 193 807 q 543 932 413 932 q 765 878 665 932 q 924 735 865 825 l 843 671 q 715 790 790 747 q 544 832 639 832 q 358 783 442 832 q 227 649 275 735 q 179 458 179 564 q 227 267 179 353 q 358 133 275 182 q 544 85 442 85 q 715 127 639 85 q 843 246 790 169 l 924 182 q 766 38 867 92 q 543 -15 665 -15 z "},"D":{"ha":964,"x_min":126,"x_max":897,"o":"m 126 917 l 399 917 q 664 858 551 917 q 837 697 776 800 q 897 460 897 593 q 837 224 897 328 q 664 60 776 119 q 399 0 551 0 l 126 0 l 126 917 m 397 97 q 605 144 517 97 q 739 274 693 192 q 785 460 785 356 q 739 647 785 565 q 606 774 693 728 q 397 819 518 819 l 235 819 l 235 97 l 397 97 z "},"E":{"ha":786,"x_min":126,"x_max":731,"o":"m 126 917 l 714 917 l 714 819 l 235 819 l 235 539 l 601 539 l 601 442 l 235 442 l 235 97 l 731 97 l 731 0 l 126 0 l 126 917 z "},"F":{"ha":728,"x_min":126,"x_max":700,"o":"m 126 917 l 700 917 l 700 819 l 235 819 l 235 504 l 621 504 l 621 406 l 235 406 l 235 0 l 126 0 l 126 917 z "},"G":{"ha":1036,"x_min":67,"x_max":963,"o":"m 543 -15 q 302 47 411 -15 q 130 218 193 110 q 67 458 67 326 q 130 699 67 590 q 302 869 193 807 q 543 932 411 932 q 756 883 660 932 q 917 744 853 833 l 835 681 q 708 792 782 753 q 543 832 635 832 q 356 783 439 832 q 226 649 272 735 q 179 460 179 564 q 226 267 179 354 q 358 131 274 181 q 549 82 443 82 q 728 126 649 82 q 854 246 807 171 l 854 369 l 542 369 l 542 467 l 963 467 l 963 222 q 790 49 901 114 q 543 -15 678 -15 z "},"H":{"ha":983,"x_min":126,"x_max":857,"o":"m 126 917 l 235 917 l 235 539 l 749 539 l 749 917 l 857 917 l 857 0 l 749 0 l 749 442 l 235 442 l 235 0 l 126 0 l 126 917 z "},"I":{"ha":360,"x_min":126,"x_max":235,"o":"m 126 917 l 235 917 l 235 0 l 126 0 l 126 917 z "},"J":{"ha":518,"x_min":33,"x_max":393,"o":"m 33 0 l 33 93 q 133 85 90 85 q 246 115 207 85 q 285 222 285 144 l 285 917 l 393 917 l 393 213 q 329 41 393 97 q 154 -15 265 -15 q 33 0 100 -15 z "},"K":{"ha":879,"x_min":126,"x_max":836,"o":"m 126 917 l 235 917 l 235 0 l 126 0 l 126 917 m 836 0 l 699 0 l 247 492 l 660 917 l 799 917 l 389 492 l 836 0 z "},"L":{"ha":703,"x_min":126,"x_max":669,"o":"m 126 917 l 235 917 l 235 97 l 669 97 l 669 0 l 126 0 l 126 917 z "},"M":{"ha":1096,"x_min":126,"x_max":969,"o":"m 969 932 l 969 0 l 861 0 l 861 657 l 568 260 l 529 260 l 235 660 l 235 0 l 126 0 l 126 932 l 165 932 l 547 403 l 932 932 l 969 932 z "},"N":{"ha":983,"x_min":126,"x_max":857,"o":"m 857 917 l 857 -15 l 818 -15 l 235 688 l 235 0 l 126 0 l 126 932 l 165 932 l 749 228 l 749 917 l 857 917 z "},"O":{"ha":1085,"x_min":67,"x_max":1018,"o":"m 542 -15 q 302 47 411 -15 q 130 219 193 110 q 67 458 67 328 q 130 699 67 590 q 302 869 193 807 q 542 932 411 932 q 781 869 671 932 q 954 699 890 807 q 1018 458 1018 590 q 954 218 1018 326 q 781 47 890 110 q 542 -15 671 -15 m 543 85 q 728 134 644 85 q 858 269 811 183 q 906 460 906 354 q 858 649 906 564 q 728 783 811 735 q 543 832 644 832 q 357 783 440 832 q 226 650 274 735 q 179 460 179 565 q 226 269 179 354 q 357 134 274 183 q 543 85 440 85 z "},"P":{"ha":796,"x_min":126,"x_max":742,"o":"m 126 917 l 449 917 q 603 883 538 917 q 706 788 669 849 q 742 651 742 728 q 706 513 742 574 q 603 417 669 451 q 449 383 538 383 l 235 383 l 235 0 l 126 0 l 126 917 m 446 481 q 581 527 533 481 q 629 650 629 574 q 581 772 629 725 q 446 819 533 819 l 235 819 l 235 481 l 446 481 z "},"Q":{"ha":1085,"x_min":67,"x_max":1444,"o":"m 1444 -182 l 1444 -268 q 1297 -282 1368 -282 q 972 -205 1118 -282 q 722 19 826 -128 q 542 -15 636 -15 q 302 47 411 -15 q 130 219 193 110 q 67 458 67 328 q 130 699 67 590 q 302 869 193 807 q 542 932 411 932 q 781 869 671 932 q 954 699 890 807 q 1018 458 1018 590 q 963 233 1018 336 q 811 65 907 131 q 1031 -126 908 -62 q 1311 -189 1153 -189 q 1444 -182 1368 -189 m 179 460 q 179 407 179 460 q 226 269 179 354 q 357 134 274 183 q 543 85 440 85 q 728 134 644 85 q 858 269 811 183 q 906 458 906 354 q 858 649 906 564 q 728 783 811 735 q 542 832 644 832 q 356 783 439 832 q 226 650 274 735 q 179 460 179 565 z "},"R":{"ha":864,"x_min":126,"x_max":842,"o":"m 715 0 l 431 385 l 235 385 l 235 0 l 126 0 l 126 917 l 449 917 q 603 883 538 917 q 706 788 669 849 q 742 651 742 728 q 690 491 742 558 q 549 397 639 424 l 842 0 l 715 0 m 235 482 l 444 482 q 581 528 533 482 q 629 650 629 574 q 581 772 629 725 q 444 819 532 819 l 235 819 l 235 482 z "},"S":{"ha":775,"x_min":57,"x_max":690,"o":"m 394 -15 q 199 38 288 -15 q 57 182 111 90 l 138 242 q 393 85 240 85 q 526 126 475 85 q 578 238 578 168 q 560 306 578 278 q 510 353 542 333 q 425 399 479 372 l 322 447 q 172 547 228 492 q 115 693 115 601 q 153 818 115 764 q 253 902 190 872 q 392 932 317 932 q 559 889 483 932 q 679 776 635 846 l 600 717 q 508 802 563 772 q 390 832 453 832 q 275 797 322 832 q 228 699 228 763 q 246 633 228 660 q 292 588 264 606 q 375 544 321 571 l 476 496 q 638 386 585 443 q 690 240 690 329 q 652 107 690 165 q 547 17 614 49 q 394 -15 479 -15 z "},"T":{"ha":807,"x_min":26,"x_max":781,"o":"m 349 819 l 26 819 l 26 917 l 781 917 l 781 819 l 457 819 l 457 0 l 349 0 l 349 819 z "},"U":{"ha":957,"x_min":114,"x_max":842,"o":"m 479 -15 q 290 29 372 -15 q 160 159 207 74 q 114 364 114 244 l 114 917 l 222 917 l 222 357 q 294 154 222 224 q 479 85 365 85 q 663 154 592 85 q 733 357 733 224 l 733 917 l 842 917 l 842 364 q 795 159 842 244 q 666 29 749 74 q 479 -15 583 -15 z "},"V":{"ha":921,"x_min":43,"x_max":878,"o":"m 878 917 l 481 -15 l 440 -15 l 43 917 l 163 917 l 461 197 l 758 917 l 878 917 z "},"W":{"ha":1481,"x_min":63,"x_max":1417,"o":"m 1417 917 l 1069 -15 l 1031 -15 l 740 713 l 450 -15 l 411 -15 l 63 917 l 182 917 l 435 218 l 721 932 l 760 932 l 1046 219 l 1299 917 l 1417 917 z "},"X":{"ha":832,"x_min":42,"x_max":790,"o":"m 664 0 l 417 376 l 168 0 l 42 0 l 357 469 l 64 917 l 189 917 l 417 560 l 643 917 l 768 917 l 479 468 l 790 0 l 664 0 z "},"Y":{"ha":856,"x_min":56,"x_max":800,"o":"m 482 379 l 482 0 l 374 0 l 374 379 l 56 917 l 178 917 l 428 486 l 679 917 l 800 917 l 482 379 z "},"Z":{"ha":818,"x_min":44,"x_max":771,"o":"m 771 97 l 771 0 l 44 0 l 44 32 l 597 819 l 104 819 l 104 917 l 769 917 l 769 885 l 214 97 l 771 97 z "},"[":{"ha":476,"x_min":140,"x_max":406,"o":"m 140 1013 l 406 1013 l 406 918 l 244 918 l 244 -85 l 406 -85 l 406 -182 l 140 -182 l 140 1013 z "},"\\":{"ha":872,"x_min":10,"x_max":863,"o":"m 10 1083 l 136 1083 l 863 -168 l 736 -168 l 10 1083 z "},"]":{"ha":476,"x_min":69,"x_max":335,"o":"m 69 -85 l 232 -85 l 232 918 l 69 918 l 69 1013 l 335 1013 l 335 -182 l 69 -182 l 69 -85 z "},"^":{"ha":711,"x_min":83,"x_max":628,"o":"m 517 394 l 356 739 l 194 394 l 83 394 l 336 931 l 375 931 l 628 394 l 517 394 z "},"_":{"ha":703,"x_min":60,"x_max":642,"o":"m 60 -104 l 642 -104 l 642 -194 l 60 -194 l 60 -104 z "},"`":{"ha":833,"x_min":292,"x_max":540,"o":"m 292 1064 l 292 1083 l 422 1083 l 540 786 l 458 786 l 292 1064 z "},"a":{"ha":733,"x_min":61,"x_max":625,"o":"m 361 692 q 553 621 481 692 q 625 417 625 550 l 625 0 l 525 0 l 525 88 q 429 11 488 38 q 297 -15 371 -15 q 127 36 193 -15 q 61 175 61 88 q 128 313 61 261 q 304 364 194 364 l 518 364 l 518 422 q 474 549 518 506 q 354 593 431 593 q 246 566 293 593 q 157 485 199 539 l 86 543 q 204 655 132 618 q 361 692 276 692 m 311 74 q 414 98 367 74 q 490 165 461 122 q 518 260 518 208 l 518 276 l 317 276 q 208 252 246 276 q 171 181 171 228 q 211 101 171 129 q 311 74 251 74 z "},"b":{"ha":878,"x_min":118,"x_max":808,"o":"m 474 692 q 644 645 568 692 q 765 517 721 599 q 808 338 808 436 q 765 158 808 239 q 646 31 722 78 q 475 -15 569 -15 q 326 17 396 -15 q 218 107 257 50 l 218 0 l 118 0 l 118 1042 l 225 1042 l 225 578 q 331 661 265 631 q 474 692 397 692 m 458 83 q 581 117 526 83 q 667 208 636 150 q 699 339 699 267 q 667 469 699 411 q 581 560 636 528 q 458 593 526 593 q 342 565 396 593 q 256 480 289 538 q 224 338 224 422 q 257 196 224 253 q 344 111 290 139 q 458 83 397 83 z "},"c":{"ha":765,"x_min":69,"x_max":703,"o":"m 424 -15 q 245 32 326 -15 q 117 160 164 79 q 69 339 69 242 q 117 517 69 436 q 245 644 164 597 q 424 692 326 692 q 585 652 513 692 q 703 544 657 613 l 626 483 q 425 593 544 593 q 299 559 356 593 q 211 467 243 525 q 179 339 179 408 q 211 210 179 268 q 299 117 243 151 q 425 83 356 83 q 625 192 544 83 l 701 132 q 584 24 656 64 q 424 -15 513 -15 z "},"d":{"ha":878,"x_min":69,"x_max":761,"o":"m 761 1042 l 761 0 l 660 0 l 660 107 q 552 17 621 50 q 404 -15 483 -15 q 233 31 310 -15 q 113 158 157 78 q 69 338 69 239 q 113 517 69 436 q 233 645 157 599 q 404 692 310 692 q 547 661 481 692 q 654 576 614 631 l 654 1042 l 761 1042 m 419 83 q 535 111 481 83 q 622 196 589 139 q 656 338 656 253 q 622 480 656 422 q 535 565 589 538 q 419 593 481 593 q 297 560 351 593 q 210 469 242 528 q 179 339 179 411 q 210 208 179 267 q 297 117 242 150 q 419 83 351 83 z "},"e":{"ha":793,"x_min":69,"x_max":724,"o":"m 715 306 l 181 306 q 260 144 190 206 q 429 83 329 83 q 636 175 544 83 l 699 103 q 577 16 646 47 q 428 -15 508 -15 q 246 31 328 -15 q 117 158 164 78 q 69 338 69 239 q 115 516 69 435 q 240 644 161 597 q 415 692 319 692 q 572 653 501 692 q 683 544 643 614 q 724 386 724 475 q 715 306 724 347 m 413 594 q 370 594 413 594 q 265 541 328 594 q 185 400 203 488 l 614 400 q 555 542 613 490 q 413 594 497 594 z "},"f":{"ha":421,"x_min":38,"x_max":443,"o":"m 383 960 q 278 931 315 960 q 242 831 242 903 l 242 676 l 411 676 l 411 581 l 242 581 l 242 0 l 135 0 l 135 581 l 38 581 l 38 676 l 135 676 l 135 838 q 195 1003 135 949 q 358 1057 256 1057 q 443 1046 403 1057 l 443 956 q 383 960 410 960 z "},"g":{"ha":885,"x_min":78,"x_max":768,"o":"m 768 676 l 768 65 q 678 -177 768 -89 q 439 -265 589 -265 q 259 -228 340 -265 q 121 -135 178 -192 l 183 -60 q 300 -138 240 -110 q 436 -167 360 -167 q 601 -108 542 -167 q 661 60 661 -50 l 661 119 q 553 37 621 67 q 410 7 486 7 q 240 51 315 7 q 121 174 164 96 q 78 349 78 251 q 121 524 78 446 q 240 647 164 601 q 410 692 315 692 q 559 659 490 692 q 667 568 628 626 l 667 676 l 768 676 m 426 106 q 542 132 489 106 q 629 213 596 158 q 663 349 663 268 q 629 483 663 429 q 542 564 596 538 q 426 590 488 590 q 303 559 358 590 q 217 473 249 528 q 186 347 186 418 q 217 222 186 276 q 303 136 249 167 q 426 106 358 106 z "},"h":{"ha":786,"x_min":118,"x_max":678,"o":"m 428 692 q 611 618 544 692 q 678 425 678 544 l 678 0 l 571 0 l 571 411 q 526 543 571 493 q 403 593 481 593 q 275 542 325 593 q 225 411 225 490 l 225 0 l 118 0 l 118 1042 l 225 1042 l 225 600 q 312 667 260 643 q 428 692 364 692 z "},"i":{"ha":342,"x_min":92,"x_max":251,"o":"m 118 676 l 225 676 l 225 0 l 118 0 l 118 676 m 172 857 q 156 857 172 857 q 115 879 139 857 q 92 935 92 901 q 115 990 92 967 q 172 1013 139 1013 q 228 990 204 1013 q 251 935 251 967 q 228 879 251 901 q 172 857 206 857 z "},"j":{"ha":342,"x_min":-83,"x_max":251,"o":"m -83 -254 l -83 -164 q -21 -168 -49 -168 q 82 -139 46 -168 q 118 -39 118 -110 l 118 676 l 225 676 l 225 -46 q 165 -211 225 -157 q 3 -265 104 -265 q -83 -254 -43 -265 m 172 857 q 156 857 172 857 q 115 879 139 857 q 92 935 92 901 q 115 990 92 967 q 172 1013 139 1013 q 228 990 204 1013 q 251 935 251 967 q 228 879 251 901 q 172 857 206 857 z "},"k":{"ha":703,"x_min":118,"x_max":685,"o":"m 118 1042 l 225 1042 l 225 0 l 118 0 l 118 1042 m 685 0 l 547 0 l 236 381 l 518 676 l 658 676 l 365 379 l 685 0 z "},"l":{"ha":342,"x_min":118,"x_max":225,"o":"m 118 1042 l 225 1042 l 225 0 l 118 0 l 118 1042 z "},"m":{"ha":1214,"x_min":118,"x_max":1106,"o":"m 860 692 q 1041 619 976 692 q 1106 425 1106 546 l 1106 0 l 999 0 l 999 411 q 956 543 999 493 q 839 593 914 593 q 714 543 763 593 q 665 421 665 493 l 665 0 l 558 0 l 558 411 q 515 543 558 493 q 397 593 471 593 q 273 542 321 593 q 225 411 225 492 l 225 0 l 118 0 l 118 676 l 218 676 l 218 606 q 306 669 254 647 q 419 692 357 692 q 546 661 493 692 q 628 575 599 631 q 725 660 665 628 q 860 692 785 692 z "},"n":{"ha":786,"x_min":118,"x_max":678,"o":"m 426 692 q 611 618 544 692 q 678 425 678 544 l 678 0 l 571 0 l 571 413 q 526 543 571 493 q 403 593 481 593 q 275 542 325 593 q 225 413 225 492 l 225 0 l 118 0 l 118 676 l 218 676 l 218 604 q 309 669 256 646 q 426 692 363 692 z "},"o":{"ha":847,"x_min":69,"x_max":778,"o":"m 422 -14 q 374 -14 422 -14 q 244 33 325 -14 q 117 162 164 81 q 69 339 69 243 q 117 517 69 436 q 245 645 164 599 q 424 692 326 692 q 602 644 521 692 q 731 517 683 597 q 778 339 778 436 q 731 162 778 243 q 601 33 683 81 q 422 -14 519 -14 m 422 85 q 456 85 422 85 q 547 118 490 85 q 635 209 603 151 q 668 338 668 267 q 636 468 668 410 q 548 560 604 526 q 424 593 492 593 q 299 560 354 593 q 211 468 243 526 q 179 338 179 410 q 211 209 179 267 q 299 118 243 151 q 422 85 354 85 z "},"p":{"ha":878,"x_min":118,"x_max":808,"o":"m 474 692 q 646 645 569 692 q 765 518 722 599 q 808 339 808 438 q 765 159 808 240 q 644 31 721 78 q 474 -15 568 -15 q 333 15 399 -15 q 225 97 267 44 l 225 -250 l 118 -250 l 118 676 l 218 676 l 218 568 q 326 659 257 626 q 474 692 394 692 m 458 83 q 581 116 526 83 q 667 207 636 149 q 699 338 699 265 q 667 468 699 410 q 581 560 636 526 q 458 593 526 593 q 344 565 397 593 q 257 481 290 538 q 224 339 224 424 q 256 197 224 254 q 342 111 289 139 q 458 83 396 83 z "},"q":{"ha":878,"x_min":69,"x_max":761,"o":"m 761 676 l 761 -250 l 654 -250 l 654 99 q 547 15 614 44 q 404 -15 481 -15 q 233 31 310 -15 q 113 159 157 78 q 69 339 69 240 q 113 518 69 438 q 233 645 157 599 q 404 692 310 692 q 552 659 483 692 q 660 568 621 626 l 660 676 l 761 676 m 419 83 q 535 111 481 83 q 622 197 589 139 q 656 339 656 254 q 622 481 656 424 q 535 565 589 538 q 419 593 481 593 q 297 560 351 593 q 210 468 242 526 q 179 338 179 410 q 210 207 179 265 q 297 116 242 149 q 419 83 351 83 z "},"r":{"ha":503,"x_min":118,"x_max":478,"o":"m 478 676 l 478 582 l 438 582 q 332 558 381 582 q 254 490 283 535 q 225 383 225 446 l 225 0 l 118 0 l 118 676 l 218 676 l 218 581 q 310 656 254 629 q 428 682 367 682 q 478 676 450 682 z "},"s":{"ha":631,"x_min":54,"x_max":556,"o":"m 318 -15 q 166 22 233 -15 q 54 117 99 58 l 122 188 q 215 110 171 138 q 317 83 260 83 q 409 109 372 83 q 446 179 446 135 q 418 241 446 219 q 328 288 390 263 l 263 315 q 136 392 178 350 q 94 503 94 435 q 160 642 94 592 q 322 692 225 692 q 450 663 393 692 q 549 585 507 635 l 483 518 q 406 573 449 553 q 317 593 364 593 q 235 571 267 593 q 204 508 204 549 q 228 456 204 476 q 314 410 253 436 l 376 383 q 513 298 471 343 q 556 183 556 253 q 487 37 556 89 q 318 -15 418 -15 z "},"t":{"ha":529,"x_min":33,"x_max":488,"o":"m 488 90 l 488 0 q 375 -15 424 -15 q 208 39 269 -15 q 147 204 147 93 l 147 581 l 33 581 l 33 676 l 147 676 l 147 861 l 254 861 l 254 676 l 465 676 l 465 581 l 254 581 l 254 211 q 291 110 254 139 q 397 82 328 82 q 488 90 436 82 z "},"u":{"ha":778,"x_min":110,"x_max":669,"o":"m 390 -15 q 247 20 311 -15 q 147 120 183 56 q 110 269 110 185 l 110 676 l 215 676 l 215 263 q 265 132 215 181 q 390 83 315 83 q 513 133 464 83 q 563 263 563 182 l 563 676 l 669 676 l 669 269 q 633 120 669 185 q 532 20 596 56 q 390 -15 468 -15 z "},"v":{"ha":749,"x_min":36,"x_max":713,"o":"m 713 676 l 394 -15 l 356 -15 l 36 676 l 150 676 l 375 167 l 599 676 l 713 676 z "},"w":{"ha":1182,"x_min":36,"x_max":1144,"o":"m 1144 676 l 860 -15 l 821 -15 l 590 496 l 361 -15 l 324 -15 l 36 676 l 150 676 l 346 175 l 571 692 l 611 692 l 839 179 l 1031 676 l 1144 676 z "},"x":{"ha":690,"x_min":28,"x_max":661,"o":"m 538 0 l 344 278 l 153 0 l 28 0 l 279 353 l 49 676 l 172 676 l 344 428 l 518 676 l 642 676 l 407 353 l 661 0 l 538 0 z "},"y":{"ha":749,"x_min":36,"x_max":713,"o":"m 713 676 l 379 -94 q 284 -224 340 -183 q 150 -265 228 -265 q 46 -251 99 -265 l 46 -161 q 128 -168 99 -168 q 217 -144 181 -168 q 281 -60 254 -121 l 317 21 l 36 676 l 151 676 l 375 138 l 599 676 l 713 676 z "},"z":{"ha":631,"x_min":38,"x_max":593,"o":"m 593 94 l 593 0 l 38 0 l 38 32 l 424 581 l 69 581 l 69 676 l 589 676 l 589 644 l 201 94 l 593 94 z "},"{":{"ha":551,"x_min":74,"x_max":481,"o":"m 304 801 q 322 667 304 757 q 339 533 339 569 q 321 460 339 488 q 265 415 303 432 q 321 371 303 399 q 339 297 339 343 q 322 165 339 263 q 304 29 304 75 q 413 -87 304 -87 l 481 -87 l 481 -182 l 393 -182 q 201 3 201 -182 q 208 83 201 36 q 222 172 214 129 q 238 288 238 257 q 153 368 238 368 l 74 368 l 74 463 l 153 463 q 238 543 238 463 q 222 658 238 575 q 208 748 214 701 q 201 828 201 794 q 393 1013 201 1013 l 481 1013 l 481 918 l 413 918 q 304 801 304 918 z "},"|":{"ha":461,"x_min":185,"x_max":276,"o":"m 185 1083 l 276 1083 l 276 -168 l 185 -168 l 185 1083 z "},"}":{"ha":551,"x_min":69,"x_max":478,"o":"m 478 463 l 478 368 l 399 368 q 314 288 314 368 q 329 172 314 257 q 340 101 332 157 q 349 3 349 44 q 158 -182 349 -182 l 69 -182 l 69 -87 l 139 -87 q 247 29 247 -87 q 229 165 247 75 q 213 297 213 263 q 231 371 213 343 q 286 415 249 399 q 231 460 249 432 q 213 533 213 488 q 229 667 213 569 q 247 801 247 757 q 139 918 247 918 l 69 918 l 69 1013 l 158 1013 q 349 828 349 1013 q 340 730 349 786 q 329 658 332 674 q 314 543 314 575 q 399 463 314 463 l 478 463 z "},"~":{"ha":778,"x_min":85,"x_max":693,"o":"m 443 347 l 313 426 q 228 463 253 463 q 188 445 203 463 q 174 400 174 428 l 174 360 l 86 360 l 85 411 q 121 516 85 472 q 217 560 157 560 q 333 522 272 560 l 464 443 q 511 417 492 426 q 550 408 531 408 q 589 426 575 408 q 603 469 603 443 l 603 510 l 690 510 q 693 458 693 471 q 656 353 693 396 q 558 311 619 311 q 443 347 503 311 z "}," ":{"ha":389,"x_min":0,"x_max":0,"o":""},"¡":{"ha":424,"x_min":124,"x_max":299,"o":"m 211 517 q 149 541 175 517 q 124 604 124 565 q 149 667 124 642 q 211 692 175 692 q 274 667 249 692 q 299 604 299 642 q 274 541 299 565 q 211 517 249 517 m 167 386 l 256 386 l 276 -250 l 146 -250 l 167 386 z "},"¢":{"ha":769,"x_min":50,"x_max":682,"o":"m 607 310 l 681 249 q 577 149 639 188 q 440 103 515 111 l 440 -131 l 333 -131 l 333 108 q 188 174 253 124 q 87 297 124 224 q 50 456 50 371 q 87 614 50 540 q 188 737 124 688 q 333 801 253 786 l 333 1042 l 440 1042 l 440 807 q 578 760 517 799 q 682 661 640 722 l 608 601 q 406 710 528 710 q 280 676 336 710 q 192 583 224 642 q 160 456 160 525 q 192 326 160 385 q 280 234 224 268 q 406 200 336 200 q 607 310 525 200 z "},"£":{"ha":735,"x_min":79,"x_max":683,"o":"m 372 294 q 351 184 372 236 q 289 94 329 132 l 672 94 l 672 0 l 79 0 l 79 28 q 264 293 264 143 q 260 339 264 317 l 93 339 l 93 433 l 226 433 q 200 485 213 463 q 151 591 167 547 q 135 689 135 635 q 169 816 135 761 q 263 901 203 871 q 400 932 324 932 q 579 873 506 932 q 683 706 653 814 l 588 669 q 406 832 536 832 q 288 786 331 832 q 246 672 246 740 q 260 596 246 631 q 304 503 274 561 q 340 433 325 465 l 561 433 l 561 339 l 369 339 q 372 294 372 311 z "},"¤":{"ha":893,"x_min":38,"x_max":856,"o":"m 703 267 l 856 114 l 792 50 l 636 204 q 444 144 550 144 q 257 203 342 144 l 103 50 l 38 114 l 190 268 q 125 458 125 349 q 190 651 125 565 l 38 804 l 103 868 l 257 714 q 446 772 342 772 q 635 714 553 772 l 790 868 l 856 804 l 703 651 q 769 458 769 567 q 703 267 769 351 m 444 243 q 555 272 506 243 q 632 349 604 300 q 660 457 660 397 q 631 568 660 518 q 554 647 603 618 q 446 675 506 675 q 338 647 386 675 q 262 568 289 618 q 235 457 235 518 q 262 349 235 397 q 337 272 289 300 q 444 243 385 243 z "},"¥":{"ha":767,"x_min":13,"x_max":756,"o":"m 464 500 l 710 500 l 710 406 l 439 406 l 439 278 l 710 278 l 710 182 l 439 182 l 439 0 l 331 0 l 331 182 l 61 182 l 61 278 l 331 278 l 331 406 l 61 406 l 61 500 l 304 500 l 13 917 l 135 917 l 385 557 l 635 917 l 756 917 l 464 500 z "},"¦":{"ha":461,"x_min":185,"x_max":276,"o":"m 185 1083 l 276 1083 l 276 667 l 185 667 l 185 1083 m 185 249 l 276 249 l 276 -168 l 185 -168 l 185 249 z "},"§":{"ha":804,"x_min":49,"x_max":754,"o":"m 754 228 q 708 112 754 158 q 581 51 661 65 q 582 33 582 46 q 522 -108 582 -51 q 358 -165 461 -165 q 122 -43 217 -165 l 201 22 q 280 -44 240 -24 q 364 -65 319 -65 q 443 -41 414 -65 q 472 29 472 -17 q 447 108 472 75 q 364 186 421 140 l 340 206 l 193 326 q 83 436 118 388 q 49 544 49 485 q 95 659 49 613 q 222 719 142 706 q 221 739 221 726 q 248 838 221 793 q 326 910 275 883 q 446 936 378 936 q 682 814 588 936 l 603 750 q 523 816 563 794 q 440 838 483 838 q 360 813 390 838 q 331 743 331 788 q 356 666 331 699 q 439 588 382 633 l 464 567 l 610 444 q 719 336 683 385 q 754 228 754 288 m 553 136 q 622 170 599 149 q 646 229 646 192 q 624 287 646 260 q 539 367 603 314 l 392 489 q 306 565 340 531 q 250 635 271 600 q 182 601 206 622 q 158 542 158 579 q 180 483 158 510 q 265 404 201 457 l 411 283 q 553 136 517 199 z "},"¨":{"ha":833,"x_min":192,"x_max":640,"o":"m 268 861 q 215 883 239 861 q 192 935 192 906 q 215 988 192 965 q 268 1010 239 1010 q 323 988 300 1010 q 346 935 346 965 q 323 883 346 904 q 268 861 300 861 m 564 861 q 510 883 533 861 q 486 935 486 906 q 510 988 486 965 q 564 1010 533 1010 q 618 988 596 1010 q 640 935 640 965 q 618 883 640 904 q 564 861 596 861 z "},"©":{"ha":1085,"x_min":67,"x_max":1018,"o":"m 542 -15 q 478 -15 542 -15 q 304 47 414 -15 q 131 218 194 110 q 67 458 67 326 q 131 699 67 590 q 305 869 196 807 q 542 932 414 932 q 779 869 669 932 q 953 699 889 807 q 1018 458 1018 590 q 953 218 1018 326 q 779 47 889 110 q 542 -15 669 -15 m 542 61 q 595 61 542 61 q 738 113 649 61 q 881 254 828 164 q 935 458 935 344 q 882 663 935 572 q 739 804 829 753 q 542 856 649 856 q 345 804 435 856 q 203 663 256 753 q 150 458 150 572 q 203 254 150 344 q 345 113 256 164 q 542 61 435 61 m 556 193 q 422 228 482 193 q 326 324 361 263 q 290 458 290 385 q 326 594 290 533 q 422 690 361 656 q 557 725 483 725 q 674 697 621 725 q 767 617 728 668 l 699 558 q 558 635 640 635 q 438 584 486 635 q 390 458 390 533 q 438 334 390 385 q 557 283 486 283 q 699 358 642 283 l 767 300 q 674 222 728 250 q 556 193 619 193 z "},"ª":{"ha":494,"x_min":46,"x_max":413,"o":"m 238 778 q 365 732 318 778 q 413 600 413 686 l 413 339 l 328 339 l 328 382 q 194 329 279 329 q 87 364 128 329 q 46 456 46 399 q 88 547 46 514 q 203 579 131 579 l 321 579 l 321 606 q 297 673 321 650 q 228 696 272 696 q 167 683 194 696 q 110 643 139 669 l 63 703 q 238 778 138 778 m 217 403 q 291 429 261 403 q 321 499 321 456 l 321 513 l 217 513 q 161 498 181 513 q 142 458 142 483 q 163 417 142 431 q 217 403 185 403 z "},"«":{"ha":700,"x_min":53,"x_max":644,"o":"m 53 360 l 53 392 l 300 654 l 369 592 l 174 376 l 369 158 l 300 99 l 53 360 m 328 360 l 328 392 l 575 654 l 644 592 l 449 376 l 644 158 l 575 99 l 328 360 z "},"¬":{"ha":778,"x_min":76,"x_max":657,"o":"m 550 390 l 76 390 l 76 485 l 657 485 l 657 133 l 550 133 l 550 390 z "},"­":{"ha":481,"x_min":74,"x_max":406,"o":"m 74 482 l 406 482 l 406 392 l 74 392 l 74 482 z "},"®":{"ha":792,"x_min":60,"x_max":732,"o":"m 397 949 q 442 949 397 949 q 565 902 488 949 q 687 776 642 856 q 732 604 732 697 q 687 433 732 511 q 565 308 642 354 q 397 261 488 261 q 229 308 307 261 q 106 433 151 354 q 60 604 60 511 q 106 776 60 697 q 229 902 151 856 q 397 949 307 949 m 397 331 q 531 367 469 331 q 627 466 592 403 q 663 606 663 529 q 627 744 663 682 q 531 843 592 807 q 397 879 469 879 q 263 843 324 879 q 167 744 203 807 q 132 606 132 681 q 167 467 132 529 q 263 367 203 404 q 397 331 324 331 m 474 565 l 571 431 l 481 431 l 393 547 l 343 547 l 343 431 l 263 431 l 263 779 l 403 779 q 494 747 458 779 q 531 663 531 715 q 474 565 531 596 m 343 617 l 401 617 q 435 629 422 617 q 449 661 449 642 q 435 695 449 682 q 401 708 422 708 l 343 708 l 343 617 z "},"¯":{"ha":833,"x_min":226,"x_max":608,"o":"m 226 978 l 608 978 l 608 892 l 226 892 l 226 978 z "},"°":{"ha":500,"x_min":43,"x_max":457,"o":"m 250 524 q 222 524 250 524 q 146 551 193 524 q 71 625 99 578 q 43 728 43 672 q 71 830 43 783 q 146 904 99 876 q 250 932 193 932 q 354 904 307 932 q 429 830 401 876 q 457 728 457 783 q 429 625 457 672 q 354 551 401 578 q 250 524 307 524 m 250 608 q 334 643 300 608 q 368 728 368 678 q 334 813 368 779 q 250 847 300 847 q 167 813 201 847 q 133 728 133 778 q 167 643 133 678 q 250 608 201 608 z "},"±":{"ha":778,"x_min":92,"x_max":686,"o":"m 336 431 l 92 431 l 92 525 l 336 525 l 336 744 l 443 744 l 443 525 l 686 525 l 686 431 l 443 431 l 443 208 l 336 208 l 336 431 m 92 94 l 686 94 l 686 0 l 92 0 l 92 94 z "},"²":{"ha":513,"x_min":49,"x_max":457,"o":"m 457 589 l 457 506 l 49 506 l 49 526 l 254 747 q 321 830 299 794 q 343 907 343 865 q 317 979 343 950 q 247 1008 290 1008 q 176 979 203 1008 q 149 903 149 950 q 151 858 149 892 l 61 858 q 56 908 56 881 q 79 998 56 956 q 147 1067 103 1040 q 247 1093 190 1093 q 383 1042 329 1093 q 436 914 436 992 q 406 807 436 856 q 313 693 375 758 l 214 589 l 457 589 z "},"³":{"ha":492,"x_min":26,"x_max":436,"o":"m 285 869 q 391 812 346 857 q 436 692 436 767 q 408 589 436 633 q 332 520 379 544 q 228 496 285 496 q 107 531 158 496 q 26 621 56 565 l 90 667 q 225 581 143 581 q 309 611 276 581 q 342 692 342 642 q 308 767 342 740 q 210 793 274 793 l 153 793 l 153 818 l 288 1000 l 67 1000 l 67 1083 l 424 1083 l 424 1057 l 285 869 z "},"´":{"ha":833,"x_min":292,"x_max":540,"o":"m 410 1083 l 540 1083 l 540 1064 l 374 786 l 292 786 l 410 1083 z "},"µ":{"ha":822,"x_min":118,"x_max":793,"o":"m 793 90 l 793 0 q 721 -10 751 -10 q 590 72 624 -10 q 510 8 558 31 q 404 -15 463 -15 q 303 6 349 -15 q 225 64 257 26 l 225 -250 l 118 -250 l 118 676 l 225 676 l 225 272 q 273 137 225 190 q 397 83 321 83 q 522 137 474 83 q 571 272 571 190 l 571 676 l 678 676 l 678 189 q 696 111 678 136 q 753 86 714 86 q 793 90 767 86 z "},"¶":{"ha":783,"x_min":54,"x_max":658,"o":"m 385 328 q 216 365 292 328 q 97 469 140 401 q 54 624 54 536 q 97 778 54 713 q 215 881 140 844 q 385 917 290 917 l 468 917 l 468 328 l 385 328 m 317 -250 l 317 -158 q 407 -167 386 -167 q 514 -135 476 -167 q 551 -26 551 -104 l 551 917 l 658 917 l 658 -35 q 597 -210 658 -154 q 428 -265 536 -265 q 317 -250 378 -265 z "},"·":{"ha":389,"x_min":107,"x_max":282,"o":"m 194 349 q 176 349 194 349 q 133 374 158 349 q 107 436 107 399 q 133 499 107 474 q 194 524 158 524 q 256 499 231 524 q 282 436 282 474 q 256 374 282 399 q 194 349 231 349 z "},"¸":{"ha":833,"x_min":278,"x_max":556,"o":"m 278 -251 l 278 -175 q 356 -181 321 -181 q 434 -158 404 -181 q 464 -90 464 -136 q 417 13 464 -35 l 463 36 q 530 -22 504 15 q 556 -106 556 -58 q 506 -219 556 -174 q 372 -265 457 -265 q 278 -251 326 -265 z "},"¹":{"ha":490,"x_min":65,"x_max":429,"o":"m 65 589 l 211 589 l 211 1000 l 72 1000 l 72 1083 l 304 1083 l 304 589 l 429 589 l 429 506 l 65 506 l 65 589 z "},"º":{"ha":560,"x_min":53,"x_max":507,"o":"m 279 329 q 165 359 217 329 q 83 440 113 389 q 53 553 53 490 q 83 666 53 615 q 165 747 113 717 q 279 776 217 776 q 393 747 340 776 q 476 666 446 717 q 507 553 507 615 q 476 440 507 490 q 393 359 446 389 q 279 329 340 329 m 279 411 q 309 411 279 411 q 377 451 339 411 q 415 553 415 492 q 377 655 415 615 q 279 694 339 694 q 182 655 219 694 q 144 553 144 615 q 182 451 144 490 q 279 411 219 411 z "},"»":{"ha":700,"x_min":54,"x_max":646,"o":"m 54 158 l 251 376 l 54 592 l 125 654 l 371 392 l 371 360 l 125 99 l 54 158 m 329 158 l 526 376 l 329 592 l 400 654 l 646 392 l 646 360 l 400 99 l 329 158 z "},"¼":{"ha":1231,"x_min":65,"x_max":1208,"o":"m 65 422 l 211 422 l 211 833 l 72 833 l 72 917 l 304 917 l 304 422 l 429 422 l 429 339 l 65 339 l 65 422 m 869 917 l 965 917 l 440 0 l 344 0 l 869 917 m 1208 101 l 1131 101 l 1131 0 l 1046 0 l 1046 101 l 758 101 l 758 126 l 939 578 l 1032 578 l 871 178 l 1046 178 l 1046 358 l 1131 358 l 1131 178 l 1208 178 l 1208 101 z "},"½":{"ha":1283,"x_min":65,"x_max":1228,"o":"m 65 422 l 211 422 l 211 833 l 72 833 l 72 917 l 304 917 l 304 422 l 429 422 l 429 339 l 65 339 l 65 422 m 869 917 l 965 917 l 440 0 l 344 0 l 869 917 m 1228 83 l 1228 0 l 819 0 l 819 21 l 1025 242 q 1092 324 1069 289 q 1114 401 1114 360 q 1088 474 1114 444 q 1018 503 1061 503 q 947 474 974 503 q 919 397 919 444 q 922 353 919 386 l 832 353 q 826 403 826 375 q 850 492 826 450 q 917 561 874 535 q 1018 588 961 588 q 1153 537 1100 588 q 1207 408 1207 486 q 1176 301 1207 350 q 1083 188 1146 253 l 985 83 l 1228 83 z "},"¾":{"ha":1185,"x_min":26,"x_max":1161,"o":"m 285 703 q 391 645 346 690 q 436 525 436 600 q 408 422 436 467 q 332 353 379 378 q 228 329 285 329 q 107 364 158 329 q 26 454 56 399 l 90 500 q 225 414 143 414 q 309 444 276 414 q 342 525 342 475 q 308 600 342 574 q 210 626 274 626 l 153 626 l 153 651 l 288 833 l 67 833 l 67 917 l 424 917 l 424 890 l 285 703 m 822 917 l 918 917 l 393 0 l 297 0 l 822 917 m 1161 101 l 1083 101 l 1083 0 l 999 0 l 999 101 l 711 101 l 711 126 l 892 578 l 985 578 l 824 178 l 999 178 l 999 358 l 1083 358 l 1083 178 l 1161 178 l 1161 101 z "},"¿":{"ha":617,"x_min":61,"x_max":554,"o":"m 324 515 q 306 515 324 515 q 262 540 288 515 q 236 604 236 565 q 262 667 236 642 q 324 692 288 692 q 385 667 360 692 q 411 604 411 642 q 385 540 411 565 q 324 515 360 515 m 307 -265 q 184 -235 240 -265 q 94 -151 128 -206 q 61 -31 61 -97 q 94 88 61 38 q 193 199 128 139 q 269 277 247 247 q 292 340 292 307 q 286 386 292 361 l 379 386 q 393 325 393 353 q 365 240 393 278 q 281 151 336 201 q 197 58 222 96 q 171 -26 171 19 q 212 -126 171 -86 q 310 -167 253 -167 q 403 -133 364 -167 q 465 -33 443 -99 l 554 -71 q 463 -215 528 -164 q 307 -265 397 -265 z "},"À":{"ha":921,"x_min":43,"x_max":878,"o":"m 685 186 l 235 186 l 157 0 l 43 0 l 440 932 l 481 932 l 878 0 l 763 0 l 685 186 m 460 735 l 276 283 l 643 283 l 460 735 m 254 1244 l 254 1264 l 385 1264 l 503 1006 l 421 1006 l 254 1244 z "},"Á":{"ha":921,"x_min":43,"x_max":878,"o":"m 685 186 l 235 186 l 157 0 l 43 0 l 440 932 l 481 932 l 878 0 l 763 0 l 685 186 m 460 735 l 276 283 l 643 283 l 460 735 m 539 1264 l 669 1264 l 669 1244 l 503 1006 l 421 1006 l 539 1264 z "},"Â":{"ha":921,"x_min":43,"x_max":878,"o":"m 685 186 l 235 186 l 157 0 l 43 0 l 440 932 l 481 932 l 878 0 l 763 0 l 685 186 m 460 735 l 276 283 l 643 283 l 460 735 m 614 1006 l 461 1156 l 307 1006 l 224 1006 l 428 1264 l 493 1264 l 697 1006 l 614 1006 z "},"Ã":{"ha":921,"x_min":43,"x_max":878,"o":"m 685 186 l 235 186 l 157 0 l 43 0 l 440 932 l 481 932 l 878 0 l 763 0 l 685 186 m 460 735 l 276 283 l 643 283 l 460 735 m 471 1064 l 425 1092 q 408 1103 421 1094 q 384 1115 394 1111 q 365 1119 374 1119 q 335 1104 346 1119 q 324 1067 324 1089 l 324 1044 l 235 1044 q 232 1079 232 1064 q 265 1180 232 1140 q 353 1219 299 1219 q 450 1188 400 1219 l 497 1157 q 515 1145 501 1154 q 538 1133 528 1136 q 558 1129 549 1129 q 589 1144 578 1129 q 600 1181 600 1158 l 600 1206 l 689 1206 q 690 1169 690 1194 q 658 1070 690 1110 q 572 1031 625 1031 q 471 1064 525 1031 z "},"Ä":{"ha":921,"x_min":43,"x_max":878,"o":"m 685 186 l 235 186 l 157 0 l 43 0 l 440 932 l 481 932 l 878 0 l 763 0 l 685 186 m 460 735 l 276 283 l 643 283 l 460 735 m 299 1051 q 245 1073 268 1051 q 222 1125 222 1094 q 245 1177 222 1156 q 299 1199 268 1199 q 353 1177 331 1199 q 375 1125 375 1156 q 353 1073 375 1094 q 299 1051 331 1051 m 622 1050 q 569 1072 592 1050 q 546 1124 546 1093 q 569 1176 546 1154 q 622 1199 592 1199 q 676 1176 654 1199 q 699 1124 699 1154 q 676 1072 699 1093 q 622 1050 654 1050 z "},"Å":{"ha":921,"x_min":43,"x_max":878,"o":"m 685 186 l 235 186 l 157 0 l 43 0 l 440 932 l 481 932 l 878 0 l 763 0 l 685 186 m 460 735 l 276 283 l 643 283 l 460 735 m 460 969 q 351 1013 394 969 q 307 1119 307 1057 q 351 1226 307 1182 q 460 1269 394 1269 q 570 1226 526 1269 q 614 1119 614 1182 q 570 1013 614 1057 q 460 969 526 969 m 461 1050 q 476 1050 461 1050 q 510 1070 490 1050 q 531 1119 531 1090 q 510 1170 531 1150 q 461 1190 490 1190 q 410 1170 431 1190 q 390 1119 390 1150 q 411 1070 390 1090 q 461 1050 432 1050 z "},"Æ":{"ha":1140,"x_min":18,"x_max":1085,"o":"m 1085 97 l 1085 0 l 649 0 l 617 186 l 233 186 l 135 0 l 18 0 l 496 917 l 1068 917 l 1068 819 l 621 819 l 668 539 l 957 539 l 957 442 l 685 442 l 743 97 l 1085 97 m 285 283 l 600 283 l 524 751 l 285 283 z "},"Ç":{"ha":993,"x_min":67,"x_max":924,"o":"m 543 -15 q 303 47 413 -15 q 130 218 193 110 q 67 458 67 326 q 130 699 67 590 q 303 869 193 807 q 543 932 413 932 q 765 878 665 932 q 924 735 865 825 l 843 671 q 715 790 790 747 q 544 832 639 832 q 358 783 442 832 q 227 649 275 735 q 179 458 179 564 q 227 267 179 353 q 358 133 275 182 q 544 85 442 85 q 715 127 639 85 q 843 246 790 169 l 924 182 q 766 38 867 92 q 543 -15 665 -15 m 376 -251 l 376 -175 q 454 -181 419 -181 q 533 -158 503 -181 q 563 -90 563 -136 q 515 13 563 -35 l 561 36 q 628 -22 603 15 q 654 -106 654 -58 q 605 -219 654 -174 q 471 -265 556 -265 q 376 -251 425 -265 z "},"È":{"ha":786,"x_min":126,"x_max":731,"o":"m 126 917 l 714 917 l 714 819 l 235 819 l 235 539 l 601 539 l 601 442 l 235 442 l 235 97 l 731 97 l 731 0 l 126 0 l 126 917 m 214 1244 l 214 1264 l 344 1264 l 463 1006 l 381 1006 l 214 1244 z "},"É":{"ha":786,"x_min":126,"x_max":731,"o":"m 126 917 l 714 917 l 714 819 l 235 819 l 235 539 l 601 539 l 601 442 l 235 442 l 235 97 l 731 97 l 731 0 l 126 0 l 126 917 m 499 1264 l 629 1264 l 629 1244 l 463 1006 l 381 1006 l 499 1264 z "},"Ê":{"ha":786,"x_min":126,"x_max":731,"o":"m 126 917 l 714 917 l 714 819 l 235 819 l 235 539 l 601 539 l 601 442 l 235 442 l 235 97 l 731 97 l 731 0 l 126 0 l 126 917 m 574 1006 l 421 1156 l 267 1006 l 183 1006 l 388 1264 l 453 1264 l 657 1006 l 574 1006 z "},"Ë":{"ha":786,"x_min":126,"x_max":731,"o":"m 126 917 l 714 917 l 714 819 l 235 819 l 235 539 l 601 539 l 601 442 l 235 442 l 235 97 l 731 97 l 731 0 l 126 0 l 126 917 m 258 1051 q 205 1073 228 1051 q 182 1125 182 1094 q 205 1177 182 1156 q 258 1199 228 1199 q 313 1177 290 1199 q 335 1125 335 1156 q 313 1073 335 1094 q 258 1051 290 1051 m 582 1050 q 528 1072 551 1050 q 506 1124 506 1093 q 528 1176 506 1154 q 582 1199 551 1199 q 636 1176 614 1199 q 658 1124 658 1154 q 636 1072 658 1093 q 582 1050 614 1050 z "},"Ì":{"ha":360,"x_min":-25,"x_max":235,"o":"m 126 917 l 235 917 l 235 0 l 126 0 l 126 917 m -25 1244 l -25 1264 l 106 1264 l 224 1006 l 142 1006 l -25 1244 z "},"Í":{"ha":360,"x_min":126,"x_max":389,"o":"m 126 917 l 235 917 l 235 0 l 126 0 l 126 917 m 258 1264 l 389 1264 l 389 1244 l 222 1006 l 140 1006 l 258 1264 z "},"Î":{"ha":360,"x_min":-56,"x_max":418,"o":"m 126 917 l 235 917 l 235 0 l 126 0 l 126 917 m 335 1006 l 182 1156 l 28 1006 l -56 1006 l 149 1264 l 214 1264 l 418 1006 l 335 1006 z "},"Ï":{"ha":360,"x_min":-57,"x_max":419,"o":"m 126 917 l 235 917 l 235 0 l 126 0 l 126 917 m 19 1051 q -34 1073 -11 1051 q -57 1125 -57 1094 q -34 1177 -57 1156 q 19 1199 -11 1199 q 74 1177 51 1199 q 96 1125 96 1156 q 74 1073 96 1094 q 19 1051 51 1051 m 343 1050 q 290 1072 313 1050 q 267 1124 267 1093 q 290 1176 267 1154 q 343 1199 313 1199 q 397 1176 375 1199 q 419 1124 419 1154 q 397 1072 419 1093 q 343 1050 375 1050 z "},"Ð":{"ha":964,"x_min":-6,"x_max":897,"o":"m 399 917 q 664 858 551 917 q 837 697 776 800 q 897 460 897 593 q 837 224 897 328 q 664 60 776 119 q 399 0 551 0 l 126 0 l 126 381 l -6 381 l -6 472 l 126 472 l 126 917 l 399 917 m 397 97 q 605 144 517 97 q 739 274 693 192 q 785 460 785 356 q 739 647 785 565 q 606 774 693 728 q 397 819 518 819 l 235 819 l 235 472 l 415 472 l 415 381 l 235 381 l 235 97 l 397 97 z "},"Ñ":{"ha":983,"x_min":126,"x_max":857,"o":"m 857 917 l 857 -15 l 818 -15 l 235 688 l 235 0 l 126 0 l 126 932 l 165 932 l 749 228 l 749 917 l 857 917 m 501 1064 l 456 1092 q 438 1103 451 1094 q 415 1115 425 1111 q 396 1119 404 1119 q 365 1104 376 1119 q 354 1067 354 1089 l 354 1044 l 265 1044 q 263 1079 263 1064 q 296 1180 263 1140 q 383 1219 329 1219 q 481 1188 431 1219 l 528 1157 q 545 1145 532 1154 q 569 1133 558 1136 q 589 1129 579 1129 q 619 1144 608 1129 q 631 1181 631 1158 l 631 1206 l 719 1206 q 721 1169 721 1194 q 688 1070 721 1110 q 603 1031 656 1031 q 501 1064 556 1031 z "},"Ò":{"ha":1085,"x_min":67,"x_max":1018,"o":"m 542 -15 q 302 47 411 -15 q 130 219 193 110 q 67 458 67 328 q 130 699 67 590 q 302 869 193 807 q 542 932 411 932 q 781 869 671 932 q 954 699 890 807 q 1018 458 1018 590 q 954 218 1018 326 q 781 47 890 110 q 542 -15 671 -15 m 543 85 q 728 134 644 85 q 858 269 811 183 q 906 460 906 354 q 858 649 906 564 q 728 783 811 735 q 543 832 644 832 q 357 783 440 832 q 226 650 274 735 q 179 460 179 565 q 226 269 179 354 q 357 134 274 183 q 543 85 440 85 m 336 1244 l 336 1264 l 467 1264 l 585 1006 l 503 1006 l 336 1244 z "},"Ó":{"ha":1085,"x_min":67,"x_max":1018,"o":"m 542 -15 q 302 47 411 -15 q 130 219 193 110 q 67 458 67 328 q 130 699 67 590 q 302 869 193 807 q 542 932 411 932 q 781 869 671 932 q 954 699 890 807 q 1018 458 1018 590 q 954 218 1018 326 q 781 47 890 110 q 542 -15 671 -15 m 543 85 q 728 134 644 85 q 858 269 811 183 q 906 460 906 354 q 858 649 906 564 q 728 783 811 735 q 543 832 644 832 q 357 783 440 832 q 226 650 274 735 q 179 460 179 565 q 226 269 179 354 q 357 134 274 183 q 543 85 440 85 m 621 1264 l 751 1264 l 751 1244 l 585 1006 l 503 1006 l 621 1264 z "},"Ô":{"ha":1085,"x_min":67,"x_max":1018,"o":"m 542 -15 q 302 47 411 -15 q 130 219 193 110 q 67 458 67 328 q 130 699 67 590 q 302 869 193 807 q 542 932 411 932 q 781 869 671 932 q 954 699 890 807 q 1018 458 1018 590 q 954 218 1018 326 q 781 47 890 110 q 542 -15 671 -15 m 543 85 q 728 134 644 85 q 858 269 811 183 q 906 460 906 354 q 858 649 906 564 q 728 783 811 735 q 543 832 644 832 q 357 783 440 832 q 226 650 274 735 q 179 460 179 565 q 226 269 179 354 q 357 134 274 183 q 543 85 440 85 m 696 1006 l 543 1156 l 389 1006 l 306 1006 l 510 1264 l 575 1264 l 779 1006 l 696 1006 z "},"Õ":{"ha":1085,"x_min":67,"x_max":1018,"o":"m 542 -15 q 302 47 411 -15 q 130 219 193 110 q 67 458 67 328 q 130 699 67 590 q 302 869 193 807 q 542 932 411 932 q 781 869 671 932 q 954 699 890 807 q 1018 458 1018 590 q 954 218 1018 326 q 781 47 890 110 q 542 -15 671 -15 m 543 85 q 728 134 644 85 q 858 269 811 183 q 906 460 906 354 q 858 649 906 564 q 728 783 811 735 q 543 832 644 832 q 357 783 440 832 q 226 650 274 735 q 179 460 179 565 q 226 269 179 354 q 357 134 274 183 q 543 85 440 85 m 553 1064 l 507 1092 q 490 1103 503 1094 q 466 1115 476 1111 q 447 1119 456 1119 q 417 1104 428 1119 q 406 1067 406 1089 l 406 1044 l 317 1044 q 314 1079 314 1064 q 347 1180 314 1140 q 435 1219 381 1219 q 532 1188 482 1219 l 579 1157 q 597 1145 583 1154 q 620 1133 610 1136 q 640 1129 631 1129 q 671 1144 660 1129 q 682 1181 682 1158 l 682 1206 l 771 1206 q 772 1169 772 1194 q 740 1070 772 1110 q 654 1031 707 1031 q 553 1064 607 1031 z "},"Ö":{"ha":1085,"x_min":67,"x_max":1018,"o":"m 542 -15 q 302 47 411 -15 q 130 219 193 110 q 67 458 67 328 q 130 699 67 590 q 302 869 193 807 q 542 932 411 932 q 781 869 671 932 q 954 699 890 807 q 1018 458 1018 590 q 954 218 1018 326 q 781 47 890 110 q 542 -15 671 -15 m 543 85 q 728 134 644 85 q 858 269 811 183 q 906 460 906 354 q 858 649 906 564 q 728 783 811 735 q 543 832 644 832 q 357 783 440 832 q 226 650 274 735 q 179 460 179 565 q 226 269 179 354 q 357 134 274 183 q 543 85 440 85 m 381 1051 q 327 1073 350 1051 q 304 1125 304 1094 q 327 1177 304 1156 q 381 1199 350 1199 q 435 1177 413 1199 q 457 1125 457 1156 q 435 1073 457 1094 q 381 1051 413 1051 m 704 1050 q 651 1072 674 1050 q 628 1124 628 1093 q 651 1176 628 1154 q 704 1199 674 1199 q 758 1176 736 1199 q 781 1124 781 1154 q 758 1072 781 1093 q 704 1050 736 1050 z "},"×":{"ha":778,"x_min":107,"x_max":671,"o":"m 107 219 l 324 439 l 107 656 l 172 721 l 389 504 l 606 721 l 671 656 l 454 439 l 671 219 l 607 156 l 389 372 l 172 156 l 107 219 z "},"Ø":{"ha":1085,"x_min":58,"x_max":1026,"o":"m 911 761 q 990 622 963 699 q 1018 458 1018 544 q 954 218 1018 326 q 781 47 890 110 q 542 -15 671 -15 q 380 12 457 -15 q 240 89 303 39 l 125 -26 l 58 40 l 174 156 q 94 295 122 218 q 67 458 67 372 q 130 699 67 590 q 302 869 193 807 q 542 932 411 932 q 703 904 626 932 q 843 826 781 876 l 960 943 l 1026 876 l 911 761 m 543 836 q 355 787 439 836 q 223 651 271 738 q 175 460 175 565 q 247 229 175 328 l 774 756 q 543 836 675 836 m 543 81 q 730 131 646 81 q 862 267 814 181 q 910 460 910 354 q 838 689 910 590 l 311 160 q 543 81 410 81 z "},"Ù":{"ha":957,"x_min":114,"x_max":842,"o":"m 479 -15 q 290 29 372 -15 q 160 159 207 74 q 114 364 114 244 l 114 917 l 222 917 l 222 357 q 294 154 222 224 q 479 85 365 85 q 663 154 592 85 q 733 357 733 224 l 733 917 l 842 917 l 842 364 q 795 159 842 244 q 666 29 749 74 q 479 -15 583 -15 m 271 1244 l 271 1264 l 401 1264 l 519 1006 l 438 1006 l 271 1244 z "},"Ú":{"ha":957,"x_min":114,"x_max":842,"o":"m 479 -15 q 290 29 372 -15 q 160 159 207 74 q 114 364 114 244 l 114 917 l 222 917 l 222 357 q 294 154 222 224 q 479 85 365 85 q 663 154 592 85 q 733 357 733 224 l 733 917 l 842 917 l 842 364 q 795 159 842 244 q 666 29 749 74 q 479 -15 583 -15 m 554 1264 l 685 1264 l 685 1244 l 518 1006 l 436 1006 l 554 1264 z "},"Û":{"ha":957,"x_min":114,"x_max":842,"o":"m 479 -15 q 290 29 372 -15 q 160 159 207 74 q 114 364 114 244 l 114 917 l 222 917 l 222 357 q 294 154 222 224 q 479 85 365 85 q 663 154 592 85 q 733 357 733 224 l 733 917 l 842 917 l 842 364 q 795 159 842 244 q 666 29 749 74 q 479 -15 583 -15 m 631 1006 l 478 1156 l 324 1006 l 240 1006 l 444 1264 l 510 1264 l 714 1006 l 631 1006 z "},"Ü":{"ha":957,"x_min":114,"x_max":842,"o":"m 479 -15 q 290 29 372 -15 q 160 159 207 74 q 114 364 114 244 l 114 917 l 222 917 l 222 357 q 294 154 222 224 q 479 85 365 85 q 663 154 592 85 q 733 357 733 224 l 733 917 l 842 917 l 842 364 q 795 159 842 244 q 666 29 749 74 q 479 -15 583 -15 m 315 1051 q 262 1073 285 1051 q 239 1125 239 1094 q 262 1177 239 1156 q 315 1199 285 1199 q 369 1177 347 1199 q 392 1125 392 1156 q 369 1073 392 1094 q 315 1051 347 1051 m 639 1050 q 585 1072 608 1050 q 563 1124 563 1093 q 585 1176 563 1154 q 639 1199 608 1199 q 693 1176 671 1199 q 715 1124 715 1154 q 693 1072 715 1093 q 639 1050 671 1050 z "},"Ý":{"ha":856,"x_min":56,"x_max":800,"o":"m 482 379 l 482 0 l 374 0 l 374 379 l 56 917 l 178 917 l 428 486 l 679 917 l 800 917 l 482 379 m 501 1264 l 632 1264 l 632 1244 l 465 1006 l 383 1006 l 501 1264 z "},"Þ":{"ha":796,"x_min":126,"x_max":742,"o":"m 126 917 l 235 917 l 235 753 l 449 753 q 604 719 538 753 q 706 623 671 685 q 742 481 742 561 q 706 340 742 401 q 603 242 669 278 q 449 207 538 207 l 235 207 l 235 0 l 126 0 l 126 917 m 446 304 q 581 352 533 304 q 629 479 629 400 q 581 607 629 558 q 446 656 533 656 l 235 656 l 235 304 l 446 304 z "},"ß":{"ha":849,"x_min":118,"x_max":810,"o":"m 344 79 l 404 157 q 582 83 481 83 q 669 104 636 83 q 701 168 701 125 q 686 217 701 197 q 653 249 671 238 q 579 293 635 260 q 467 376 504 338 q 431 467 431 415 q 438 516 431 485 q 456 576 444 547 l 514 738 q 535 838 535 794 q 500 925 535 892 q 403 958 465 958 q 274 903 324 958 q 224 746 224 849 l 224 0 l 118 0 l 118 750 q 198 975 118 893 q 410 1057 278 1057 q 580 1003 515 1057 q 644 854 644 949 q 625 746 644 800 l 567 578 q 550 526 557 551 q 543 485 543 501 q 556 444 543 461 q 588 414 569 426 q 657 371 607 401 q 772 280 735 324 q 810 174 810 236 q 742 35 810 86 q 574 -15 675 -15 q 344 79 436 -15 z "},"à":{"ha":733,"x_min":61,"x_max":625,"o":"m 361 692 q 553 621 481 692 q 625 417 625 550 l 625 0 l 525 0 l 525 88 q 429 11 488 38 q 297 -15 371 -15 q 127 36 193 -15 q 61 175 61 88 q 128 313 61 261 q 304 364 194 364 l 518 364 l 518 422 q 474 549 518 506 q 354 593 431 593 q 246 566 293 593 q 157 485 199 539 l 86 543 q 204 655 132 618 q 361 692 276 692 m 311 74 q 414 98 367 74 q 490 165 461 122 q 518 260 518 208 l 518 276 l 317 276 q 208 252 246 276 q 171 181 171 228 q 211 101 171 129 q 311 74 251 74 m 151 1064 l 151 1083 l 282 1083 l 400 786 l 318 786 l 151 1064 z "},"á":{"ha":733,"x_min":61,"x_max":625,"o":"m 361 692 q 553 621 481 692 q 625 417 625 550 l 625 0 l 525 0 l 525 88 q 429 11 488 38 q 297 -15 371 -15 q 127 36 193 -15 q 61 175 61 88 q 128 313 61 261 q 304 364 194 364 l 518 364 l 518 422 q 474 549 518 506 q 354 593 431 593 q 246 566 293 593 q 157 485 199 539 l 86 543 q 204 655 132 618 q 361 692 276 692 m 311 74 q 414 98 367 74 q 490 165 461 122 q 518 260 518 208 l 518 276 l 317 276 q 208 252 246 276 q 171 181 171 228 q 211 101 171 129 q 311 74 251 74 m 439 1083 l 569 1083 l 569 1064 l 403 786 l 321 786 l 439 1083 z "},"â":{"ha":733,"x_min":61,"x_max":625,"o":"m 361 692 q 553 621 481 692 q 625 417 625 550 l 625 0 l 525 0 l 525 88 q 429 11 488 38 q 297 -15 371 -15 q 127 36 193 -15 q 61 175 61 88 q 128 313 61 261 q 304 364 194 364 l 518 364 l 518 422 q 474 549 518 506 q 354 593 431 593 q 246 566 293 593 q 157 485 199 539 l 86 543 q 204 655 132 618 q 361 692 276 692 m 311 74 q 414 98 367 74 q 490 165 461 122 q 518 260 518 208 l 518 276 l 317 276 q 208 252 246 276 q 171 181 171 228 q 211 101 171 129 q 311 74 251 74 m 500 786 l 361 964 l 221 786 l 139 786 l 328 1083 l 393 1083 l 581 786 l 500 786 z "},"ã":{"ha":733,"x_min":61,"x_max":625,"o":"m 361 692 q 553 621 481 692 q 625 417 625 550 l 625 0 l 525 0 l 525 88 q 429 11 488 38 q 297 -15 371 -15 q 127 36 193 -15 q 61 175 61 88 q 128 313 61 261 q 304 364 194 364 l 518 364 l 518 422 q 474 549 518 506 q 354 593 431 593 q 246 566 293 593 q 157 485 199 539 l 86 543 q 204 655 132 618 q 361 692 276 692 m 311 74 q 414 98 367 74 q 490 165 461 122 q 518 260 518 208 l 518 276 l 317 276 q 208 252 246 276 q 171 181 171 228 q 211 101 171 129 q 311 74 251 74 m 460 828 q 411 838 436 828 q 365 864 386 847 l 329 894 q 313 908 324 899 q 292 922 301 918 q 271 926 282 926 q 232 869 232 926 l 232 846 l 143 846 q 142 881 142 858 q 174 984 142 943 q 260 1025 206 1025 q 354 989 311 1025 l 390 958 q 449 926 426 926 q 488 983 488 926 l 488 1007 l 576 1007 q 578 972 578 994 q 546 869 578 910 q 460 828 514 828 z "},"ä":{"ha":733,"x_min":61,"x_max":625,"o":"m 361 692 q 553 621 481 692 q 625 417 625 550 l 625 0 l 525 0 l 525 88 q 429 11 488 38 q 297 -15 371 -15 q 127 36 193 -15 q 61 175 61 88 q 128 313 61 261 q 304 364 194 364 l 518 364 l 518 422 q 474 549 518 506 q 354 593 431 593 q 246 566 293 593 q 157 485 199 539 l 86 543 q 204 655 132 618 q 361 692 276 692 m 311 74 q 414 98 367 74 q 490 165 461 122 q 518 260 518 208 l 518 276 l 317 276 q 208 252 246 276 q 171 181 171 228 q 211 101 171 129 q 311 74 251 74 m 211 861 q 158 883 182 861 q 135 935 135 906 q 158 988 135 965 q 211 1010 182 1010 q 266 988 243 1010 q 289 935 289 965 q 266 883 289 904 q 211 861 243 861 m 507 861 q 453 883 476 861 q 429 935 429 906 q 453 988 429 965 q 507 1010 476 1010 q 561 988 539 1010 q 583 935 583 965 q 561 883 583 904 q 507 861 539 861 z "},"å":{"ha":733,"x_min":61,"x_max":625,"o":"m 361 692 q 553 621 481 692 q 625 417 625 550 l 625 0 l 525 0 l 525 88 q 429 11 488 38 q 297 -15 371 -15 q 127 36 193 -15 q 61 175 61 88 q 128 313 61 261 q 304 364 194 364 l 518 364 l 518 422 q 474 549 518 506 q 354 593 431 593 q 246 566 293 593 q 157 485 199 539 l 86 543 q 204 655 132 618 q 361 692 276 692 m 311 74 q 414 98 367 74 q 490 165 461 122 q 518 260 518 208 l 518 276 l 317 276 q 208 252 246 276 q 171 181 171 228 q 211 101 171 129 q 311 74 251 74 m 358 776 q 250 820 294 776 q 206 928 206 864 q 249 1035 206 992 q 358 1078 293 1078 q 468 1035 424 1078 q 513 928 513 992 q 468 820 513 864 q 358 776 424 776 m 360 858 q 409 878 389 858 q 429 928 429 897 q 408 979 429 958 q 360 1000 388 1000 q 310 979 331 1000 q 289 928 289 958 q 309 878 289 897 q 360 858 329 858 z "},"æ":{"ha":1243,"x_min":61,"x_max":1172,"o":"m 632 293 q 714 140 646 197 q 878 83 782 83 q 1082 174 992 83 l 1146 103 q 1025 15 1094 46 q 876 -15 956 -15 q 704 29 782 -15 q 581 149 626 74 q 469 28 544 71 q 300 -15 394 -15 q 127 38 193 -15 q 61 181 61 92 q 128 326 61 271 q 304 381 194 381 l 518 381 l 518 422 q 474 549 518 506 q 356 593 429 593 q 248 565 296 593 q 160 485 200 538 l 89 543 q 207 654 135 617 q 363 692 279 692 q 505 656 444 692 q 594 550 565 619 q 711 654 640 617 q 867 692 782 692 q 1022 653 951 692 q 1132 544 1092 614 q 1172 385 1172 474 q 1169 332 1172 358 q 1163 293 1167 306 l 632 293 m 1061 381 q 1039 494 1065 446 q 966 569 1013 543 q 861 594 919 594 q 708 535 771 594 q 632 381 644 476 l 1061 381 m 313 75 q 414 99 367 75 q 490 165 461 124 q 518 258 518 207 l 518 293 l 317 293 q 171 192 171 293 q 211 106 171 136 q 313 75 251 75 z "},"ç":{"ha":765,"x_min":69,"x_max":703,"o":"m 424 -15 q 245 32 326 -15 q 117 160 164 79 q 69 339 69 242 q 117 517 69 436 q 245 644 164 597 q 424 692 326 692 q 585 652 513 692 q 703 544 657 613 l 626 483 q 425 593 544 593 q 299 559 356 593 q 211 467 243 525 q 179 339 179 408 q 211 210 179 268 q 299 117 243 151 q 425 83 356 83 q 625 192 544 83 l 701 132 q 584 24 656 64 q 424 -15 513 -15 m 242 -251 l 242 -175 q 319 -181 285 -181 q 398 -158 368 -181 q 428 -90 428 -136 q 381 13 428 -35 l 426 36 q 494 -22 468 15 q 519 -106 519 -58 q 470 -219 519 -174 q 336 -265 421 -265 q 242 -251 290 -265 z "},"è":{"ha":793,"x_min":69,"x_max":724,"o":"m 715 306 l 181 306 q 260 144 190 206 q 429 83 329 83 q 636 175 544 83 l 699 103 q 577 16 646 47 q 428 -15 508 -15 q 246 31 328 -15 q 117 158 164 78 q 69 338 69 239 q 115 516 69 435 q 240 644 161 597 q 415 692 319 692 q 572 653 501 692 q 683 544 643 614 q 724 386 724 475 q 715 306 724 347 m 413 594 q 370 594 413 594 q 265 541 328 594 q 185 400 203 488 l 614 400 q 555 542 613 490 q 413 594 497 594 m 204 1064 l 204 1083 l 335 1083 l 453 786 l 371 786 l 204 1064 z "},"é":{"ha":793,"x_min":69,"x_max":724,"o":"m 715 306 l 181 306 q 260 144 190 206 q 429 83 329 83 q 636 175 544 83 l 699 103 q 577 16 646 47 q 428 -15 508 -15 q 246 31 328 -15 q 117 158 164 78 q 69 338 69 239 q 115 516 69 435 q 240 644 161 597 q 415 692 319 692 q 572 653 501 692 q 683 544 643 614 q 724 386 724 475 q 715 306 724 347 m 413 594 q 370 594 413 594 q 265 541 328 594 q 185 400 203 488 l 614 400 q 555 542 613 490 q 413 594 497 594 m 492 1083 l 622 1083 l 622 1064 l 456 786 l 374 786 l 492 1083 z "},"ê":{"ha":793,"x_min":69,"x_max":724,"o":"m 715 306 l 181 306 q 260 144 190 206 q 429 83 329 83 q 636 175 544 83 l 699 103 q 577 16 646 47 q 428 -15 508 -15 q 246 31 328 -15 q 117 158 164 78 q 69 338 69 239 q 115 516 69 435 q 240 644 161 597 q 415 692 319 692 q 572 653 501 692 q 683 544 643 614 q 724 386 724 475 q 715 306 724 347 m 413 594 q 370 594 413 594 q 265 541 328 594 q 185 400 203 488 l 614 400 q 555 542 613 490 q 413 594 497 594 m 553 786 l 414 964 l 274 786 l 192 786 l 381 1083 l 446 1083 l 633 786 l 553 786 z "},"ë":{"ha":793,"x_min":69,"x_max":724,"o":"m 715 306 l 181 306 q 260 144 190 206 q 429 83 329 83 q 636 175 544 83 l 699 103 q 577 16 646 47 q 428 -15 508 -15 q 246 31 328 -15 q 117 158 164 78 q 69 338 69 239 q 115 516 69 435 q 240 644 161 597 q 415 692 319 692 q 572 653 501 692 q 683 544 643 614 q 724 386 724 475 q 715 306 724 347 m 413 594 q 370 594 413 594 q 265 541 328 594 q 185 400 203 488 l 614 400 q 555 542 613 490 q 413 594 497 594 m 264 861 q 211 883 235 861 q 188 935 188 906 q 211 988 188 965 q 264 1010 235 1010 q 319 988 296 1010 q 342 935 342 965 q 319 883 342 904 q 264 861 296 861 m 560 861 q 506 883 529 861 q 482 935 482 906 q 506 988 482 965 q 560 1010 529 1010 q 614 988 592 1010 q 636 935 636 965 q 614 883 636 904 q 560 861 592 861 z "},"ì":{"ha":342,"x_min":7,"x_max":225,"o":"m 118 676 l 225 676 l 225 0 l 118 0 l 118 676 m 7 1064 l 7 1083 l 138 1083 l 214 786 l 132 786 l 7 1064 z "},"í":{"ha":342,"x_min":118,"x_max":336,"o":"m 118 676 l 225 676 l 225 0 l 118 0 l 118 676 m 206 1083 l 336 1083 l 336 1064 l 211 786 l 129 786 l 206 1083 z "},"î":{"ha":342,"x_min":-49,"x_max":393,"o":"m 118 676 l 225 676 l 225 0 l 118 0 l 118 676 m 313 786 l 174 964 l 33 786 l -49 786 l 140 1083 l 206 1083 l 393 786 l 313 786 z "},"ï":{"ha":342,"x_min":-32,"x_max":375,"o":"m 118 676 l 225 676 l 225 0 l 118 0 l 118 676 m 44 861 q -9 883 14 861 q -32 935 -32 904 q -9 988 -32 965 q 44 1010 14 1010 q 99 988 76 1010 q 122 935 122 965 q 99 883 122 904 q 44 861 76 861 m 299 861 q 244 883 268 861 q 221 935 221 906 q 244 988 221 965 q 299 1010 268 1010 q 353 988 331 1010 q 375 935 375 965 q 353 883 375 904 q 299 861 331 861 z "},"ð":{"ha":790,"x_min":69,"x_max":719,"o":"m 569 638 q 653 517 625 561 q 701 420 682 472 q 719 308 719 368 q 678 144 719 218 q 562 27 636 69 q 394 -15 488 -15 q 227 26 301 -15 q 111 141 153 68 q 69 301 69 214 q 111 460 69 389 q 224 573 153 532 q 382 614 296 614 q 465 603 425 614 l 325 797 l 118 697 l 81 776 l 272 868 l 179 997 l 260 1057 l 367 913 l 581 1015 l 619 939 l 418 842 l 569 638 m 394 83 q 505 112 456 83 q 582 190 554 140 q 610 301 610 239 q 582 413 610 363 q 505 490 554 463 q 394 518 456 518 q 284 490 333 518 q 207 412 235 461 q 179 300 179 363 q 240 144 179 206 q 394 83 301 83 z "},"ñ":{"ha":786,"x_min":118,"x_max":678,"o":"m 426 692 q 611 618 544 692 q 678 425 678 544 l 678 0 l 571 0 l 571 413 q 526 543 571 493 q 403 593 481 593 q 275 542 325 593 q 225 413 225 492 l 225 0 l 118 0 l 118 676 l 218 676 l 218 604 q 309 669 256 646 q 426 692 363 692 m 496 828 q 447 838 472 828 q 401 864 422 847 l 365 894 q 349 908 360 899 q 328 922 338 918 q 307 926 318 926 q 268 869 268 926 l 268 846 l 179 846 q 178 881 178 858 q 210 984 178 943 q 296 1025 242 1025 q 390 989 347 1025 l 426 958 q 485 926 463 926 q 524 983 524 926 l 524 1007 l 613 1007 q 614 972 614 994 q 582 869 614 910 q 496 828 550 828 z "},"ò":{"ha":847,"x_min":69,"x_max":778,"o":"m 422 -14 q 374 -14 422 -14 q 244 33 325 -14 q 117 162 164 81 q 69 339 69 243 q 117 517 69 436 q 245 645 164 599 q 424 692 326 692 q 602 644 521 692 q 731 517 683 597 q 778 339 778 436 q 731 162 778 243 q 601 33 683 81 q 422 -14 519 -14 m 422 85 q 456 85 422 85 q 547 118 490 85 q 635 209 603 151 q 668 338 668 267 q 636 468 668 410 q 548 560 604 526 q 424 593 492 593 q 299 560 354 593 q 211 468 243 526 q 179 338 179 410 q 211 209 179 267 q 299 118 243 151 q 422 85 354 85 m 217 1064 l 217 1083 l 347 1083 l 465 786 l 383 786 l 217 1064 z "},"ó":{"ha":847,"x_min":69,"x_max":778,"o":"m 422 -14 q 374 -14 422 -14 q 244 33 325 -14 q 117 162 164 81 q 69 339 69 243 q 117 517 69 436 q 245 645 164 599 q 424 692 326 692 q 602 644 521 692 q 731 517 683 597 q 778 339 778 436 q 731 162 778 243 q 601 33 683 81 q 422 -14 519 -14 m 422 85 q 456 85 422 85 q 547 118 490 85 q 635 209 603 151 q 668 338 668 267 q 636 468 668 410 q 548 560 604 526 q 424 593 492 593 q 299 560 354 593 q 211 468 243 526 q 179 338 179 410 q 211 209 179 267 q 299 118 243 151 q 422 85 354 85 m 504 1083 l 635 1083 l 635 1064 l 468 786 l 386 786 l 504 1083 z "},"ô":{"ha":847,"x_min":69,"x_max":778,"o":"m 422 -14 q 374 -14 422 -14 q 244 33 325 -14 q 117 162 164 81 q 69 339 69 243 q 117 517 69 436 q 245 645 164 599 q 424 692 326 692 q 602 644 521 692 q 731 517 683 597 q 778 339 778 436 q 731 162 778 243 q 601 33 683 81 q 422 -14 519 -14 m 422 85 q 456 85 422 85 q 547 118 490 85 q 635 209 603 151 q 668 338 668 267 q 636 468 668 410 q 548 560 604 526 q 424 593 492 593 q 299 560 354 593 q 211 468 243 526 q 179 338 179 410 q 211 209 179 267 q 299 118 243 151 q 422 85 354 85 m 564 786 l 425 964 l 285 786 l 203 786 l 392 1083 l 457 1083 l 644 786 l 564 786 z "},"õ":{"ha":847,"x_min":69,"x_max":778,"o":"m 422 -14 q 374 -14 422 -14 q 244 33 325 -14 q 117 162 164 81 q 69 339 69 243 q 117 517 69 436 q 245 645 164 599 q 424 692 326 692 q 602 644 521 692 q 731 517 683 597 q 778 339 778 436 q 731 162 778 243 q 601 33 683 81 q 422 -14 519 -14 m 422 85 q 456 85 422 85 q 547 118 490 85 q 635 209 603 151 q 668 338 668 267 q 636 468 668 410 q 548 560 604 526 q 424 593 492 593 q 299 560 354 593 q 211 468 243 526 q 179 338 179 410 q 211 209 179 267 q 299 118 243 151 q 422 85 354 85 m 524 828 q 475 838 500 828 q 429 864 450 847 l 393 894 q 376 908 388 899 q 356 922 365 918 q 335 926 346 926 q 296 869 296 926 l 296 846 l 207 846 q 206 881 206 858 q 238 984 206 943 q 324 1025 269 1025 q 418 989 375 1025 l 454 958 q 513 926 490 926 q 551 983 551 926 l 551 1007 l 640 1007 q 642 972 642 994 q 610 869 642 910 q 524 828 578 828 z "},"ö":{"ha":847,"x_min":69,"x_max":778,"o":"m 422 -14 q 374 -14 422 -14 q 244 33 325 -14 q 117 162 164 81 q 69 339 69 243 q 117 517 69 436 q 245 645 164 599 q 424 692 326 692 q 602 644 521 692 q 731 517 683 597 q 778 339 778 436 q 731 162 778 243 q 601 33 683 81 q 422 -14 519 -14 m 422 85 q 456 85 422 85 q 547 118 490 85 q 635 209 603 151 q 668 338 668 267 q 636 468 668 410 q 548 560 604 526 q 424 593 492 593 q 299 560 354 593 q 211 468 243 526 q 179 338 179 410 q 211 209 179 267 q 299 118 243 151 q 422 85 354 85 m 275 861 q 222 883 246 861 q 199 935 199 906 q 222 988 199 965 q 275 1010 246 1010 q 330 988 307 1010 q 353 935 353 965 q 330 883 353 904 q 275 861 307 861 m 571 861 q 517 883 540 861 q 493 935 493 906 q 517 988 493 965 q 571 1010 540 1010 q 625 988 603 1010 q 647 935 647 965 q 625 883 647 904 q 571 861 603 861 z "},"÷":{"ha":778,"x_min":78,"x_max":699,"o":"m 386 608 q 370 608 386 608 q 332 630 354 608 q 310 682 310 651 q 332 735 310 714 q 386 757 354 757 q 440 735 418 757 q 463 682 463 714 q 440 630 463 651 q 386 608 418 608 m 78 485 l 699 485 l 699 390 l 78 390 l 78 485 m 386 114 q 370 114 386 114 q 332 135 354 114 q 310 188 310 157 q 332 240 310 219 q 386 261 354 261 q 440 240 418 261 q 463 188 463 219 q 440 135 463 157 q 386 114 418 114 z "},"ø":{"ha":861,"x_min":68,"x_max":794,"o":"m 713 553 q 785 338 785 458 q 737 160 785 242 q 607 32 689 79 q 429 -15 525 -15 q 215 57 310 -15 l 135 -26 l 68 40 l 150 122 q 78 338 78 217 q 125 516 78 435 q 253 644 172 597 q 431 692 333 692 q 646 619 551 692 l 728 700 l 794 636 l 713 553 m 431 597 q 301 563 358 597 q 213 470 244 529 q 181 338 181 411 q 222 189 181 254 l 581 550 q 431 597 513 597 m 429 76 q 558 111 500 76 q 649 206 615 146 q 682 338 682 265 q 640 486 682 421 l 281 126 q 429 76 343 76 z "},"ù":{"ha":778,"x_min":110,"x_max":669,"o":"m 390 -15 q 247 20 311 -15 q 147 120 183 56 q 110 269 110 185 l 110 676 l 215 676 l 215 263 q 265 132 215 181 q 390 83 315 83 q 513 133 464 83 q 563 263 563 182 l 563 676 l 669 676 l 669 269 q 633 120 669 185 q 532 20 596 56 q 390 -15 468 -15 m 181 1064 l 181 1083 l 311 1083 l 429 786 l 347 786 l 181 1064 z "},"ú":{"ha":778,"x_min":110,"x_max":669,"o":"m 390 -15 q 247 20 311 -15 q 147 120 183 56 q 110 269 110 185 l 110 676 l 215 676 l 215 263 q 265 132 215 181 q 390 83 315 83 q 513 133 464 83 q 563 263 563 182 l 563 676 l 669 676 l 669 269 q 633 120 669 185 q 532 20 596 56 q 390 -15 468 -15 m 468 1083 l 599 1083 l 599 1064 l 432 786 l 350 786 l 468 1083 z "},"û":{"ha":778,"x_min":110,"x_max":669,"o":"m 390 -15 q 247 20 311 -15 q 147 120 183 56 q 110 269 110 185 l 110 676 l 215 676 l 215 263 q 265 132 215 181 q 390 83 315 83 q 513 133 464 83 q 563 263 563 182 l 563 676 l 669 676 l 669 269 q 633 120 669 185 q 532 20 596 56 q 390 -15 468 -15 m 529 786 l 390 964 l 250 786 l 168 786 l 357 1083 l 422 1083 l 610 786 l 529 786 z "},"ü":{"ha":778,"x_min":110,"x_max":669,"o":"m 390 -15 q 247 20 311 -15 q 147 120 183 56 q 110 269 110 185 l 110 676 l 215 676 l 215 263 q 265 132 215 181 q 390 83 315 83 q 513 133 464 83 q 563 263 563 182 l 563 676 l 669 676 l 669 269 q 633 120 669 185 q 532 20 596 56 q 390 -15 468 -15 m 240 861 q 188 883 211 861 q 164 935 164 906 q 188 988 164 965 q 240 1010 211 1010 q 295 988 272 1010 q 318 935 318 965 q 295 883 318 904 q 240 861 272 861 m 536 861 q 482 883 506 861 q 458 935 458 906 q 482 988 458 965 q 536 1010 506 1010 q 590 988 568 1010 q 613 935 613 965 q 590 883 613 904 q 536 861 568 861 z "},"ý":{"ha":749,"x_min":36,"x_max":713,"o":"m 713 676 l 379 -94 q 284 -224 340 -183 q 150 -265 228 -265 q 46 -251 99 -265 l 46 -161 q 128 -168 99 -168 q 217 -144 181 -168 q 281 -60 254 -121 l 317 21 l 36 676 l 151 676 l 375 138 l 599 676 l 713 676 m 450 1083 l 581 1083 l 581 1064 l 414 786 l 332 786 l 450 1083 z "},"þ":{"ha":878,"x_min":118,"x_max":808,"o":"m 474 692 q 646 645 569 692 q 765 518 722 599 q 808 339 808 438 q 765 159 808 240 q 644 31 721 78 q 474 -15 568 -15 q 333 15 399 -15 q 225 97 267 44 l 225 -250 l 118 -250 l 118 1042 l 225 1042 l 225 578 q 331 661 265 631 q 474 692 397 692 m 458 83 q 581 116 526 83 q 667 207 636 149 q 699 338 699 265 q 667 468 699 410 q 581 560 636 526 q 458 593 526 593 q 344 565 397 593 q 257 481 290 538 q 224 339 224 424 q 256 197 224 254 q 342 111 289 139 q 458 83 396 83 z "},"ÿ":{"ha":749,"x_min":36,"x_max":713,"o":"m 713 676 l 379 -94 q 284 -224 340 -183 q 150 -265 228 -265 q 46 -251 99 -265 l 46 -161 q 128 -168 99 -168 q 217 -144 181 -168 q 281 -60 254 -121 l 317 21 l 36 676 l 151 676 l 375 138 l 599 676 l 713 676 m 222 861 q 169 883 193 861 q 146 935 146 906 q 169 988 146 965 q 222 1010 193 1010 q 277 988 254 1010 q 300 935 300 965 q 277 883 300 904 q 222 861 254 861 m 518 861 q 464 883 488 861 q 440 935 440 906 q 464 988 440 965 q 518 1010 488 1010 q 572 988 550 1010 q 594 935 594 965 q 572 883 594 904 q 518 861 550 861 z "},"Ā":{"ha":921,"x_min":43,"x_max":878,"o":"m 685 186 l 235 186 l 157 0 l 43 0 l 440 932 l 481 932 l 878 0 l 763 0 l 685 186 m 460 735 l 276 283 l 643 283 l 460 735 m 257 1157 l 667 1157 l 667 1069 l 257 1069 l 257 1157 z "},"ā":{"ha":733,"x_min":61,"x_max":625,"o":"m 361 692 q 553 621 481 692 q 625 417 625 550 l 625 0 l 525 0 l 525 88 q 429 11 488 38 q 297 -15 371 -15 q 127 36 193 -15 q 61 175 61 88 q 128 313 61 261 q 304 364 194 364 l 518 364 l 518 422 q 474 549 518 506 q 354 593 431 593 q 246 566 293 593 q 157 485 199 539 l 86 543 q 204 655 132 618 q 361 692 276 692 m 311 74 q 414 98 367 74 q 490 165 461 122 q 518 260 518 208 l 518 276 l 317 276 q 208 252 246 276 q 171 181 171 228 q 211 101 171 129 q 311 74 251 74 m 169 978 l 551 978 l 551 892 l 169 892 l 169 978 z "},"Ă":{"ha":921,"x_min":43,"x_max":878,"o":"m 685 186 l 235 186 l 157 0 l 43 0 l 440 932 l 481 932 l 878 0 l 763 0 l 685 186 m 460 735 l 276 283 l 643 283 l 460 735 m 460 1008 q 308 1069 365 1008 q 250 1229 250 1129 l 250 1264 l 338 1264 l 338 1231 q 371 1131 338 1168 q 460 1093 404 1093 q 550 1130 517 1093 q 583 1231 583 1167 l 583 1264 l 671 1264 l 671 1229 q 612 1069 671 1131 q 460 1008 553 1008 z "},"ă":{"ha":733,"x_min":61,"x_max":625,"o":"m 361 692 q 553 621 481 692 q 625 417 625 550 l 625 0 l 525 0 l 525 88 q 429 11 488 38 q 297 -15 371 -15 q 127 36 193 -15 q 61 175 61 88 q 128 313 61 261 q 304 364 194 364 l 518 364 l 518 422 q 474 549 518 506 q 354 593 431 593 q 246 566 293 593 q 157 485 199 539 l 86 543 q 204 655 132 618 q 361 692 276 692 m 311 74 q 414 98 367 74 q 490 165 461 122 q 518 260 518 208 l 518 276 l 317 276 q 208 252 246 276 q 171 181 171 228 q 211 101 171 129 q 311 74 251 74 m 358 796 q 207 857 265 796 q 149 1015 149 918 l 149 1058 l 236 1058 l 236 1018 q 269 917 236 954 q 358 881 303 881 q 449 917 415 881 q 482 1018 482 954 l 482 1058 l 569 1058 l 569 1015 q 511 856 569 917 q 358 796 453 796 z "},"Ą":{"ha":921,"x_min":43,"x_max":879,"o":"m 685 186 l 235 186 l 157 0 l 43 0 l 440 932 l 481 932 l 878 0 l 763 0 l 685 186 m 460 735 l 276 283 l 643 283 l 460 735 m 779 -265 q 672 -232 713 -265 q 631 -144 631 -199 q 676 -51 631 -93 q 836 49 721 -10 l 879 0 l 810 -46 q 753 -89 769 -74 q 738 -128 738 -104 q 755 -166 738 -153 q 804 -179 772 -179 q 879 -169 833 -179 l 879 -250 q 779 -265 831 -265 z "},"ą":{"ha":733,"x_min":61,"x_max":625,"o":"m 361 692 q 553 621 481 692 q 625 417 625 550 l 625 0 l 525 0 l 525 88 q 429 11 488 38 q 297 -15 371 -15 q 127 36 193 -15 q 61 175 61 88 q 128 313 61 261 q 304 364 194 364 l 518 364 l 518 422 q 474 549 518 506 q 354 593 431 593 q 246 566 293 593 q 157 485 199 539 l 86 543 q 204 655 132 618 q 361 692 276 692 m 311 74 q 414 98 367 74 q 490 165 461 122 q 518 260 518 208 l 518 276 l 317 276 q 208 252 246 276 q 171 181 171 228 q 211 101 171 129 q 311 74 251 74 m 525 -265 q 417 -232 458 -265 q 376 -144 376 -199 q 422 -51 376 -93 q 582 49 467 -10 l 625 0 l 556 -46 q 499 -89 515 -74 q 483 -128 483 -104 q 501 -166 483 -153 q 550 -179 518 -179 q 625 -169 579 -179 l 625 -250 q 525 -265 576 -265 z "},"Ć":{"ha":993,"x_min":67,"x_max":924,"o":"m 543 -15 q 303 47 413 -15 q 130 218 193 110 q 67 458 67 326 q 130 699 67 590 q 303 869 193 807 q 543 932 413 932 q 765 878 665 932 q 924 735 865 825 l 843 671 q 715 790 790 747 q 544 832 639 832 q 358 783 442 832 q 227 649 275 735 q 179 458 179 564 q 227 267 179 353 q 358 133 275 182 q 544 85 442 85 q 715 127 639 85 q 843 246 790 169 l 924 182 q 766 38 867 92 q 543 -15 665 -15 m 621 1264 l 751 1264 l 751 1244 l 585 1006 l 503 1006 l 621 1264 z "},"ć":{"ha":765,"x_min":69,"x_max":703,"o":"m 424 -15 q 245 32 326 -15 q 117 160 164 79 q 69 339 69 242 q 117 517 69 436 q 245 644 164 597 q 424 692 326 692 q 585 652 513 692 q 703 544 657 613 l 626 483 q 425 593 544 593 q 299 559 356 593 q 211 467 243 525 q 179 339 179 408 q 211 210 179 268 q 299 117 243 151 q 425 83 356 83 q 625 192 544 83 l 701 132 q 584 24 656 64 q 424 -15 513 -15 m 503 1083 l 633 1083 l 633 1064 l 467 786 l 385 786 l 503 1083 z "},"Ĉ":{"ha":993,"x_min":67,"x_max":924,"o":"m 543 -15 q 303 47 413 -15 q 130 218 193 110 q 67 458 67 326 q 130 699 67 590 q 303 869 193 807 q 543 932 413 932 q 765 878 665 932 q 924 735 865 825 l 843 671 q 715 790 790 747 q 544 832 639 832 q 358 783 442 832 q 227 649 275 735 q 179 458 179 564 q 227 267 179 353 q 358 133 275 182 q 544 85 442 85 q 715 127 639 85 q 843 246 790 169 l 924 182 q 766 38 867 92 q 543 -15 665 -15 m 696 1006 l 543 1156 l 389 1006 l 306 1006 l 510 1264 l 575 1264 l 779 1006 l 696 1006 z "},"ĉ":{"ha":765,"x_min":69,"x_max":703,"o":"m 424 -15 q 245 32 326 -15 q 117 160 164 79 q 69 339 69 242 q 117 517 69 436 q 245 644 164 597 q 424 692 326 692 q 585 652 513 692 q 703 544 657 613 l 626 483 q 425 593 544 593 q 299 559 356 593 q 211 467 243 525 q 179 339 179 408 q 211 210 179 268 q 299 117 243 151 q 425 83 356 83 q 625 192 544 83 l 701 132 q 584 24 656 64 q 424 -15 513 -15 m 563 786 l 424 964 l 283 786 l 201 786 l 390 1083 l 456 1083 l 643 786 l 563 786 z "},"Ċ":{"ha":993,"x_min":67,"x_max":924,"o":"m 543 -15 q 303 47 413 -15 q 130 218 193 110 q 67 458 67 326 q 130 699 67 590 q 303 869 193 807 q 543 932 413 932 q 765 878 665 932 q 924 735 865 825 l 843 671 q 715 790 790 747 q 544 832 639 832 q 358 783 442 832 q 227 649 275 735 q 179 458 179 564 q 227 267 179 353 q 358 133 275 182 q 544 85 442 85 q 715 127 639 85 q 843 246 790 169 l 924 182 q 766 38 867 92 q 543 -15 665 -15 m 543 1047 q 526 1047 543 1047 q 486 1069 510 1047 q 463 1125 463 1092 q 486 1180 463 1157 q 543 1203 510 1203 q 599 1180 575 1203 q 622 1125 622 1157 q 599 1069 622 1092 q 543 1047 576 1047 z "},"ċ":{"ha":765,"x_min":69,"x_max":703,"o":"m 424 -15 q 245 32 326 -15 q 117 160 164 79 q 69 339 69 242 q 117 517 69 436 q 245 644 164 597 q 424 692 326 692 q 585 652 513 692 q 703 544 657 613 l 626 483 q 425 593 544 593 q 299 559 356 593 q 211 467 243 525 q 179 339 179 408 q 211 210 179 268 q 299 117 243 151 q 425 83 356 83 q 625 192 544 83 l 701 132 q 584 24 656 64 q 424 -15 513 -15 m 422 857 q 406 857 422 857 q 365 879 389 857 q 342 935 342 901 q 365 990 342 967 q 422 1013 389 1013 q 478 990 454 1013 q 501 935 501 967 q 478 879 501 901 q 422 857 456 857 z "},"Č":{"ha":993,"x_min":67,"x_max":924,"o":"m 543 -15 q 303 47 413 -15 q 130 218 193 110 q 67 458 67 326 q 130 699 67 590 q 303 869 193 807 q 543 932 413 932 q 765 878 665 932 q 924 735 865 825 l 843 671 q 715 790 790 747 q 544 832 639 832 q 358 783 442 832 q 227 649 275 735 q 179 458 179 564 q 227 267 179 353 q 358 133 275 182 q 544 85 442 85 q 715 127 639 85 q 843 246 790 169 l 924 182 q 766 38 867 92 q 543 -15 665 -15 m 779 1264 l 575 1006 l 510 1006 l 306 1264 l 389 1264 l 543 1114 l 696 1264 l 779 1264 z "},"č":{"ha":765,"x_min":69,"x_max":703,"o":"m 424 -15 q 245 32 326 -15 q 117 160 164 79 q 69 339 69 242 q 117 517 69 436 q 245 644 164 597 q 424 692 326 692 q 585 652 513 692 q 703 544 657 613 l 626 483 q 425 593 544 593 q 299 559 356 593 q 211 467 243 525 q 179 339 179 408 q 211 210 179 268 q 299 117 243 151 q 425 83 356 83 q 625 192 544 83 l 701 132 q 584 24 656 64 q 424 -15 513 -15 m 643 1083 l 456 786 l 390 786 l 201 1083 l 283 1083 l 424 906 l 563 1083 l 643 1083 z "},"Ď":{"ha":964,"x_min":126,"x_max":897,"o":"m 126 917 l 399 917 q 664 858 551 917 q 837 697 776 800 q 897 460 897 593 q 837 224 897 328 q 664 60 776 119 q 399 0 551 0 l 126 0 l 126 917 m 397 97 q 605 144 517 97 q 739 274 693 192 q 785 460 785 356 q 739 647 785 565 q 606 774 693 728 q 397 819 518 819 l 235 819 l 235 97 l 397 97 m 632 1264 l 428 1006 l 363 1006 l 158 1264 l 242 1264 l 396 1114 l 549 1264 l 632 1264 z "},"ď":{"ha":1033,"x_min":69,"x_max":1033,"o":"m 761 1042 l 761 0 l 660 0 l 660 107 q 552 17 621 50 q 404 -15 483 -15 q 233 31 310 -15 q 113 158 157 78 q 69 338 69 239 q 113 517 69 436 q 233 645 157 599 q 404 692 310 692 q 547 661 481 692 q 654 576 614 631 l 654 1042 l 761 1042 m 419 83 q 535 111 481 83 q 622 196 589 139 q 656 338 656 253 q 622 480 656 422 q 535 565 589 538 q 419 593 481 593 q 297 560 351 593 q 210 469 242 528 q 179 339 179 411 q 210 208 179 267 q 297 117 242 150 q 419 83 351 83 m 918 1042 l 1033 1042 l 979 749 l 900 749 l 918 1042 z "},"Đ":{"ha":964,"x_min":-6,"x_max":897,"o":"m 399 917 q 664 858 551 917 q 837 697 776 800 q 897 460 897 593 q 837 224 897 328 q 664 60 776 119 q 399 0 551 0 l 126 0 l 126 381 l -6 381 l -6 472 l 126 472 l 126 917 l 399 917 m 397 97 q 605 144 517 97 q 739 274 693 192 q 785 460 785 356 q 739 647 785 565 q 606 774 693 728 q 397 819 518 819 l 235 819 l 235 472 l 415 472 l 415 381 l 235 381 l 235 97 l 397 97 z "},"đ":{"ha":881,"x_min":68,"x_max":874,"o":"m 874 807 l 758 807 l 758 0 l 658 0 l 658 110 q 548 18 618 51 q 399 -15 478 -15 q 231 30 306 -15 q 112 153 156 75 q 68 328 68 232 q 111 503 68 425 q 230 627 154 582 q 399 672 306 672 q 544 641 476 672 q 653 554 611 610 l 653 807 l 349 807 l 349 896 l 653 896 l 653 1042 l 758 1042 l 758 896 l 874 896 l 874 807 m 418 81 q 533 107 479 81 q 619 189 586 133 q 653 328 653 244 q 619 467 653 411 q 533 550 586 524 q 418 576 479 576 q 295 544 350 576 q 209 456 240 513 q 178 328 178 400 q 209 201 178 257 q 295 113 240 144 q 418 81 350 81 z "},"Ē":{"ha":786,"x_min":126,"x_max":731,"o":"m 126 917 l 714 917 l 714 819 l 235 819 l 235 539 l 601 539 l 601 442 l 235 442 l 235 97 l 731 97 l 731 0 l 126 0 l 126 917 m 217 1157 l 626 1157 l 626 1069 l 217 1069 l 217 1157 z "},"ē":{"ha":793,"x_min":69,"x_max":724,"o":"m 715 306 l 181 306 q 260 144 190 206 q 429 83 329 83 q 636 175 544 83 l 699 103 q 577 16 646 47 q 428 -15 508 -15 q 246 31 328 -15 q 117 158 164 78 q 69 338 69 239 q 115 516 69 435 q 240 644 161 597 q 415 692 319 692 q 572 653 501 692 q 683 544 643 614 q 724 386 724 475 q 715 306 724 347 m 413 594 q 370 594 413 594 q 265 541 328 594 q 185 400 203 488 l 614 400 q 555 542 613 490 q 413 594 497 594 m 222 978 l 604 978 l 604 892 l 222 892 l 222 978 z "},"Ĕ":{"ha":786,"x_min":126,"x_max":731,"o":"m 126 917 l 714 917 l 714 819 l 235 819 l 235 539 l 601 539 l 601 442 l 235 442 l 235 97 l 731 97 l 731 0 l 126 0 l 126 917 m 419 1008 q 267 1069 325 1008 q 210 1229 210 1129 l 210 1264 l 297 1264 l 297 1231 q 331 1131 297 1168 q 419 1093 364 1093 q 510 1130 476 1093 q 543 1231 543 1167 l 543 1264 l 631 1264 l 631 1229 q 572 1069 631 1131 q 419 1008 513 1008 z "},"ĕ":{"ha":793,"x_min":69,"x_max":724,"o":"m 715 306 l 181 306 q 260 144 190 206 q 429 83 329 83 q 636 175 544 83 l 699 103 q 577 16 646 47 q 428 -15 508 -15 q 246 31 328 -15 q 117 158 164 78 q 69 338 69 239 q 115 516 69 435 q 240 644 161 597 q 415 692 319 692 q 572 653 501 692 q 683 544 643 614 q 724 386 724 475 q 715 306 724 347 m 413 594 q 370 594 413 594 q 265 541 328 594 q 185 400 203 488 l 614 400 q 555 542 613 490 q 413 594 497 594 m 411 796 q 260 857 318 796 q 201 1015 201 918 l 201 1058 l 289 1058 l 289 1018 q 322 917 289 954 q 411 881 356 881 q 501 917 468 881 q 535 1018 535 954 l 535 1058 l 622 1058 l 622 1015 q 564 856 622 917 q 411 796 506 796 z "},"Ė":{"ha":786,"x_min":126,"x_max":731,"o":"m 126 917 l 714 917 l 714 819 l 235 819 l 235 539 l 601 539 l 601 442 l 235 442 l 235 97 l 731 97 l 731 0 l 126 0 l 126 917 m 421 1047 q 404 1047 421 1047 q 364 1069 388 1047 q 340 1125 340 1092 q 364 1180 340 1157 q 421 1203 388 1203 q 476 1180 453 1203 q 500 1125 500 1157 q 477 1069 500 1092 q 421 1047 454 1047 z "},"ė":{"ha":793,"x_min":69,"x_max":724,"o":"m 715 306 l 181 306 q 260 144 190 206 q 429 83 329 83 q 636 175 544 83 l 699 103 q 577 16 646 47 q 428 -15 508 -15 q 246 31 328 -15 q 117 158 164 78 q 69 338 69 239 q 115 516 69 435 q 240 644 161 597 q 415 692 319 692 q 572 653 501 692 q 683 544 643 614 q 724 386 724 475 q 715 306 724 347 m 413 594 q 370 594 413 594 q 265 541 328 594 q 185 400 203 488 l 614 400 q 555 542 613 490 q 413 594 497 594 m 413 857 q 396 857 413 857 q 356 879 379 857 q 332 935 332 901 q 356 990 332 967 q 413 1013 379 1013 q 468 990 444 1013 q 492 935 492 967 q 469 879 492 901 q 413 857 446 857 z "},"Ę":{"ha":786,"x_min":126,"x_max":731,"o":"m 126 917 l 714 917 l 714 819 l 235 819 l 235 539 l 601 539 l 601 442 l 235 442 l 235 97 l 731 97 l 731 0 l 126 0 l 126 917 m 631 -265 q 523 -232 564 -265 q 482 -144 482 -199 q 527 -51 482 -93 q 688 49 572 -10 l 731 0 l 661 -46 q 605 -89 621 -74 q 589 -128 589 -104 q 606 -166 589 -153 q 656 -179 624 -179 q 731 -169 685 -179 l 731 -250 q 631 -265 682 -265 z "},"ę":{"ha":793,"x_min":69,"x_max":724,"o":"m 715 306 l 181 306 q 260 144 190 206 q 429 83 329 83 q 636 175 544 83 l 699 103 q 577 16 646 47 q 428 -15 508 -15 q 246 31 328 -15 q 117 158 164 78 q 69 338 69 239 q 115 516 69 435 q 240 644 161 597 q 415 692 319 692 q 572 653 501 692 q 683 544 643 614 q 724 386 724 475 q 715 306 724 347 m 413 594 q 370 594 413 594 q 265 541 328 594 q 185 400 203 488 l 614 400 q 555 542 613 490 q 413 594 497 594 m 558 -265 q 451 -233 492 -265 q 410 -144 410 -200 q 424 -78 410 -108 q 474 -8 438 -49 q 586 103 510 32 l 697 103 l 569 -33 q 529 -83 540 -65 q 518 -128 518 -101 q 583 -179 518 -179 q 658 -169 613 -179 l 658 -250 q 558 -265 610 -265 z "},"Ě":{"ha":786,"x_min":126,"x_max":731,"o":"m 126 917 l 714 917 l 714 819 l 235 819 l 235 539 l 601 539 l 601 442 l 235 442 l 235 97 l 731 97 l 731 0 l 126 0 l 126 917 m 657 1264 l 453 1006 l 388 1006 l 183 1264 l 267 1264 l 421 1114 l 574 1264 l 657 1264 z "},"ě":{"ha":793,"x_min":69,"x_max":724,"o":"m 715 306 l 181 306 q 260 144 190 206 q 429 83 329 83 q 636 175 544 83 l 699 103 q 577 16 646 47 q 428 -15 508 -15 q 246 31 328 -15 q 117 158 164 78 q 69 338 69 239 q 115 516 69 435 q 240 644 161 597 q 415 692 319 692 q 572 653 501 692 q 683 544 643 614 q 724 386 724 475 q 715 306 724 347 m 413 594 q 370 594 413 594 q 265 541 328 594 q 185 400 203 488 l 614 400 q 555 542 613 490 q 413 594 497 594 m 633 1083 l 446 786 l 381 786 l 192 1083 l 274 1083 l 414 906 l 553 1083 l 633 1083 z "},"Ĝ":{"ha":1036,"x_min":67,"x_max":963,"o":"m 543 -15 q 302 47 411 -15 q 130 218 193 110 q 67 458 67 326 q 130 699 67 590 q 302 869 193 807 q 543 932 411 932 q 756 883 660 932 q 917 744 853 833 l 835 681 q 708 792 782 753 q 543 832 635 832 q 356 783 439 832 q 226 649 272 735 q 179 460 179 564 q 226 267 179 354 q 358 131 274 181 q 549 82 443 82 q 728 126 649 82 q 854 246 807 171 l 854 369 l 542 369 l 542 467 l 963 467 l 963 222 q 790 49 901 114 q 543 -15 678 -15 m 699 1006 l 546 1156 l 392 1006 l 308 1006 l 513 1264 l 578 1264 l 782 1006 l 699 1006 z "},"ĝ":{"ha":885,"x_min":78,"x_max":768,"o":"m 768 676 l 768 65 q 678 -177 768 -89 q 439 -265 589 -265 q 259 -228 340 -265 q 121 -135 178 -192 l 183 -60 q 300 -138 240 -110 q 436 -167 360 -167 q 601 -108 542 -167 q 661 60 661 -50 l 661 119 q 553 37 621 67 q 410 7 486 7 q 240 51 315 7 q 121 174 164 96 q 78 349 78 251 q 121 524 78 446 q 240 647 164 601 q 410 692 315 692 q 559 659 490 692 q 667 568 628 626 l 667 676 l 768 676 m 426 106 q 542 132 489 106 q 629 213 596 158 q 663 349 663 268 q 629 483 663 429 q 542 564 596 538 q 426 590 488 590 q 303 559 358 590 q 217 473 249 528 q 186 347 186 418 q 217 222 186 276 q 303 136 249 167 q 426 106 358 106 m 572 786 l 433 964 l 293 786 l 211 786 l 400 1083 l 465 1083 l 653 786 l 572 786 z "},"Ğ":{"ha":1036,"x_min":67,"x_max":963,"o":"m 543 -15 q 302 47 411 -15 q 130 218 193 110 q 67 458 67 326 q 130 699 67 590 q 302 869 193 807 q 543 932 411 932 q 756 883 660 932 q 917 744 853 833 l 835 681 q 708 792 782 753 q 543 832 635 832 q 356 783 439 832 q 226 649 272 735 q 179 460 179 564 q 226 267 179 354 q 358 131 274 181 q 549 82 443 82 q 728 126 649 82 q 854 246 807 171 l 854 369 l 542 369 l 542 467 l 963 467 l 963 222 q 790 49 901 114 q 543 -15 678 -15 m 544 1008 q 392 1069 450 1008 q 335 1229 335 1129 l 335 1264 l 422 1264 l 422 1231 q 456 1131 422 1168 q 544 1093 489 1093 q 635 1130 601 1093 q 668 1231 668 1167 l 668 1264 l 756 1264 l 756 1229 q 697 1069 756 1131 q 544 1008 638 1008 z "},"ğ":{"ha":885,"x_min":78,"x_max":768,"o":"m 768 676 l 768 65 q 678 -177 768 -89 q 439 -265 589 -265 q 259 -228 340 -265 q 121 -135 178 -192 l 183 -60 q 300 -138 240 -110 q 436 -167 360 -167 q 601 -108 542 -167 q 661 60 661 -50 l 661 119 q 553 37 621 67 q 410 7 486 7 q 240 51 315 7 q 121 174 164 96 q 78 349 78 251 q 121 524 78 446 q 240 647 164 601 q 410 692 315 692 q 559 659 490 692 q 667 568 628 626 l 667 676 l 768 676 m 426 106 q 542 132 489 106 q 629 213 596 158 q 663 349 663 268 q 629 483 663 429 q 542 564 596 538 q 426 590 488 590 q 303 559 358 590 q 217 473 249 528 q 186 347 186 418 q 217 222 186 276 q 303 136 249 167 q 426 106 358 106 m 431 796 q 279 857 338 796 q 221 1015 221 918 l 221 1058 l 308 1058 l 308 1018 q 342 917 308 954 q 431 881 375 881 q 521 917 488 881 q 554 1018 554 954 l 554 1058 l 642 1058 l 642 1015 q 583 856 642 917 q 431 796 525 796 z "},"Ġ":{"ha":1036,"x_min":67,"x_max":963,"o":"m 543 -15 q 302 47 411 -15 q 130 218 193 110 q 67 458 67 326 q 130 699 67 590 q 302 869 193 807 q 543 932 411 932 q 756 883 660 932 q 917 744 853 833 l 835 681 q 708 792 782 753 q 543 832 635 832 q 356 783 439 832 q 226 649 272 735 q 179 460 179 564 q 226 267 179 354 q 358 131 274 181 q 549 82 443 82 q 728 126 649 82 q 854 246 807 171 l 854 369 l 542 369 l 542 467 l 963 467 l 963 222 q 790 49 901 114 q 543 -15 678 -15 m 546 1047 q 529 1047 546 1047 q 489 1069 513 1047 q 465 1125 465 1092 q 489 1180 465 1157 q 546 1203 513 1203 q 601 1180 578 1203 q 625 1125 625 1157 q 602 1069 625 1092 q 546 1047 579 1047 z "},"ġ":{"ha":885,"x_min":78,"x_max":768,"o":"m 768 676 l 768 65 q 678 -177 768 -89 q 439 -265 589 -265 q 259 -228 340 -265 q 121 -135 178 -192 l 183 -60 q 300 -138 240 -110 q 436 -167 360 -167 q 601 -108 542 -167 q 661 60 661 -50 l 661 119 q 553 37 621 67 q 410 7 486 7 q 240 51 315 7 q 121 174 164 96 q 78 349 78 251 q 121 524 78 446 q 240 647 164 601 q 410 692 315 692 q 559 659 490 692 q 667 568 628 626 l 667 676 l 768 676 m 426 106 q 542 132 489 106 q 629 213 596 158 q 663 349 663 268 q 629 483 663 429 q 542 564 596 538 q 426 590 488 590 q 303 559 358 590 q 217 473 249 528 q 186 347 186 418 q 217 222 186 276 q 303 136 249 167 q 426 106 358 106 m 432 857 q 415 857 432 857 q 375 879 399 857 q 351 935 351 901 q 375 990 351 967 q 432 1013 399 1013 q 488 990 464 1013 q 511 935 511 967 q 488 879 511 901 q 432 857 465 857 z "},"Ģ":{"ha":1036,"x_min":67,"x_max":963,"o":"m 543 -15 q 302 47 411 -15 q 130 218 193 110 q 67 458 67 326 q 130 699 67 590 q 302 869 193 807 q 543 932 411 932 q 756 883 660 932 q 917 744 853 833 l 835 681 q 708 792 782 753 q 543 832 635 832 q 356 783 439 832 q 226 649 272 735 q 179 460 179 564 q 226 267 179 354 q 358 131 274 181 q 549 82 443 82 q 728 126 649 82 q 854 246 807 171 l 854 369 l 542 369 l 542 467 l 963 467 l 963 222 q 790 49 901 114 q 543 -15 678 -15 m 492 -68 l 597 -68 l 563 -306 l 479 -306 l 492 -68 z "},"ģ":{"ha":885,"x_min":78,"x_max":768,"o":"m 768 676 l 768 65 q 678 -177 768 -89 q 439 -265 589 -265 q 259 -228 340 -265 q 121 -135 178 -192 l 183 -60 q 300 -138 240 -110 q 436 -167 360 -167 q 601 -108 542 -167 q 661 60 661 -50 l 661 119 q 553 37 621 67 q 410 7 486 7 q 240 51 315 7 q 121 174 164 96 q 78 349 78 251 q 121 524 78 446 q 240 647 164 601 q 410 692 315 692 q 559 659 490 692 q 667 568 628 626 l 667 676 l 768 676 m 426 106 q 542 132 489 106 q 629 213 596 158 q 663 349 663 268 q 629 483 663 429 q 542 564 596 538 q 426 590 488 590 q 303 559 358 590 q 217 473 249 528 q 186 347 186 418 q 217 222 186 276 q 303 136 249 167 q 426 106 358 106 m 424 1083 l 504 1083 l 485 786 l 379 786 l 424 1083 z "},"Ĥ":{"ha":983,"x_min":126,"x_max":857,"o":"m 126 917 l 235 917 l 235 539 l 749 539 l 749 917 l 857 917 l 857 0 l 749 0 l 749 442 l 235 442 l 235 0 l 126 0 l 126 917 m 644 1006 l 492 1156 l 338 1006 l 254 1006 l 458 1264 l 524 1264 l 728 1006 l 644 1006 z "},"ĥ":{"ha":786,"x_min":-12,"x_max":678,"o":"m 428 692 q 611 618 544 692 q 678 425 678 544 l 678 0 l 571 0 l 571 411 q 526 543 571 493 q 403 593 481 593 q 275 542 325 593 q 225 411 225 490 l 225 0 l 118 0 l 118 1042 l 225 1042 l 225 600 q 312 667 260 643 q 428 692 364 692 m 378 1131 l 225 1281 l 71 1131 l -12 1131 l 192 1389 l 257 1389 l 461 1131 l 378 1131 z "},"Ħ":{"ha":999,"x_min":-6,"x_max":1003,"o":"m 132 639 l -6 639 l -6 731 l 132 731 l 132 917 l 240 917 l 240 731 l 756 731 l 756 917 l 864 917 l 864 731 l 1003 731 l 1003 639 l 864 639 l 864 0 l 756 0 l 756 351 l 240 351 l 240 0 l 132 0 l 132 639 m 756 450 l 756 639 l 240 639 l 240 450 l 756 450 z "},"ħ":{"ha":792,"x_min":7,"x_max":683,"o":"m 432 672 q 616 599 549 672 q 683 407 683 526 l 683 0 l 576 0 l 576 394 q 531 524 576 475 q 408 574 485 574 q 278 523 329 574 q 228 394 228 472 l 228 0 l 122 0 l 122 804 l 7 804 l 7 899 l 122 899 l 122 1042 l 228 1042 l 228 899 l 508 899 l 508 804 l 228 804 l 228 579 q 315 648 263 624 q 432 672 367 672 z "},"Ĩ":{"ha":360,"x_min":-47,"x_max":411,"o":"m 126 917 l 235 917 l 235 0 l 126 0 l 126 917 m 192 1064 l 146 1092 q 128 1103 142 1094 q 105 1115 115 1111 q 86 1119 94 1119 q 56 1104 67 1119 q 44 1067 44 1089 l 44 1044 l -44 1044 q -47 1079 -47 1064 q -14 1180 -47 1140 q 74 1219 19 1219 q 171 1188 121 1219 l 218 1157 q 235 1145 222 1154 q 259 1133 249 1136 q 279 1129 269 1129 q 310 1144 299 1129 q 321 1181 321 1158 l 321 1206 l 410 1206 q 411 1169 411 1194 q 378 1070 411 1110 q 293 1031 346 1031 q 192 1064 246 1031 z "},"ĩ":{"ha":342,"x_min":-33,"x_max":376,"o":"m 118 676 l 225 676 l 225 0 l 118 0 l 118 676 m 172 869 l 146 894 q 131 908 142 899 q 113 922 121 918 q 96 926 106 926 q 58 869 58 926 l 58 846 l -31 846 q -33 879 -33 860 q -2 983 -33 942 q 83 1025 29 1025 q 174 985 133 1025 l 200 958 q 228 933 218 940 q 250 926 238 926 q 286 983 286 926 l 286 1007 l 374 1007 q 376 974 376 993 q 346 869 376 911 q 263 828 315 828 q 172 869 217 828 z "},"Ī":{"ha":360,"x_min":-22,"x_max":388,"o":"m 126 917 l 235 917 l 235 0 l 126 0 l 126 917 m -22 1157 l 388 1157 l 388 1069 l -22 1069 l -22 1157 z "},"ī":{"ha":342,"x_min":19,"x_max":325,"o":"m 118 676 l 225 676 l 225 0 l 118 0 l 118 676 m 19 979 l 325 979 l 325 890 l 19 890 l 19 979 z "},"Ĭ":{"ha":360,"x_min":-29,"x_max":392,"o":"m 126 917 l 235 917 l 235 0 l 126 0 l 126 917 m 181 1008 q 28 1069 86 1008 q -29 1229 -29 1129 l -29 1264 l 58 1264 l 58 1231 q 92 1131 58 1168 q 181 1093 125 1093 q 271 1130 238 1093 q 304 1231 304 1167 l 304 1264 l 392 1264 l 392 1229 q 333 1069 392 1131 q 181 1008 274 1008 z "},"ĭ":{"ha":342,"x_min":-39,"x_max":382,"o":"m 118 676 l 225 676 l 225 0 l 118 0 l 118 676 m 171 796 q 19 857 78 796 q -39 1015 -39 918 l -39 1058 l 49 1058 l 49 1018 q 82 917 49 954 q 171 881 115 881 q 261 917 228 881 q 294 1018 294 954 l 294 1058 l 382 1058 l 382 1015 q 324 856 382 917 q 171 796 265 796 z "},"Į":{"ha":360,"x_min":-14,"x_max":235,"o":"m 126 917 l 235 917 l 235 0 l 126 0 l 126 917 m 135 -265 q 27 -232 68 -265 q -14 -144 -14 -199 q 31 -51 -14 -93 q 192 49 76 -10 l 235 0 l 165 -46 q 109 -89 125 -74 q 93 -128 93 -104 q 110 -166 93 -153 q 160 -179 128 -179 q 235 -169 189 -179 l 235 -250 q 135 -265 186 -265 z "},"į":{"ha":342,"x_min":-24,"x_max":251,"o":"m 118 676 l 225 676 l 225 0 l 118 0 l 118 676 m 172 857 q 156 857 172 857 q 115 879 139 857 q 92 935 92 901 q 115 990 92 967 q 172 1013 139 1013 q 228 990 204 1013 q 251 935 251 967 q 228 879 251 901 q 172 857 206 857 m 125 -265 q 17 -232 58 -265 q -24 -144 -24 -199 q 22 -51 -24 -93 q 182 49 67 -10 l 225 0 l 156 -46 q 99 -89 115 -74 q 83 -128 83 -104 q 101 -166 83 -153 q 150 -179 118 -179 q 225 -169 179 -179 l 225 -250 q 125 -265 176 -265 z "},"İ":{"ha":360,"x_min":101,"x_max":261,"o":"m 126 917 l 235 917 l 235 0 l 126 0 l 126 917 m 182 1047 q 165 1047 182 1047 q 125 1069 149 1047 q 101 1125 101 1092 q 125 1180 101 1157 q 182 1203 149 1203 q 238 1180 214 1203 q 261 1125 261 1157 q 238 1069 261 1092 q 182 1047 215 1047 z "},"ı":{"ha":342,"x_min":118,"x_max":225,"o":"m 118 676 l 225 676 l 225 0 l 118 0 l 118 676 z "},"Ĳ":{"ha":879,"x_min":126,"x_max":753,"o":"m 126 917 l 235 917 l 235 0 l 126 0 l 126 917 m 393 0 l 393 93 q 493 85 450 85 q 606 115 567 85 q 644 222 644 144 l 644 917 l 753 917 l 753 213 q 689 41 753 97 q 514 -15 625 -15 q 393 0 460 -15 z "},"ĳ":{"ha":683,"x_min":92,"x_max":593,"o":"m 118 676 l 225 676 l 225 0 l 118 0 l 118 676 m 172 857 q 156 857 172 857 q 115 879 139 857 q 92 935 92 901 q 115 990 92 967 q 172 1013 139 1013 q 228 990 204 1013 q 251 935 251 967 q 228 879 251 901 q 172 857 206 857 m 258 -254 l 258 -164 q 321 -168 293 -168 q 424 -139 388 -168 q 460 -39 460 -110 l 460 676 l 567 676 l 567 -46 q 506 -211 567 -157 q 344 -265 446 -265 q 258 -254 299 -265 m 514 857 q 497 857 514 857 q 457 879 481 857 q 433 935 433 901 q 457 990 433 967 q 514 1013 481 1013 q 569 990 546 1013 q 593 935 593 967 q 570 879 593 901 q 514 857 547 857 z "},"Ĵ":{"ha":518,"x_min":33,"x_max":563,"o":"m 33 0 l 33 93 q 133 85 90 85 q 246 115 207 85 q 285 222 285 144 l 285 917 l 393 917 l 393 213 q 329 41 393 97 q 154 -15 265 -15 q 33 0 100 -15 m 479 1006 l 326 1156 l 172 1006 l 89 1006 l 293 1264 l 358 1264 l 563 1006 l 479 1006 z "},"ĵ":{"ha":342,"x_min":-83,"x_max":393,"o":"m -83 -254 l -83 -164 q -21 -168 -49 -168 q 82 -139 46 -168 q 118 -39 118 -110 l 118 676 l 225 676 l 225 -46 q 165 -211 225 -157 q 3 -265 104 -265 q -83 -254 -43 -265 m 313 786 l 174 964 l 33 786 l -49 786 l 140 1083 l 206 1083 l 393 786 l 313 786 z "},"Ķ":{"ha":879,"x_min":126,"x_max":836,"o":"m 126 917 l 235 917 l 235 0 l 126 0 l 126 917 m 836 0 l 699 0 l 247 492 l 660 917 l 799 917 l 389 492 l 836 0 m 368 -68 l 474 -68 l 439 -306 l 356 -306 l 368 -68 z "},"ķ":{"ha":703,"x_min":118,"x_max":685,"o":"m 118 1042 l 225 1042 l 225 0 l 118 0 l 118 1042 m 685 0 l 547 0 l 236 381 l 518 676 l 658 676 l 365 379 l 685 0 m 299 -68 l 404 -68 l 369 -306 l 286 -306 l 299 -68 z "},"Ĺ":{"ha":703,"x_min":126,"x_max":669,"o":"m 126 917 l 235 917 l 235 97 l 669 97 l 669 0 l 126 0 l 126 917 m 257 1264 l 388 1264 l 388 1244 l 221 1006 l 139 1006 l 257 1264 z "},"ĺ":{"ha":342,"x_min":118,"x_max":379,"o":"m 118 1042 l 225 1042 l 225 0 l 118 0 l 118 1042 m 249 1389 l 379 1389 l 379 1369 l 213 1131 l 131 1131 l 249 1389 z "},"Ļ":{"ha":703,"x_min":126,"x_max":669,"o":"m 126 917 l 235 917 l 235 97 l 669 97 l 669 0 l 126 0 l 126 917 m 333 -68 l 439 -68 l 404 -306 l 321 -306 l 333 -68 z "},"ļ":{"ha":342,"x_min":106,"x_max":225,"o":"m 118 1042 l 225 1042 l 225 0 l 118 0 l 118 1042 m 118 -68 l 224 -68 l 189 -306 l 106 -306 l 118 -68 z "},"Ľ":{"ha":703,"x_min":126,"x_max":669,"o":"m 126 917 l 235 917 l 235 97 l 669 97 l 669 0 l 126 0 l 126 917 m 522 1000 l 638 1000 l 583 707 l 504 707 l 522 1000 z "},"ľ":{"ha":497,"x_min":118,"x_max":497,"o":"m 118 1042 l 225 1042 l 225 0 l 118 0 l 118 1042 m 382 1042 l 497 1042 l 443 749 l 364 749 l 382 1042 z "},"Ŀ":{"ha":703,"x_min":126,"x_max":669,"o":"m 126 917 l 235 917 l 235 97 l 669 97 l 669 0 l 126 0 l 126 917 m 539 424 q 521 424 539 424 q 477 449 503 424 q 451 511 451 474 q 477 574 451 549 q 539 599 503 599 q 601 574 575 599 q 626 511 626 549 q 601 449 626 474 q 539 424 575 424 z "},"ŀ":{"ha":415,"x_min":118,"x_max":471,"o":"m 118 1042 l 225 1042 l 225 0 l 118 0 l 118 1042 m 383 349 q 365 349 383 349 q 322 374 347 349 q 296 436 296 399 q 322 499 296 474 q 383 524 347 524 q 445 499 419 524 q 471 436 471 474 q 445 374 471 399 q 383 349 419 349 z "},"Ł":{"ha":703,"x_min":17,"x_max":669,"o":"m 669 97 l 669 0 l 126 0 l 126 353 l 17 304 l 17 404 l 126 453 l 126 917 l 235 917 l 235 494 l 540 635 l 540 532 l 235 393 l 235 97 l 669 97 z "},"ł":{"ha":500,"x_min":78,"x_max":414,"o":"m 414 524 l 293 468 l 293 0 l 186 0 l 186 431 l 78 381 l 78 482 l 186 533 l 186 1042 l 293 1042 l 293 569 l 414 625 l 414 524 z "},"Ń":{"ha":983,"x_min":126,"x_max":857,"o":"m 857 917 l 857 -15 l 818 -15 l 235 688 l 235 0 l 126 0 l 126 932 l 165 932 l 749 228 l 749 917 l 857 917 m 569 1264 l 700 1264 l 700 1244 l 533 1006 l 451 1006 l 569 1264 z "},"ń":{"ha":786,"x_min":118,"x_max":678,"o":"m 426 692 q 611 618 544 692 q 678 425 678 544 l 678 0 l 571 0 l 571 413 q 526 543 571 493 q 403 593 481 593 q 275 542 325 593 q 225 413 225 492 l 225 0 l 118 0 l 118 676 l 218 676 l 218 604 q 309 669 256 646 q 426 692 363 692 m 476 1083 l 607 1083 l 607 1064 l 440 786 l 358 786 l 476 1083 z "},"Ņ":{"ha":983,"x_min":126,"x_max":857,"o":"m 857 917 l 857 -15 l 818 -15 l 235 688 l 235 0 l 126 0 l 126 932 l 165 932 l 749 228 l 749 917 l 857 917 m 438 -68 l 543 -68 l 508 -306 l 425 -306 l 438 -68 z "},"ņ":{"ha":786,"x_min":118,"x_max":678,"o":"m 426 692 q 611 618 544 692 q 678 425 678 544 l 678 0 l 571 0 l 571 413 q 526 543 571 493 q 403 593 481 593 q 275 542 325 593 q 225 413 225 492 l 225 0 l 118 0 l 118 676 l 218 676 l 218 604 q 309 669 256 646 q 426 692 363 692 m 342 -68 l 447 -68 l 413 -306 l 329 -306 l 342 -68 z "},"Ň":{"ha":983,"x_min":126,"x_max":857,"o":"m 857 917 l 857 -15 l 818 -15 l 235 688 l 235 0 l 126 0 l 126 932 l 165 932 l 749 228 l 749 917 l 857 917 m 728 1264 l 524 1006 l 458 1006 l 254 1264 l 338 1264 l 492 1114 l 644 1264 l 728 1264 z "},"ň":{"ha":786,"x_min":118,"x_max":678,"o":"m 426 692 q 611 618 544 692 q 678 425 678 544 l 678 0 l 571 0 l 571 413 q 526 543 571 493 q 403 593 481 593 q 275 542 325 593 q 225 413 225 492 l 225 0 l 118 0 l 118 676 l 218 676 l 218 604 q 309 669 256 646 q 426 692 363 692 m 617 1083 l 429 786 l 364 786 l 175 1083 l 257 1083 l 397 906 l 536 1083 l 617 1083 z "},"Ŋ":{"ha":983,"x_min":126,"x_max":857,"o":"m 857 917 l 857 -46 q 797 -211 857 -157 q 635 -265 738 -265 q 550 -254 590 -265 l 550 -164 q 613 -168 586 -168 q 714 -139 679 -168 q 749 -39 749 -110 l 749 18 l 235 676 l 235 0 l 126 0 l 126 932 l 165 932 l 749 182 l 749 917 l 857 917 z "},"ŋ":{"ha":786,"x_min":118,"x_max":678,"o":"m 426 692 q 611 618 544 692 q 678 425 678 544 l 678 -46 q 617 -211 678 -157 q 456 -265 557 -265 q 369 -254 410 -265 l 369 -164 q 431 -168 406 -168 q 535 -140 499 -168 q 571 -39 571 -111 l 571 411 q 526 543 571 493 q 403 593 481 593 q 275 542 325 593 q 225 411 225 490 l 225 0 l 118 0 l 118 676 l 218 676 l 218 604 q 309 669 256 646 q 426 692 363 692 z "},"Ō":{"ha":1085,"x_min":67,"x_max":1018,"o":"m 542 -15 q 302 47 411 -15 q 130 219 193 110 q 67 458 67 328 q 130 699 67 590 q 302 869 193 807 q 542 932 411 932 q 781 869 671 932 q 954 699 890 807 q 1018 458 1018 590 q 954 218 1018 326 q 781 47 890 110 q 542 -15 671 -15 m 543 85 q 728 134 644 85 q 858 269 811 183 q 906 460 906 354 q 858 649 906 564 q 728 783 811 735 q 543 832 644 832 q 357 783 440 832 q 226 650 274 735 q 179 460 179 565 q 226 269 179 354 q 357 134 274 183 q 543 85 440 85 m 339 1157 l 749 1157 l 749 1069 l 339 1069 l 339 1157 z "},"ō":{"ha":847,"x_min":69,"x_max":778,"o":"m 422 -14 q 374 -14 422 -14 q 244 33 325 -14 q 117 162 164 81 q 69 339 69 243 q 117 517 69 436 q 245 645 164 599 q 424 692 326 692 q 602 644 521 692 q 731 517 683 597 q 778 339 778 436 q 731 162 778 243 q 601 33 683 81 q 422 -14 519 -14 m 422 85 q 456 85 422 85 q 547 118 490 85 q 635 209 603 151 q 668 338 668 267 q 636 468 668 410 q 548 560 604 526 q 424 593 492 593 q 299 560 354 593 q 211 468 243 526 q 179 338 179 410 q 211 209 179 267 q 299 118 243 151 q 422 85 354 85 m 233 978 l 615 978 l 615 892 l 233 892 l 233 978 z "},"Ŏ":{"ha":1085,"x_min":67,"x_max":1018,"o":"m 542 -15 q 302 47 411 -15 q 130 219 193 110 q 67 458 67 328 q 130 699 67 590 q 302 869 193 807 q 542 932 411 932 q 781 869 671 932 q 954 699 890 807 q 1018 458 1018 590 q 954 218 1018 326 q 781 47 890 110 q 542 -15 671 -15 m 543 85 q 728 134 644 85 q 858 269 811 183 q 906 460 906 354 q 858 649 906 564 q 728 783 811 735 q 543 832 644 832 q 357 783 440 832 q 226 650 274 735 q 179 460 179 565 q 226 269 179 354 q 357 134 274 183 q 543 85 440 85 m 542 1008 q 390 1069 447 1008 q 332 1229 332 1129 l 332 1264 l 419 1264 l 419 1231 q 453 1131 419 1168 q 542 1093 486 1093 q 632 1130 599 1093 q 665 1231 665 1167 l 665 1264 l 753 1264 l 753 1229 q 694 1069 753 1131 q 542 1008 635 1008 z "},"ŏ":{"ha":847,"x_min":69,"x_max":778,"o":"m 422 -14 q 374 -14 422 -14 q 244 33 325 -14 q 117 162 164 81 q 69 339 69 243 q 117 517 69 436 q 245 645 164 599 q 424 692 326 692 q 602 644 521 692 q 731 517 683 597 q 778 339 778 436 q 731 162 778 243 q 601 33 683 81 q 422 -14 519 -14 m 422 85 q 456 85 422 85 q 547 118 490 85 q 635 209 603 151 q 668 338 668 267 q 636 468 668 410 q 548 560 604 526 q 424 593 492 593 q 299 560 354 593 q 211 468 243 526 q 179 338 179 410 q 211 209 179 267 q 299 118 243 151 q 422 85 354 85 m 422 796 q 271 857 329 796 q 213 1015 213 918 l 213 1058 l 300 1058 l 300 1018 q 333 917 300 954 q 422 881 367 881 q 513 917 479 881 q 546 1018 546 954 l 546 1058 l 633 1058 l 633 1015 q 575 856 633 917 q 422 796 517 796 z "},"Ő":{"ha":1085,"x_min":67,"x_max":1018,"o":"m 542 -15 q 302 47 411 -15 q 130 219 193 110 q 67 458 67 328 q 130 699 67 590 q 302 869 193 807 q 542 932 411 932 q 781 869 671 932 q 954 699 890 807 q 1018 458 1018 590 q 954 218 1018 326 q 781 47 890 110 q 542 -15 671 -15 m 543 85 q 728 134 644 85 q 858 269 811 183 q 906 460 906 354 q 858 649 906 564 q 728 783 811 735 q 543 832 644 832 q 357 783 440 832 q 226 650 274 735 q 179 460 179 565 q 226 269 179 354 q 357 134 274 183 q 543 85 440 85 m 456 1264 l 571 1264 l 571 1244 l 413 1006 l 336 1006 l 456 1264 m 760 1264 l 875 1264 l 875 1244 l 717 1006 l 640 1006 l 760 1264 z "},"ő":{"ha":847,"x_min":69,"x_max":778,"o":"m 422 -14 q 374 -14 422 -14 q 244 33 325 -14 q 117 162 164 81 q 69 339 69 243 q 117 517 69 436 q 245 645 164 599 q 424 692 326 692 q 602 644 521 692 q 731 517 683 597 q 778 339 778 436 q 731 162 778 243 q 601 33 683 81 q 422 -14 519 -14 m 422 85 q 456 85 422 85 q 547 118 490 85 q 635 209 603 151 q 668 338 668 267 q 636 468 668 410 q 548 560 604 526 q 424 593 492 593 q 299 560 354 593 q 211 468 243 526 q 179 338 179 410 q 211 209 179 267 q 299 118 243 151 q 422 85 354 85 m 360 1083 l 475 1083 l 475 1064 l 317 786 l 240 786 l 360 1083 m 636 1083 l 751 1083 l 751 1064 l 593 786 l 517 786 l 636 1083 z "},"Œ":{"ha":1565,"x_min":67,"x_max":1510,"o":"m 1510 97 l 1510 0 l 906 0 l 906 174 q 752 35 849 85 q 540 -15 656 -15 q 300 47 408 -15 q 129 218 192 110 q 67 458 67 326 q 130 699 67 590 q 301 869 193 807 q 542 932 410 932 q 754 881 658 932 q 906 744 850 831 l 906 917 l 1493 917 l 1493 819 l 1014 819 l 1014 539 l 1381 539 l 1381 442 l 1014 442 l 1014 97 l 1510 97 m 542 85 q 593 85 542 85 q 728 134 644 85 q 858 269 811 183 q 906 458 906 354 q 858 648 906 563 q 728 783 811 733 q 542 832 644 832 q 356 783 439 832 q 226 649 274 735 q 179 458 179 564 q 226 267 179 353 q 356 133 274 182 q 542 85 439 85 z "},"œ":{"ha":1363,"x_min":69,"x_max":1293,"o":"m 1285 304 l 760 304 q 836 144 769 204 q 1001 83 903 83 q 1203 174 1115 83 l 1268 103 q 1145 15 1215 46 q 999 -15 1075 -15 q 828 31 906 -15 q 706 154 750 76 q 588 30 663 75 q 419 -15 514 -15 q 243 31 324 -15 q 116 159 163 78 q 69 338 69 240 q 117 517 69 436 q 244 645 164 599 q 421 692 325 692 q 590 646 515 692 q 706 521 664 600 q 825 644 750 599 q 990 690 900 690 q 1142 651 1072 690 q 1252 542 1211 613 q 1293 385 1293 472 q 1285 304 1293 346 m 419 83 q 453 83 419 83 q 541 117 488 83 q 624 208 594 150 q 654 338 654 267 q 625 468 654 410 q 542 560 596 526 q 421 593 489 593 q 297 560 351 593 q 210 467 242 526 q 179 338 179 408 q 210 208 179 267 q 297 117 242 150 q 419 83 351 83 m 983 593 q 841 540 901 593 q 764 399 781 488 l 1183 399 q 1124 541 1182 489 q 983 593 1067 593 z "},"Ŕ":{"ha":864,"x_min":126,"x_max":842,"o":"m 715 0 l 431 385 l 235 385 l 235 0 l 126 0 l 126 917 l 449 917 q 603 883 538 917 q 706 788 669 849 q 742 651 742 728 q 690 491 742 558 q 549 397 639 424 l 842 0 l 715 0 m 235 482 l 444 482 q 581 528 533 482 q 629 650 629 574 q 581 772 629 725 q 444 819 532 819 l 235 819 l 235 482 m 442 1264 l 572 1264 l 572 1244 l 406 1006 l 324 1006 l 442 1264 z "},"ŕ":{"ha":503,"x_min":118,"x_max":478,"o":"m 478 676 l 478 582 l 438 582 q 332 558 381 582 q 254 490 283 535 q 225 383 225 446 l 225 0 l 118 0 l 118 676 l 218 676 l 218 581 q 310 656 254 629 q 428 682 367 682 q 478 676 450 682 m 321 1083 l 451 1083 l 451 1064 l 285 786 l 203 786 l 321 1083 z "},"Ŗ":{"ha":864,"x_min":126,"x_max":842,"o":"m 715 0 l 431 385 l 235 385 l 235 0 l 126 0 l 126 917 l 449 917 q 603 883 538 917 q 706 788 669 849 q 742 651 742 728 q 690 491 742 558 q 549 397 639 424 l 842 0 l 715 0 m 235 482 l 444 482 q 581 528 533 482 q 629 650 629 574 q 581 772 629 725 q 444 819 532 819 l 235 819 l 235 482 m 379 -68 l 485 -68 l 450 -306 l 367 -306 l 379 -68 z "},"ŗ":{"ha":503,"x_min":104,"x_max":478,"o":"m 478 676 l 478 582 l 438 582 q 332 558 381 582 q 254 490 283 535 q 225 383 225 446 l 225 0 l 118 0 l 118 676 l 218 676 l 218 581 q 310 656 254 629 q 428 682 367 682 q 478 676 450 682 m 117 -68 l 222 -68 l 188 -306 l 104 -306 l 117 -68 z "},"Ř":{"ha":864,"x_min":126,"x_max":842,"o":"m 715 0 l 431 385 l 235 385 l 235 0 l 126 0 l 126 917 l 449 917 q 603 883 538 917 q 706 788 669 849 q 742 651 742 728 q 690 491 742 558 q 549 397 639 424 l 842 0 l 715 0 m 235 482 l 444 482 q 581 528 533 482 q 629 650 629 574 q 581 772 629 725 q 444 819 532 819 l 235 819 l 235 482 m 600 1264 l 396 1006 l 331 1006 l 126 1264 l 210 1264 l 364 1114 l 517 1264 l 600 1264 z "},"ř":{"ha":503,"x_min":19,"x_max":478,"o":"m 478 676 l 478 582 l 438 582 q 332 558 381 582 q 254 490 283 535 q 225 383 225 446 l 225 0 l 118 0 l 118 676 l 218 676 l 218 581 q 310 656 254 629 q 428 682 367 682 q 478 676 450 682 m 461 1083 l 274 786 l 208 786 l 19 1083 l 101 1083 l 242 906 l 381 1083 l 461 1083 z "},"Ś":{"ha":775,"x_min":57,"x_max":690,"o":"m 394 -15 q 199 38 288 -15 q 57 182 111 90 l 138 242 q 393 85 240 85 q 526 126 475 85 q 578 238 578 168 q 560 306 578 278 q 510 353 542 333 q 425 399 479 372 l 322 447 q 172 547 228 492 q 115 693 115 601 q 153 818 115 764 q 253 902 190 872 q 392 932 317 932 q 559 889 483 932 q 679 776 635 846 l 600 717 q 508 802 563 772 q 390 832 453 832 q 275 797 322 832 q 228 699 228 763 q 246 633 228 660 q 292 588 264 606 q 375 544 321 571 l 476 496 q 638 386 585 443 q 690 240 690 329 q 652 107 690 165 q 547 17 614 49 q 394 -15 479 -15 m 471 1264 l 601 1264 l 601 1244 l 435 1006 l 353 1006 l 471 1264 z "},"ś":{"ha":631,"x_min":54,"x_max":556,"o":"m 318 -15 q 166 22 233 -15 q 54 117 99 58 l 122 188 q 215 110 171 138 q 317 83 260 83 q 409 109 372 83 q 446 179 446 135 q 418 241 446 219 q 328 288 390 263 l 263 315 q 136 392 178 350 q 94 503 94 435 q 160 642 94 592 q 322 692 225 692 q 450 663 393 692 q 549 585 507 635 l 483 518 q 406 573 449 553 q 317 593 364 593 q 235 571 267 593 q 204 508 204 549 q 228 456 204 476 q 314 410 253 436 l 376 383 q 513 298 471 343 q 556 183 556 253 q 487 37 556 89 q 318 -15 418 -15 m 400 1083 l 531 1083 l 531 1064 l 364 786 l 282 786 l 400 1083 z "},"Ŝ":{"ha":775,"x_min":57,"x_max":690,"o":"m 394 -15 q 199 38 288 -15 q 57 182 111 90 l 138 242 q 393 85 240 85 q 526 126 475 85 q 578 238 578 168 q 560 306 578 278 q 510 353 542 333 q 425 399 479 372 l 322 447 q 172 547 228 492 q 115 693 115 601 q 153 818 115 764 q 253 902 190 872 q 392 932 317 932 q 559 889 483 932 q 679 776 635 846 l 600 717 q 508 802 563 772 q 390 832 453 832 q 275 797 322 832 q 228 699 228 763 q 246 633 228 660 q 292 588 264 606 q 375 544 321 571 l 476 496 q 638 386 585 443 q 690 240 690 329 q 652 107 690 165 q 547 17 614 49 q 394 -15 479 -15 m 546 1006 l 393 1156 l 239 1006 l 156 1006 l 360 1264 l 425 1264 l 629 1006 l 546 1006 z "},"ŝ":{"ha":631,"x_min":54,"x_max":556,"o":"m 318 -15 q 166 22 233 -15 q 54 117 99 58 l 122 188 q 215 110 171 138 q 317 83 260 83 q 409 109 372 83 q 446 179 446 135 q 418 241 446 219 q 328 288 390 263 l 263 315 q 136 392 178 350 q 94 503 94 435 q 160 642 94 592 q 322 692 225 692 q 450 663 393 692 q 549 585 507 635 l 483 518 q 406 573 449 553 q 317 593 364 593 q 235 571 267 593 q 204 508 204 549 q 228 456 204 476 q 314 410 253 436 l 376 383 q 513 298 471 343 q 556 183 556 253 q 487 37 556 89 q 318 -15 418 -15 m 460 786 l 321 964 l 181 786 l 99 786 l 288 1083 l 353 1083 l 540 786 l 460 786 z "},"Ş":{"ha":775,"x_min":57,"x_max":690,"o":"m 394 -15 q 199 38 288 -15 q 57 182 111 90 l 138 242 q 393 85 240 85 q 526 126 475 85 q 578 238 578 168 q 560 306 578 278 q 510 353 542 333 q 425 399 479 372 l 322 447 q 172 547 228 492 q 115 693 115 601 q 153 818 115 764 q 253 902 190 872 q 392 932 317 932 q 559 889 483 932 q 679 776 635 846 l 600 717 q 508 802 563 772 q 390 832 453 832 q 275 797 322 832 q 228 699 228 763 q 246 633 228 660 q 292 588 264 606 q 375 544 321 571 l 476 496 q 638 386 585 443 q 690 240 690 329 q 652 107 690 165 q 547 17 614 49 q 394 -15 479 -15 m 225 -251 l 225 -175 q 303 -181 268 -181 q 381 -158 351 -181 q 411 -90 411 -136 q 364 13 411 -35 l 410 36 q 477 -22 451 15 q 503 -106 503 -58 q 453 -219 503 -174 q 319 -265 404 -265 q 225 -251 274 -265 z "},"ş":{"ha":631,"x_min":54,"x_max":556,"o":"m 318 -15 q 166 22 233 -15 q 54 117 99 58 l 122 188 q 215 110 171 138 q 317 83 260 83 q 409 109 372 83 q 446 179 446 135 q 418 241 446 219 q 328 288 390 263 l 263 315 q 136 392 178 350 q 94 503 94 435 q 160 642 94 592 q 322 692 225 692 q 450 663 393 692 q 549 585 507 635 l 483 518 q 406 573 449 553 q 317 593 364 593 q 235 571 267 593 q 204 508 204 549 q 228 456 204 476 q 314 410 253 436 l 376 383 q 513 298 471 343 q 556 183 556 253 q 487 37 556 89 q 318 -15 418 -15 m 156 -251 l 156 -175 q 233 -181 199 -181 q 312 -158 282 -181 q 342 -90 342 -136 q 294 13 342 -35 l 340 36 q 408 -22 382 15 q 433 -106 433 -58 q 384 -219 433 -174 q 250 -265 335 -265 q 156 -251 204 -265 z "},"Š":{"ha":775,"x_min":57,"x_max":690,"o":"m 394 -15 q 199 38 288 -15 q 57 182 111 90 l 138 242 q 393 85 240 85 q 526 126 475 85 q 578 238 578 168 q 560 306 578 278 q 510 353 542 333 q 425 399 479 372 l 322 447 q 172 547 228 492 q 115 693 115 601 q 153 818 115 764 q 253 902 190 872 q 392 932 317 932 q 559 889 483 932 q 679 776 635 846 l 600 717 q 508 802 563 772 q 390 832 453 832 q 275 797 322 832 q 228 699 228 763 q 246 633 228 660 q 292 588 264 606 q 375 544 321 571 l 476 496 q 638 386 585 443 q 690 240 690 329 q 652 107 690 165 q 547 17 614 49 q 394 -15 479 -15 m 629 1264 l 425 1006 l 360 1006 l 156 1264 l 239 1264 l 393 1114 l 546 1264 l 629 1264 z "},"š":{"ha":631,"x_min":54,"x_max":556,"o":"m 318 -15 q 166 22 233 -15 q 54 117 99 58 l 122 188 q 215 110 171 138 q 317 83 260 83 q 409 109 372 83 q 446 179 446 135 q 418 241 446 219 q 328 288 390 263 l 263 315 q 136 392 178 350 q 94 503 94 435 q 160 642 94 592 q 322 692 225 692 q 450 663 393 692 q 549 585 507 635 l 483 518 q 406 573 449 553 q 317 593 364 593 q 235 571 267 593 q 204 508 204 549 q 228 456 204 476 q 314 410 253 436 l 376 383 q 513 298 471 343 q 556 183 556 253 q 487 37 556 89 q 318 -15 418 -15 m 540 1083 l 353 786 l 288 786 l 99 1083 l 181 1083 l 321 906 l 460 1083 l 540 1083 z "},"Ţ":{"ha":807,"x_min":26,"x_max":781,"o":"m 349 819 l 26 819 l 26 917 l 781 917 l 781 819 l 457 819 l 457 0 l 349 0 l 349 819 m 224 -251 l 224 -175 q 301 -181 267 -181 q 380 -158 350 -181 q 410 -90 410 -136 q 363 13 410 -35 l 408 36 q 476 -22 450 15 q 501 -106 501 -58 q 452 -219 501 -174 q 318 -265 403 -265 q 224 -251 272 -265 z "},"ţ":{"ha":529,"x_min":33,"x_max":488,"o":"m 488 90 l 488 0 q 375 -15 424 -15 q 208 39 269 -15 q 147 204 147 93 l 147 581 l 33 581 l 33 676 l 147 676 l 147 861 l 254 861 l 254 676 l 465 676 l 465 581 l 254 581 l 254 211 q 291 110 254 139 q 397 82 328 82 q 488 90 436 82 m 129 -251 l 129 -175 q 207 -181 172 -181 q 285 -158 256 -181 q 315 -90 315 -136 q 268 13 315 -35 l 314 36 q 381 -22 356 15 q 407 -106 407 -58 q 358 -219 407 -174 q 224 -265 308 -265 q 129 -251 178 -265 z "},"Ť":{"ha":807,"x_min":26,"x_max":781,"o":"m 349 819 l 26 819 l 26 917 l 781 917 l 781 819 l 457 819 l 457 0 l 349 0 l 349 819 m 640 1264 l 436 1006 l 371 1006 l 167 1264 l 250 1264 l 404 1114 l 557 1264 l 640 1264 z "},"ť":{"ha":529,"x_min":33,"x_max":519,"o":"m 488 90 l 488 0 q 375 -15 424 -15 q 208 39 269 -15 q 147 204 147 93 l 147 581 l 33 581 l 33 676 l 147 676 l 147 861 l 254 861 l 254 676 l 465 676 l 465 581 l 254 581 l 254 211 q 291 110 254 139 q 397 82 328 82 q 488 90 436 82 m 404 1042 l 519 1042 l 465 749 l 386 749 l 404 1042 z "},"Ŧ":{"ha":807,"x_min":26,"x_max":781,"o":"m 349 361 l 78 361 l 78 453 l 349 453 l 349 819 l 26 819 l 26 917 l 781 917 l 781 819 l 457 819 l 457 453 l 729 453 l 729 361 l 457 361 l 457 0 l 349 0 l 349 361 z "},"ŧ":{"ha":547,"x_min":46,"x_max":500,"o":"m 500 90 l 500 0 q 388 -15 439 -15 q 222 39 283 -15 q 161 204 161 93 l 161 304 l 46 304 l 46 396 l 161 396 l 161 583 l 46 583 l 46 676 l 161 676 l 161 861 l 267 861 l 267 676 l 478 676 l 478 583 l 267 583 l 267 396 l 478 396 l 478 304 l 267 304 l 267 211 q 303 111 267 140 q 407 82 339 82 q 500 90 449 82 z "},"Ũ":{"ha":957,"x_min":114,"x_max":842,"o":"m 479 -15 q 290 29 372 -15 q 160 159 207 74 q 114 364 114 244 l 114 917 l 222 917 l 222 357 q 294 154 222 224 q 479 85 365 85 q 663 154 592 85 q 733 357 733 224 l 733 917 l 842 917 l 842 364 q 795 159 842 244 q 666 29 749 74 q 479 -15 583 -15 m 488 1064 l 442 1092 q 424 1103 438 1094 q 401 1115 411 1111 q 382 1119 390 1119 q 351 1104 363 1119 q 340 1067 340 1089 l 340 1044 l 251 1044 q 249 1079 249 1064 q 282 1180 249 1140 q 369 1219 315 1219 q 467 1188 417 1219 l 514 1157 q 531 1145 518 1154 q 555 1133 544 1136 q 575 1129 565 1129 q 606 1144 594 1129 q 617 1181 617 1158 l 617 1206 l 706 1206 q 707 1169 707 1194 q 674 1070 707 1110 q 589 1031 642 1031 q 488 1064 542 1031 z "},"ũ":{"ha":778,"x_min":110,"x_max":669,"o":"m 390 -15 q 247 20 311 -15 q 147 120 183 56 q 110 269 110 185 l 110 676 l 215 676 l 215 263 q 265 132 215 181 q 390 83 315 83 q 513 133 464 83 q 563 263 563 182 l 563 676 l 669 676 l 669 269 q 633 120 669 185 q 532 20 596 56 q 390 -15 468 -15 m 489 828 q 440 838 465 828 q 394 864 415 847 l 358 894 q 342 908 353 899 q 321 922 331 918 q 300 926 311 926 q 261 869 261 926 l 261 846 l 172 846 q 171 881 171 858 q 203 984 171 943 q 289 1025 235 1025 q 383 989 340 1025 l 419 958 q 478 926 456 926 q 517 983 517 926 l 517 1007 l 606 1007 q 607 972 607 994 q 575 869 607 910 q 489 828 543 828 z "},"Ū":{"ha":957,"x_min":114,"x_max":842,"o":"m 479 -15 q 290 29 372 -15 q 160 159 207 74 q 114 364 114 244 l 114 917 l 222 917 l 222 357 q 294 154 222 224 q 479 85 365 85 q 663 154 592 85 q 733 357 733 224 l 733 917 l 842 917 l 842 364 q 795 159 842 244 q 666 29 749 74 q 479 -15 583 -15 m 274 1157 l 683 1157 l 683 1069 l 274 1069 l 274 1157 z "},"ū":{"ha":778,"x_min":110,"x_max":669,"o":"m 390 -15 q 247 20 311 -15 q 147 120 183 56 q 110 269 110 185 l 110 676 l 215 676 l 215 263 q 265 132 215 181 q 390 83 315 83 q 513 133 464 83 q 563 263 563 182 l 563 676 l 669 676 l 669 269 q 633 120 669 185 q 532 20 596 56 q 390 -15 468 -15 m 199 978 l 581 978 l 581 892 l 199 892 l 199 978 z "},"Ŭ":{"ha":957,"x_min":114,"x_max":842,"o":"m 479 -15 q 290 29 372 -15 q 160 159 207 74 q 114 364 114 244 l 114 917 l 222 917 l 222 357 q 294 154 222 224 q 479 85 365 85 q 663 154 592 85 q 733 357 733 224 l 733 917 l 842 917 l 842 364 q 795 159 842 244 q 666 29 749 74 q 479 -15 583 -15 m 476 1008 q 324 1069 382 1008 q 267 1229 267 1129 l 267 1264 l 354 1264 l 354 1231 q 388 1131 354 1168 q 476 1093 421 1093 q 567 1130 533 1093 q 600 1231 600 1167 l 600 1264 l 688 1264 l 688 1229 q 628 1069 688 1131 q 476 1008 569 1008 z "},"ŭ":{"ha":778,"x_min":110,"x_max":669,"o":"m 390 -15 q 247 20 311 -15 q 147 120 183 56 q 110 269 110 185 l 110 676 l 215 676 l 215 263 q 265 132 215 181 q 390 83 315 83 q 513 133 464 83 q 563 263 563 182 l 563 676 l 669 676 l 669 269 q 633 120 669 185 q 532 20 596 56 q 390 -15 468 -15 m 388 796 q 236 857 294 796 q 178 1015 178 918 l 178 1058 l 265 1058 l 265 1018 q 299 917 265 954 q 388 881 332 881 q 478 917 444 881 q 511 1018 511 954 l 511 1058 l 599 1058 l 599 1015 q 540 856 599 917 q 388 796 482 796 z "},"Ů":{"ha":957,"x_min":114,"x_max":842,"o":"m 479 -15 q 290 29 372 -15 q 160 159 207 74 q 114 364 114 244 l 114 917 l 222 917 l 222 357 q 294 154 222 224 q 479 85 365 85 q 663 154 592 85 q 733 357 733 224 l 733 917 l 842 917 l 842 364 q 795 159 842 244 q 666 29 749 74 q 479 -15 583 -15 m 476 969 q 367 1013 411 969 q 324 1119 324 1057 q 367 1226 324 1182 q 476 1269 411 1269 q 587 1226 543 1269 q 631 1119 631 1182 q 587 1013 631 1057 q 476 969 543 969 m 478 1050 q 492 1050 478 1050 q 527 1070 507 1050 q 547 1119 547 1090 q 527 1170 547 1150 q 478 1190 507 1190 q 427 1170 447 1190 q 407 1119 407 1150 q 428 1070 407 1090 q 478 1050 449 1050 z "},"ů":{"ha":778,"x_min":110,"x_max":669,"o":"m 390 -15 q 247 20 311 -15 q 147 120 183 56 q 110 269 110 185 l 110 676 l 215 676 l 215 263 q 265 132 215 181 q 390 83 315 83 q 513 133 464 83 q 563 263 563 182 l 563 676 l 669 676 l 669 269 q 633 120 669 185 q 532 20 596 56 q 390 -15 468 -15 m 388 776 q 279 820 324 776 q 235 928 235 864 q 278 1035 235 992 q 388 1078 322 1078 q 497 1035 453 1078 q 542 928 542 992 q 497 820 542 864 q 388 776 453 776 m 389 858 q 438 878 418 858 q 458 928 458 897 q 438 979 458 958 q 389 1000 417 1000 q 339 979 360 1000 q 318 928 318 958 q 338 878 318 897 q 389 858 358 858 z "},"Ű":{"ha":957,"x_min":114,"x_max":842,"o":"m 479 -15 q 290 29 372 -15 q 160 159 207 74 q 114 364 114 244 l 114 917 l 222 917 l 222 357 q 294 154 222 224 q 479 85 365 85 q 663 154 592 85 q 733 357 733 224 l 733 917 l 842 917 l 842 364 q 795 159 842 244 q 666 29 749 74 q 479 -15 583 -15 m 390 1264 l 506 1264 l 506 1244 l 347 1006 l 271 1006 l 390 1264 m 694 1264 l 810 1264 l 810 1244 l 651 1006 l 575 1006 l 694 1264 z "},"ű":{"ha":778,"x_min":110,"x_max":717,"o":"m 390 -15 q 247 20 311 -15 q 147 120 183 56 q 110 269 110 185 l 110 676 l 215 676 l 215 263 q 265 132 215 181 q 390 83 315 83 q 513 133 464 83 q 563 263 563 182 l 563 676 l 669 676 l 669 269 q 633 120 669 185 q 532 20 596 56 q 390 -15 468 -15 m 325 1083 l 440 1083 l 440 1064 l 282 786 l 206 786 l 325 1083 m 601 1083 l 717 1083 l 717 1064 l 558 786 l 482 786 l 601 1083 z "},"Ų":{"ha":957,"x_min":114,"x_max":842,"o":"m 479 -15 q 290 29 372 -15 q 160 159 207 74 q 114 364 114 244 l 114 917 l 222 917 l 222 357 q 294 154 222 224 q 479 85 365 85 q 663 154 592 85 q 733 357 733 224 l 733 917 l 842 917 l 842 364 q 795 159 842 244 q 666 29 749 74 q 479 -15 583 -15 m 615 -265 q 508 -233 549 -265 q 467 -144 467 -200 q 481 -78 467 -108 q 531 -8 494 -49 q 643 103 567 32 l 754 103 l 626 -33 q 586 -83 597 -65 q 575 -128 575 -101 q 640 -179 575 -179 q 715 -169 669 -179 l 715 -250 q 615 -265 667 -265 z "},"ų":{"ha":778,"x_min":110,"x_max":669,"o":"m 669 676 l 669 269 q 649 153 669 200 q 600 75 629 106 q 496 -22 571 44 q 443 -78 458 -57 q 428 -125 428 -99 q 447 -169 428 -154 q 500 -183 467 -183 q 574 -174 531 -183 l 574 -247 q 471 -265 517 -265 q 366 -235 406 -265 q 326 -149 326 -206 q 406 -15 326 -76 l 390 -15 q 247 20 311 -15 q 147 120 183 56 q 110 269 110 185 l 110 676 l 215 676 l 215 263 q 265 132 215 181 q 390 83 315 83 q 513 133 464 83 q 563 263 563 182 l 563 676 l 669 676 z "},"Ŵ":{"ha":1481,"x_min":63,"x_max":1417,"o":"m 1417 917 l 1069 -15 l 1031 -15 l 740 713 l 450 -15 l 411 -15 l 63 917 l 182 917 l 435 218 l 721 932 l 760 932 l 1046 219 l 1299 917 l 1417 917 m 893 1006 l 740 1156 l 586 1006 l 503 1006 l 707 1264 l 772 1264 l 976 1006 l 893 1006 z "},"ŵ":{"ha":1182,"x_min":36,"x_max":1144,"o":"m 1144 676 l 860 -15 l 821 -15 l 590 496 l 361 -15 l 324 -15 l 36 676 l 150 676 l 346 175 l 571 692 l 611 692 l 839 179 l 1031 676 l 1144 676 m 728 786 l 589 964 l 449 786 l 367 786 l 556 1083 l 621 1083 l 808 786 l 728 786 z "},"Ŷ":{"ha":856,"x_min":56,"x_max":800,"o":"m 482 379 l 482 0 l 374 0 l 374 379 l 56 917 l 178 917 l 428 486 l 679 917 l 800 917 l 482 379 m 576 1006 l 424 1156 l 269 1006 l 186 1006 l 390 1264 l 456 1264 l 660 1006 l 576 1006 z "},"ŷ":{"ha":749,"x_min":36,"x_max":713,"o":"m 713 676 l 379 -94 q 284 -224 340 -183 q 150 -265 228 -265 q 46 -251 99 -265 l 46 -161 q 128 -168 99 -168 q 217 -144 181 -168 q 281 -60 254 -121 l 317 21 l 36 676 l 151 676 l 375 138 l 599 676 l 713 676 m 511 786 l 372 964 l 232 786 l 150 786 l 339 1083 l 404 1083 l 592 786 l 511 786 z "},"Ÿ":{"ha":856,"x_min":56,"x_max":800,"o":"m 482 379 l 482 0 l 374 0 l 374 379 l 56 917 l 178 917 l 428 486 l 679 917 l 800 917 l 482 379 m 261 1051 q 208 1073 231 1051 q 185 1125 185 1094 q 208 1177 185 1156 q 261 1199 231 1199 q 315 1177 293 1199 q 338 1125 338 1156 q 315 1073 338 1094 q 261 1051 293 1051 m 585 1050 q 531 1072 554 1050 q 508 1124 508 1093 q 531 1176 508 1154 q 585 1199 554 1199 q 639 1176 617 1199 q 661 1124 661 1154 q 639 1072 661 1093 q 585 1050 617 1050 z "},"Ź":{"ha":818,"x_min":44,"x_max":771,"o":"m 771 97 l 771 0 l 44 0 l 44 32 l 597 819 l 104 819 l 104 917 l 769 917 l 769 885 l 214 97 l 771 97 m 494 1264 l 625 1264 l 625 1244 l 458 1006 l 376 1006 l 494 1264 z "},"ź":{"ha":631,"x_min":38,"x_max":593,"o":"m 593 94 l 593 0 l 38 0 l 38 32 l 424 581 l 69 581 l 69 676 l 589 676 l 589 644 l 201 94 l 593 94 m 410 1083 l 540 1083 l 540 1064 l 374 786 l 292 786 l 410 1083 z "},"Ż":{"ha":818,"x_min":44,"x_max":771,"o":"m 771 97 l 771 0 l 44 0 l 44 32 l 597 819 l 104 819 l 104 917 l 769 917 l 769 885 l 214 97 l 771 97 m 417 1047 q 400 1047 417 1047 q 360 1069 383 1047 q 336 1125 336 1092 q 360 1180 336 1157 q 417 1203 383 1203 q 472 1180 449 1203 q 496 1125 496 1157 q 473 1069 496 1092 q 417 1047 450 1047 z "},"ż":{"ha":631,"x_min":38,"x_max":593,"o":"m 593 94 l 593 0 l 38 0 l 38 32 l 424 581 l 69 581 l 69 676 l 589 676 l 589 644 l 201 94 l 593 94 m 329 857 q 313 857 329 857 q 272 879 296 857 q 249 935 249 901 q 272 990 249 967 q 329 1013 296 1013 q 385 990 361 1013 q 408 935 408 967 q 385 879 408 901 q 329 857 363 857 z "},"Ž":{"ha":818,"x_min":44,"x_max":771,"o":"m 771 97 l 771 0 l 44 0 l 44 32 l 597 819 l 104 819 l 104 917 l 769 917 l 769 885 l 214 97 l 771 97 m 653 1264 l 449 1006 l 383 1006 l 179 1264 l 263 1264 l 417 1114 l 569 1264 l 653 1264 z "},"ž":{"ha":631,"x_min":38,"x_max":593,"o":"m 593 94 l 593 0 l 38 0 l 38 32 l 424 581 l 69 581 l 69 676 l 589 676 l 589 644 l 201 94 l 593 94 m 550 1083 l 363 786 l 297 786 l 108 1083 l 190 1083 l 331 906 l 469 1083 l 550 1083 z "},"Ə":{"ha":1015,"x_min":67,"x_max":949,"o":"m 501 932 q 731 869 629 932 q 891 699 833 807 q 949 461 949 592 q 890 220 949 329 q 727 48 831 111 q 496 -15 624 -15 q 281 35 379 -15 q 125 178 183 86 q 67 392 67 271 q 75 490 67 432 l 835 490 q 785 667 829 590 q 667 788 742 744 q 500 832 593 832 q 322 792 403 832 q 188 678 242 751 l 113 740 q 278 881 178 831 q 501 932 378 932 m 500 85 q 722 170 632 85 q 832 393 811 256 l 175 393 q 216 229 172 299 q 335 122 260 160 q 500 85 411 85 z "},"ƒ":{"ha":615,"x_min":7,"x_max":607,"o":"m 607 921 l 607 832 q 546 835 560 835 q 445 806 479 835 q 401 706 411 776 l 383 554 l 528 554 l 528 458 l 371 458 l 319 33 q 89 -185 293 -185 q 7 -175 49 -185 l 7 -85 q 68 -89 42 -89 q 169 -59 135 -89 q 214 42 204 -29 l 265 458 l 129 458 l 129 554 l 276 554 l 296 713 q 526 932 324 932 q 607 921 571 932 z "},"ǔ":{"ha":778,"x_min":110,"x_max":669,"o":"m 390 -15 q 247 20 311 -15 q 147 120 183 56 q 110 269 110 185 l 110 676 l 215 676 l 215 263 q 265 132 215 181 q 390 83 315 83 q 513 133 464 83 q 563 263 563 182 l 563 676 l 669 676 l 669 269 q 633 120 669 185 q 532 20 596 56 q 390 -15 468 -15 m 610 1083 l 422 786 l 357 786 l 168 1083 l 250 1083 l 390 906 l 529 1083 l 610 1083 z "},"Ǽ":{"ha":1140,"x_min":18,"x_max":1085,"o":"m 1085 97 l 1085 0 l 649 0 l 617 186 l 233 186 l 135 0 l 18 0 l 496 917 l 1068 917 l 1068 819 l 621 819 l 668 539 l 957 539 l 957 442 l 685 442 l 743 97 l 1085 97 m 285 283 l 600 283 l 524 751 l 285 283 m 657 1264 l 788 1264 l 788 1244 l 621 1006 l 539 1006 l 657 1264 z "},"ǽ":{"ha":1243,"x_min":61,"x_max":1172,"o":"m 632 293 q 714 140 646 197 q 878 83 782 83 q 1082 174 992 83 l 1146 103 q 1025 15 1094 46 q 876 -15 956 -15 q 704 29 782 -15 q 581 149 626 74 q 469 28 544 71 q 300 -15 394 -15 q 127 38 193 -15 q 61 181 61 92 q 128 326 61 271 q 304 381 194 381 l 518 381 l 518 422 q 474 549 518 506 q 356 593 429 593 q 248 565 296 593 q 160 485 200 538 l 89 543 q 207 654 135 617 q 363 692 279 692 q 505 656 444 692 q 594 550 565 619 q 711 654 640 617 q 867 692 782 692 q 1022 653 951 692 q 1132 544 1092 614 q 1172 385 1172 474 q 1169 332 1172 358 q 1163 293 1167 306 l 632 293 m 1061 381 q 1039 494 1065 446 q 966 569 1013 543 q 861 594 919 594 q 708 535 771 594 q 632 381 644 476 l 1061 381 m 313 75 q 414 99 367 75 q 490 165 461 124 q 518 258 518 207 l 518 293 l 317 293 q 171 192 171 293 q 211 106 171 136 q 313 75 251 75 m 672 1083 l 803 1083 l 803 1064 l 636 786 l 554 786 l 672 1083 z "},"Ǿ":{"ha":1085,"x_min":58,"x_max":1026,"o":"m 911 761 q 990 622 963 699 q 1018 458 1018 544 q 954 218 1018 326 q 781 47 890 110 q 542 -15 671 -15 q 380 12 457 -15 q 240 89 303 39 l 125 -26 l 58 40 l 174 156 q 94 295 122 218 q 67 458 67 372 q 130 699 67 590 q 302 869 193 807 q 542 932 411 932 q 703 904 626 932 q 843 826 781 876 l 960 943 l 1026 876 l 911 761 m 543 836 q 355 787 439 836 q 223 651 271 738 q 175 460 175 565 q 247 229 175 328 l 774 756 q 543 836 675 836 m 543 81 q 730 131 646 81 q 862 267 814 181 q 910 460 910 354 q 838 689 910 590 l 311 160 q 543 81 410 81 m 621 1264 l 751 1264 l 751 1244 l 585 1006 l 503 1006 l 621 1264 z "},"ǿ":{"ha":861,"x_min":68,"x_max":794,"o":"m 713 553 q 785 338 785 458 q 737 160 785 242 q 607 32 689 79 q 429 -15 525 -15 q 215 57 310 -15 l 135 -26 l 68 40 l 150 122 q 78 338 78 217 q 125 516 78 435 q 253 644 172 597 q 431 692 333 692 q 646 619 551 692 l 728 700 l 794 636 l 713 553 m 431 597 q 301 563 358 597 q 213 470 244 529 q 181 338 181 411 q 222 189 181 254 l 581 550 q 431 597 513 597 m 429 76 q 558 111 500 76 q 649 206 615 146 q 682 338 682 265 q 640 486 682 421 l 281 126 q 429 76 343 76 m 513 1083 l 643 1083 l 643 1064 l 476 786 l 394 786 l 513 1083 z "},"Ș":{"ha":775,"x_min":57,"x_max":690,"o":"m 394 -15 q 199 38 288 -15 q 57 182 111 90 l 138 242 q 393 85 240 85 q 526 126 475 85 q 578 238 578 168 q 560 306 578 278 q 510 353 542 333 q 425 399 479 372 l 322 447 q 172 547 228 492 q 115 693 115 601 q 153 818 115 764 q 253 902 190 872 q 392 932 317 932 q 559 889 483 932 q 679 776 635 846 l 600 717 q 508 802 563 772 q 390 832 453 832 q 275 797 322 832 q 228 699 228 763 q 246 633 228 660 q 292 588 264 606 q 375 544 321 571 l 476 496 q 638 386 585 443 q 690 240 690 329 q 652 107 690 165 q 547 17 614 49 q 394 -15 479 -15 m 351 -68 l 457 -68 l 422 -306 l 339 -306 l 351 -68 z "},"ș":{"ha":631,"x_min":54,"x_max":556,"o":"m 318 -15 q 166 22 233 -15 q 54 117 99 58 l 122 188 q 215 110 171 138 q 317 83 260 83 q 409 109 372 83 q 446 179 446 135 q 418 241 446 219 q 328 288 390 263 l 263 315 q 136 392 178 350 q 94 503 94 435 q 160 642 94 592 q 322 692 225 692 q 450 663 393 692 q 549 585 507 635 l 483 518 q 406 573 449 553 q 317 593 364 593 q 235 571 267 593 q 204 508 204 549 q 228 456 204 476 q 314 410 253 436 l 376 383 q 513 298 471 343 q 556 183 556 253 q 487 37 556 89 q 318 -15 418 -15 m 282 -68 l 388 -68 l 353 -306 l 269 -306 l 282 -68 z "},"Ț":{"ha":807,"x_min":26,"x_max":781,"o":"m 349 819 l 26 819 l 26 917 l 781 917 l 781 819 l 457 819 l 457 0 l 349 0 l 349 819 m 350 -68 l 456 -68 l 421 -306 l 338 -306 l 350 -68 z "},"ț":{"ha":529,"x_min":33,"x_max":488,"o":"m 488 90 l 488 0 q 375 -15 424 -15 q 208 39 269 -15 q 147 204 147 93 l 147 581 l 33 581 l 33 676 l 147 676 l 147 861 l 254 861 l 254 676 l 465 676 l 465 581 l 254 581 l 254 211 q 291 110 254 139 q 397 82 328 82 q 488 90 436 82 m 254 -68 l 360 -68 l 325 -306 l 242 -306 l 254 -68 z "},"ȷ":{"ha":342,"x_min":-83,"x_max":225,"o":"m -83 -254 l -83 -164 q -21 -168 -49 -168 q 82 -139 46 -168 q 118 -39 118 -110 l 118 676 l 225 676 l 225 -46 q 165 -211 225 -157 q 3 -265 104 -265 q -83 -254 -43 -265 z "},"ə":{"ha":793,"x_min":69,"x_max":724,"o":"m 375 692 q 555 645 475 692 q 679 518 635 599 q 724 339 724 438 q 681 160 724 240 q 561 32 638 79 q 388 -15 485 -15 q 226 24 299 -15 q 112 132 154 63 q 69 290 69 201 q 78 371 69 329 l 613 371 q 538 533 603 472 q 374 593 474 593 q 157 501 249 593 l 94 574 q 219 661 147 631 q 375 692 290 692 m 390 81 q 535 134 476 81 q 608 276 593 188 l 181 276 q 243 133 183 186 q 390 81 303 81 z "},"ˆ":{"ha":833,"x_min":196,"x_max":638,"o":"m 557 786 l 418 964 l 278 786 l 196 786 l 385 1083 l 450 1083 l 638 786 l 557 786 z "},"ˇ":{"ha":833,"x_min":196,"x_max":638,"o":"m 638 1083 l 450 786 l 385 786 l 196 1083 l 278 1083 l 418 906 l 557 1083 l 638 1083 z "},"˘":{"ha":833,"x_min":206,"x_max":626,"o":"m 415 796 q 264 857 322 796 q 206 1015 206 918 l 206 1058 l 293 1058 l 293 1018 q 326 917 293 954 q 415 881 360 881 q 506 917 472 881 q 539 1018 539 954 l 539 1058 l 626 1058 l 626 1015 q 568 856 626 917 q 415 796 510 796 z "},"˙":{"ha":833,"x_min":336,"x_max":496,"o":"m 417 857 q 400 857 417 857 q 360 879 383 857 q 336 935 336 901 q 360 990 336 967 q 417 1013 383 1013 q 472 990 449 1013 q 496 935 496 967 q 473 879 496 901 q 417 857 450 857 z "},"˚":{"ha":833,"x_min":263,"x_max":569,"o":"m 415 776 q 307 820 351 776 q 263 928 263 864 q 306 1035 263 992 q 415 1078 350 1078 q 525 1035 481 1078 q 569 928 569 992 q 525 820 569 864 q 415 776 481 776 m 417 858 q 466 878 446 858 q 486 928 486 897 q 465 979 486 958 q 417 1000 444 1000 q 367 979 388 1000 q 346 928 346 958 q 366 878 346 897 q 417 858 386 858 z "},"˛":{"ha":833,"x_min":293,"x_max":542,"o":"m 442 -265 q 334 -232 375 -265 q 293 -144 293 -199 q 338 -51 293 -93 q 499 49 383 -10 l 542 0 l 472 -46 q 416 -89 432 -74 q 400 -128 400 -104 q 417 -166 400 -153 q 467 -179 435 -179 q 542 -169 496 -179 l 542 -250 q 442 -265 493 -265 z "},"˜":{"ha":833,"x_min":199,"x_max":635,"o":"m 517 828 q 468 838 493 828 q 422 864 443 847 l 386 894 q 369 908 381 899 q 349 922 358 918 q 328 926 339 926 q 289 869 289 926 l 289 846 l 200 846 q 199 881 199 858 q 231 984 199 943 q 317 1025 263 1025 q 411 989 368 1025 l 447 958 q 506 926 483 926 q 544 983 544 926 l 544 1007 l 633 1007 q 635 972 635 994 q 603 869 635 910 q 517 828 571 828 z "},"˝":{"ha":833,"x_min":161,"x_max":672,"o":"m 281 1083 l 396 1083 l 396 1064 l 238 786 l 161 786 l 281 1083 m 557 1083 l 672 1083 l 672 1064 l 514 786 l 438 786 l 557 1083 z "},"̀":{"ha":0,"x_min":-472,"x_max":-224,"o":"m -472 1064 l -472 1083 l -342 1083 l -224 786 l -306 786 l -472 1064 z "},"́":{"ha":0,"x_min":-472,"x_max":-224,"o":"m -354 1083 l -224 1083 l -224 1064 l -390 786 l -472 786 l -354 1083 z "},"̂":{"ha":0,"x_min":-568,"x_max":-126,"o":"m -207 786 l -346 964 l -486 786 l -568 786 l -379 1083 l -314 1083 l -126 786 l -207 786 z "},"̃":{"ha":0,"x_min":-565,"x_max":-129,"o":"m -247 828 q -296 838 -271 828 q -342 864 -321 847 l -378 894 q -394 908 -383 899 q -415 922 -406 918 q -436 926 -425 926 q -475 869 -475 926 l -475 846 l -564 846 q -565 881 -565 858 q -533 984 -565 943 q -447 1025 -501 1025 q -353 989 -396 1025 l -317 958 q -258 926 -281 926 q -219 983 -219 926 l -219 1007 l -131 1007 q -129 972 -129 994 q -161 869 -129 910 q -247 828 -193 828 z "},"̄":{"ha":0,"x_min":-537,"x_max":-156,"o":"m -537 978 l -156 978 l -156 892 l -537 892 l -537 978 z "},"̆":{"ha":0,"x_min":-558,"x_max":-137,"o":"m -349 796 q -500 857 -442 796 q -558 1015 -558 918 l -558 1058 l -471 1058 l -471 1018 q -437 917 -471 954 q -349 881 -404 881 q -258 917 -292 881 q -225 1018 -225 954 l -225 1058 l -137 1058 l -137 1015 q -196 856 -137 917 q -349 796 -254 796 z "},"̇":{"ha":0,"x_min":-428,"x_max":-268,"o":"m -347 857 q -364 857 -347 857 q -404 879 -381 857 q -428 935 -428 901 q -404 990 -428 967 q -347 1013 -381 1013 q -292 990 -315 1013 q -268 935 -268 967 q -291 879 -268 901 q -347 857 -314 857 z "},"̈":{"ha":0,"x_min":-572,"x_max":-124,"o":"m -496 861 q -549 883 -525 861 q -572 935 -572 906 q -549 988 -572 965 q -496 1010 -525 1010 q -441 988 -464 1010 q -418 935 -418 965 q -441 883 -418 904 q -496 861 -464 861 m -200 861 q -254 883 -231 861 q -278 935 -278 906 q -254 988 -278 965 q -200 1010 -231 1010 q -146 988 -168 1010 q -124 935 -124 965 q -146 883 -124 904 q -200 861 -168 861 z "},"̊":{"ha":0,"x_min":-501,"x_max":-194,"o":"m -349 776 q -457 820 -412 776 q -501 928 -501 864 q -458 1035 -501 992 q -349 1078 -414 1078 q -239 1035 -283 1078 q -194 928 -194 992 q -239 820 -194 864 q -349 776 -283 776 m -347 858 q -298 878 -318 858 q -278 928 -278 897 q -299 979 -278 958 q -347 1000 -319 1000 q -397 979 -376 1000 q -418 928 -418 958 q -398 878 -418 897 q -347 858 -378 858 z "},"̋":{"ha":0,"x_min":-603,"x_max":-92,"o":"m -483 1083 l -368 1083 l -368 1064 l -526 786 l -603 786 l -483 1083 m -207 1083 l -92 1083 l -92 1064 l -250 786 l -326 786 l -207 1083 z "},"̌":{"ha":0,"x_min":-568,"x_max":-126,"o":"m -126 1083 l -314 786 l -379 786 l -568 1083 l -486 1083 l -346 906 l -207 1083 l -126 1083 z "},"̦":{"ha":0,"x_min":-407,"x_max":-289,"o":"m -394 -68 l -289 -68 l -324 -306 l -407 -306 l -394 -68 z "},"̧":{"ha":0,"x_min":-486,"x_max":-208,"o":"m -486 -251 l -486 -175 q -408 -181 -443 -181 q -330 -158 -360 -181 q -300 -90 -300 -136 q -347 13 -300 -35 l -301 36 q -234 -22 -260 15 q -208 -106 -208 -58 q -258 -219 -208 -174 q -392 -265 -307 -265 q -486 -251 -437 -265 z "},"̨":{"ha":0,"x_min":-471,"x_max":-222,"o":"m -322 -265 q -430 -232 -389 -265 q -471 -144 -471 -199 q -426 -51 -471 -93 q -265 49 -381 -10 l -222 0 l -292 -46 q -348 -89 -332 -74 q -364 -128 -364 -104 q -347 -166 -364 -153 q -297 -179 -329 -179 q -222 -169 -268 -179 l -222 -250 q -322 -265 -271 -265 z "},"΄":{"ha":694,"x_min":261,"x_max":432,"o":"m 303 1083 l 432 1083 l 432 1064 l 344 786 l 261 786 l 303 1083 z "},"΅":{"ha":694,"x_min":60,"x_max":633,"o":"m 318 1083 l 447 1083 l 447 1064 l 344 786 l 264 786 l 318 1083 m 136 861 q 83 883 107 861 q 60 935 60 906 q 83 988 60 965 q 136 1010 107 1010 q 190 988 168 1010 q 213 935 213 967 q 190 883 213 904 q 136 861 168 861 m 557 861 q 541 861 557 861 q 503 883 525 861 q 481 935 481 904 q 503 988 481 965 q 557 1010 525 1010 q 611 988 589 1010 q 633 935 633 965 q 611 883 633 904 q 557 861 589 861 z "},"Ά":{"ha":921,"x_min":43,"x_max":878,"o":"m 685 186 l 235 186 l 157 0 l 43 0 l 440 932 l 481 932 l 878 0 l 763 0 l 685 186 m 460 735 l 276 283 l 643 283 l 460 735 m 68 917 l 183 917 l 129 624 l 50 624 l 68 917 z "},"·":{"ha":389,"x_min":107,"x_max":282,"o":"m 194 349 q 176 349 194 349 q 133 374 158 349 q 107 436 107 399 q 133 499 107 474 q 194 524 158 524 q 256 499 231 524 q 282 436 282 474 q 256 374 282 399 q 194 349 231 349 z "},"Έ":{"ha":786,"x_min":-133,"x_max":731,"o":"m 126 917 l 714 917 l 714 819 l 235 819 l 235 539 l 601 539 l 601 442 l 235 442 l 235 97 l 731 97 l 731 0 l 126 0 l 126 917 m -115 917 l 0 917 l -54 624 l -133 624 l -115 917 z "},"Ή":{"ha":983,"x_min":-133,"x_max":857,"o":"m 126 917 l 235 917 l 235 539 l 749 539 l 749 917 l 857 917 l 857 0 l 749 0 l 749 442 l 235 442 l 235 0 l 126 0 l 126 917 m -115 917 l 0 917 l -54 624 l -133 624 l -115 917 z "},"Ί":{"ha":360,"x_min":-133,"x_max":235,"o":"m 126 917 l 235 917 l 235 0 l 126 0 l 126 917 m -115 917 l 0 917 l -54 624 l -133 624 l -115 917 z "},"Ό":{"ha":1085,"x_min":-67,"x_max":1018,"o":"m 542 -15 q 302 47 411 -15 q 130 219 193 110 q 67 458 67 328 q 130 699 67 590 q 302 869 193 807 q 542 932 411 932 q 781 869 671 932 q 954 699 890 807 q 1018 458 1018 590 q 954 218 1018 326 q 781 47 890 110 q 542 -15 671 -15 m 543 85 q 728 134 644 85 q 858 269 811 183 q 906 460 906 354 q 858 649 906 564 q 728 783 811 735 q 543 832 644 832 q 357 783 440 832 q 226 650 274 735 q 179 460 179 565 q 226 269 179 354 q 357 134 274 183 q 543 85 440 85 m -49 917 l 67 917 l 13 624 l -67 624 l -49 917 z "},"Ύ":{"ha":856,"x_min":-162,"x_max":800,"o":"m 482 379 l 482 0 l 374 0 l 374 379 l 56 917 l 178 917 l 428 486 l 679 917 l 800 917 l 482 379 m -144 917 l -29 917 l -83 624 l -162 624 l -144 917 z "},"Ώ":{"ha":1099,"x_min":-67,"x_max":1025,"o":"m 1025 476 q 969 269 1025 361 q 800 97 914 176 l 1011 97 l 1011 0 l 638 0 l 638 97 q 843 256 774 161 q 913 472 913 350 q 865 657 913 575 q 735 785 818 739 q 549 832 653 832 q 362 786 444 832 q 233 658 279 740 q 186 474 186 576 q 256 257 186 351 q 461 97 325 163 l 461 0 l 88 0 l 88 97 l 296 97 q 74 476 74 246 q 136 708 74 604 q 307 872 199 813 q 549 932 415 932 q 790 872 681 932 q 962 707 899 811 q 1025 476 1025 603 m -49 917 l 67 917 l 13 624 l -67 624 l -49 917 z "},"ΐ":{"ha":432,"x_min":-110,"x_max":464,"o":"m 313 -15 q 164 39 214 -15 q 114 199 114 93 l 114 676 l 221 676 l 221 211 q 248 113 221 143 q 335 82 275 82 q 425 90 374 82 l 425 0 q 313 -15 361 -15 m 149 1083 l 278 1083 l 278 1064 l 175 786 l 94 786 l 149 1083 m -33 861 q -86 883 -62 861 q -110 935 -110 906 q -86 988 -110 965 q -33 1010 -62 1010 q 21 988 -1 1010 q 43 935 43 967 q 21 883 43 904 q -33 861 -1 861 m 388 861 q 372 861 388 861 q 333 883 356 861 q 311 935 311 904 q 333 988 311 965 q 388 1010 356 1010 q 442 988 419 1010 q 464 935 464 965 q 442 883 464 904 q 388 861 419 861 z "},"Α":{"ha":921,"x_min":43,"x_max":878,"o":"m 685 186 l 235 186 l 157 0 l 43 0 l 440 932 l 481 932 l 878 0 l 763 0 l 685 186 m 460 735 l 276 283 l 643 283 l 460 735 z "},"Β":{"ha":856,"x_min":126,"x_max":794,"o":"m 615 504 q 747 416 700 479 q 794 264 794 353 q 760 128 794 188 q 659 34 725 68 q 504 0 593 0 l 126 0 l 126 917 l 442 917 q 632 851 561 917 q 703 685 703 786 q 680 582 703 628 q 615 504 657 536 m 235 819 l 235 535 l 431 535 q 550 574 508 535 q 592 678 592 613 q 551 781 592 743 q 431 819 510 819 l 235 819 m 493 97 q 633 144 583 97 q 683 267 683 190 q 633 390 683 343 q 493 436 583 436 l 235 436 l 235 97 l 493 97 z "},"Γ":{"ha":703,"x_min":126,"x_max":669,"o":"m 126 917 l 669 917 l 669 819 l 235 819 l 235 0 l 126 0 l 126 917 z "},"Δ":{"ha":921,"x_min":56,"x_max":865,"o":"m 865 32 l 865 0 l 56 0 l 56 32 l 440 932 l 481 932 l 865 32 m 460 718 l 199 97 l 722 97 l 460 718 z "},"Ε":{"ha":786,"x_min":126,"x_max":731,"o":"m 126 917 l 714 917 l 714 819 l 235 819 l 235 539 l 601 539 l 601 442 l 235 442 l 235 97 l 731 97 l 731 0 l 126 0 l 126 917 z "},"Ζ":{"ha":818,"x_min":44,"x_max":771,"o":"m 771 97 l 771 0 l 44 0 l 44 32 l 597 819 l 104 819 l 104 917 l 769 917 l 769 885 l 214 97 l 771 97 z "},"Η":{"ha":983,"x_min":126,"x_max":857,"o":"m 126 917 l 235 917 l 235 539 l 749 539 l 749 917 l 857 917 l 857 0 l 749 0 l 749 442 l 235 442 l 235 0 l 126 0 l 126 917 z "},"Θ":{"ha":1085,"x_min":67,"x_max":1018,"o":"m 542 -15 q 302 47 411 -15 q 130 219 193 110 q 67 458 67 328 q 130 699 67 590 q 302 869 193 807 q 542 932 411 932 q 781 869 671 932 q 954 699 890 807 q 1018 458 1018 590 q 954 218 1018 326 q 781 47 890 110 q 542 -15 671 -15 m 542 81 q 594 81 542 81 q 731 130 646 81 q 863 266 815 179 q 911 458 911 353 q 863 651 911 564 q 731 787 815 738 q 542 836 646 836 q 354 787 438 836 q 223 651 271 738 q 175 458 175 565 q 223 265 175 351 q 354 130 271 179 q 542 81 438 81 m 322 504 l 763 504 l 763 407 l 322 407 l 322 504 z "},"Ι":{"ha":360,"x_min":126,"x_max":235,"o":"m 126 917 l 235 917 l 235 0 l 126 0 l 126 917 z "},"Κ":{"ha":879,"x_min":126,"x_max":836,"o":"m 126 917 l 235 917 l 235 0 l 126 0 l 126 917 m 836 0 l 699 0 l 247 492 l 660 917 l 799 917 l 389 492 l 836 0 z "},"Λ":{"ha":921,"x_min":43,"x_max":878,"o":"m 763 0 l 460 719 l 157 0 l 43 0 l 440 932 l 481 932 l 878 0 l 763 0 z "},"Μ":{"ha":1096,"x_min":126,"x_max":969,"o":"m 969 932 l 969 0 l 861 0 l 861 657 l 568 260 l 529 260 l 235 660 l 235 0 l 126 0 l 126 932 l 165 932 l 547 403 l 932 932 l 969 932 z "},"Ν":{"ha":983,"x_min":126,"x_max":857,"o":"m 857 917 l 857 -15 l 818 -15 l 235 688 l 235 0 l 126 0 l 126 932 l 165 932 l 749 228 l 749 917 l 857 917 z "},"Ξ":{"ha":854,"x_min":56,"x_max":799,"o":"m 56 917 l 799 917 l 799 819 l 56 819 l 56 917 m 150 511 l 707 511 l 707 414 l 150 414 l 150 511 m 56 97 l 799 97 l 799 0 l 56 0 l 56 97 z "},"Ο":{"ha":1085,"x_min":67,"x_max":1018,"o":"m 542 -15 q 302 47 411 -15 q 130 219 193 110 q 67 458 67 328 q 130 699 67 590 q 302 869 193 807 q 542 932 411 932 q 781 869 671 932 q 954 699 890 807 q 1018 458 1018 590 q 954 218 1018 326 q 781 47 890 110 q 542 -15 671 -15 m 543 85 q 728 134 644 85 q 858 269 811 183 q 906 460 906 354 q 858 649 906 564 q 728 783 811 735 q 543 832 644 832 q 357 783 440 832 q 226 650 274 735 q 179 460 179 565 q 226 269 179 354 q 357 134 274 183 q 543 85 440 85 z "},"Π":{"ha":947,"x_min":126,"x_max":821,"o":"m 126 917 l 821 917 l 821 0 l 713 0 l 713 819 l 235 819 l 235 0 l 126 0 l 126 917 z "},"Ρ":{"ha":796,"x_min":126,"x_max":742,"o":"m 126 917 l 449 917 q 603 883 538 917 q 706 788 669 849 q 742 651 742 728 q 706 513 742 574 q 603 417 669 451 q 449 383 538 383 l 235 383 l 235 0 l 126 0 l 126 917 m 446 481 q 581 527 533 481 q 629 650 629 574 q 581 772 629 725 q 446 819 533 819 l 235 819 l 235 481 l 446 481 z "},"Σ":{"ha":797,"x_min":90,"x_max":742,"o":"m 742 97 l 742 0 l 90 0 l 90 32 l 418 469 l 90 885 l 90 917 l 725 917 l 725 819 l 263 819 l 529 482 l 529 460 l 258 97 l 742 97 z "},"Τ":{"ha":807,"x_min":26,"x_max":781,"o":"m 349 819 l 26 819 l 26 917 l 781 917 l 781 819 l 457 819 l 457 0 l 349 0 l 349 819 z "},"Υ":{"ha":856,"x_min":56,"x_max":800,"o":"m 482 379 l 482 0 l 374 0 l 374 379 l 56 917 l 178 917 l 428 486 l 679 917 l 800 917 l 482 379 z "},"Φ":{"ha":1110,"x_min":67,"x_max":1043,"o":"m 1043 460 q 987 238 1043 336 q 831 83 931 139 q 608 26 732 26 l 608 -58 l 500 -58 l 500 26 q 278 83 376 26 q 123 238 179 139 q 67 460 67 336 q 122 680 67 582 q 277 834 178 778 q 500 890 376 890 l 500 974 l 608 974 l 608 890 q 832 834 733 890 q 987 680 931 778 q 1043 460 1043 582 m 179 457 q 179 408 179 457 q 220 284 179 360 q 334 166 261 208 q 500 124 407 124 l 500 792 q 334 749 407 792 q 220 630 261 706 q 179 457 179 554 m 608 124 q 774 167 701 124 q 889 285 847 210 q 931 457 931 361 q 889 630 931 554 q 774 749 847 706 q 608 792 701 792 l 608 124 z "},"Χ":{"ha":832,"x_min":42,"x_max":790,"o":"m 664 0 l 417 376 l 168 0 l 42 0 l 357 469 l 64 917 l 189 917 l 417 560 l 643 917 l 768 917 l 479 468 l 790 0 l 664 0 z "},"Ψ":{"ha":1056,"x_min":89,"x_max":967,"o":"m 474 211 q 191 342 293 233 q 89 635 89 450 l 89 917 l 197 917 l 197 629 q 273 407 197 493 q 474 313 349 321 l 474 917 l 582 917 l 582 313 q 783 407 707 321 q 858 629 858 493 l 858 917 l 967 917 l 967 635 q 865 342 967 450 q 582 211 763 233 l 582 0 l 474 0 l 474 211 z "},"Ω":{"ha":1099,"x_min":74,"x_max":1025,"o":"m 1025 476 q 969 269 1025 361 q 800 97 914 176 l 1011 97 l 1011 0 l 638 0 l 638 97 q 843 256 774 161 q 913 472 913 350 q 865 657 913 575 q 735 785 818 739 q 549 832 653 832 q 362 786 444 832 q 233 658 279 740 q 186 474 186 576 q 256 257 186 351 q 461 97 325 163 l 461 0 l 88 0 l 88 97 l 296 97 q 74 476 74 246 q 136 708 74 604 q 307 872 199 813 q 549 932 415 932 q 790 872 681 932 q 962 707 899 811 q 1025 476 1025 603 z "},"Ϊ":{"ha":360,"x_min":-57,"x_max":419,"o":"m 126 917 l 235 917 l 235 0 l 126 0 l 126 917 m 19 1051 q -34 1073 -11 1051 q -57 1125 -57 1094 q -34 1177 -57 1156 q 19 1199 -11 1199 q 74 1177 51 1199 q 96 1125 96 1156 q 74 1073 96 1094 q 19 1051 51 1051 m 343 1050 q 290 1072 313 1050 q 267 1124 267 1093 q 290 1176 267 1154 q 343 1199 313 1199 q 397 1176 375 1199 q 419 1124 419 1154 q 397 1072 419 1093 q 343 1050 375 1050 z "},"Ϋ":{"ha":856,"x_min":56,"x_max":800,"o":"m 482 379 l 482 0 l 374 0 l 374 379 l 56 917 l 178 917 l 428 486 l 679 917 l 800 917 l 482 379 m 265 1051 q 212 1073 235 1051 q 189 1125 189 1094 q 212 1177 189 1156 q 265 1199 235 1199 q 319 1177 297 1199 q 342 1125 342 1156 q 319 1073 342 1094 q 265 1051 297 1051 m 589 1050 q 535 1072 558 1050 q 513 1124 513 1093 q 535 1176 513 1154 q 589 1199 558 1199 q 643 1176 621 1199 q 665 1124 665 1154 q 643 1072 665 1093 q 589 1050 621 1050 z "},"ά":{"ha":894,"x_min":69,"x_max":865,"o":"m 865 90 l 865 0 q 792 -10 824 -10 q 650 108 674 -10 q 544 17 611 50 q 399 -15 478 -15 q 230 31 306 -15 q 112 159 154 78 q 69 339 69 240 q 112 518 69 438 q 229 645 154 599 q 399 692 304 692 q 548 656 479 692 q 656 560 617 621 q 663 676 657 589 l 764 676 q 750 354 750 467 l 750 185 q 824 86 750 86 q 865 90 836 86 m 413 83 q 526 112 474 83 q 612 198 579 140 q 644 338 644 256 q 613 477 644 419 q 528 564 581 535 q 413 593 475 593 q 292 560 346 593 q 209 469 239 526 q 179 339 179 411 q 209 208 179 267 q 292 117 239 150 q 413 83 346 83 m 392 1083 l 521 1083 l 521 1064 l 433 786 l 350 786 l 392 1083 z "},"έ":{"ha":706,"x_min":71,"x_max":642,"o":"m 642 115 q 351 -15 547 -15 q 71 176 71 -15 q 105 286 71 242 q 201 347 139 331 q 127 408 153 368 q 101 503 101 449 q 168 642 101 592 q 357 692 235 692 q 519 662 450 692 q 631 574 589 632 l 558 510 q 476 573 522 553 q 364 593 431 593 q 211 485 211 593 q 344 388 211 388 l 485 388 l 485 293 l 347 293 q 219 269 258 293 q 181 193 181 244 q 219 109 181 135 q 351 83 257 83 q 479 106 429 83 q 569 179 529 128 l 642 115 m 343 1083 l 472 1083 l 472 1064 l 385 786 l 301 786 l 343 1083 z "},"ή":{"ha":814,"x_min":29,"x_max":706,"o":"m 453 692 q 637 619 568 692 q 706 425 706 547 l 706 -250 l 599 -250 l 599 411 q 552 543 599 493 q 431 593 506 593 q 301 542 351 593 q 251 411 251 490 l 251 0 l 146 0 l 146 492 q 69 588 146 588 l 29 586 l 29 676 q 104 686 68 686 q 236 596 206 686 q 330 667 274 642 q 453 692 386 692 m 415 1083 l 544 1083 l 544 1064 l 457 786 l 374 786 l 415 1083 z "},"ί":{"ha":432,"x_min":113,"x_max":425,"o":"m 313 -15 q 164 39 214 -15 q 114 199 114 93 l 114 676 l 221 676 l 221 211 q 248 113 221 143 q 335 82 275 82 q 425 90 374 82 l 425 0 q 313 -15 361 -15 m 154 1083 l 283 1083 l 283 1064 l 196 786 l 113 786 l 154 1083 z "},"ΰ":{"ha":788,"x_min":108,"x_max":682,"o":"m 394 -15 q 187 65 264 -15 q 110 278 110 144 l 110 676 l 217 676 l 217 272 q 265 134 217 186 q 394 82 314 82 q 523 135 474 82 q 572 272 572 188 l 572 676 l 679 676 l 679 278 q 601 65 679 144 q 394 -15 524 -15 m 367 1083 l 496 1083 l 496 1064 l 393 786 l 313 786 l 367 1083 m 185 861 q 132 883 156 861 q 108 935 108 906 q 132 988 108 965 q 185 1010 156 1010 q 239 988 217 1010 q 261 935 261 967 q 239 883 261 904 q 185 861 217 861 m 606 861 q 590 861 606 861 q 551 883 574 861 q 529 935 529 904 q 551 988 529 965 q 606 1010 574 1010 q 660 988 638 1010 q 682 935 682 965 q 660 883 682 904 q 606 861 638 861 z "},"α":{"ha":894,"x_min":69,"x_max":865,"o":"m 865 90 l 865 0 q 792 -10 824 -10 q 650 108 674 -10 q 544 17 611 50 q 399 -15 478 -15 q 230 31 306 -15 q 112 159 154 78 q 69 339 69 240 q 112 518 69 438 q 229 645 154 599 q 399 692 304 692 q 548 656 479 692 q 656 560 617 621 q 663 676 657 589 l 764 676 q 750 354 750 467 l 750 185 q 824 86 750 86 q 865 90 836 86 m 413 83 q 526 112 474 83 q 612 198 579 140 q 644 338 644 256 q 613 477 644 419 q 528 564 581 535 q 413 593 475 593 q 292 560 346 593 q 209 469 239 526 q 179 339 179 411 q 209 208 179 267 q 292 117 239 150 q 413 83 346 83 z "},"β":{"ha":847,"x_min":118,"x_max":778,"o":"m 572 585 q 723 478 668 554 q 778 299 778 403 q 736 137 778 208 q 621 25 694 65 q 454 -15 547 -15 q 331 6 390 -15 q 225 68 272 28 l 225 -250 l 118 -250 l 118 769 q 156 919 118 853 q 263 1023 194 986 q 418 1060 331 1060 q 563 1027 499 1060 q 662 936 626 994 q 697 803 697 878 q 665 673 697 729 q 572 585 632 617 m 443 83 q 606 144 543 83 q 668 301 668 204 q 604 460 668 400 q 436 521 540 521 l 350 521 l 350 615 l 415 615 q 541 663 494 615 q 588 793 588 711 q 539 914 588 867 q 415 961 490 961 q 278 906 331 961 q 225 764 225 850 l 225 182 q 323 109 267 135 q 443 83 379 83 z "},"γ":{"ha":774,"x_min":36,"x_max":738,"o":"m 440 -26 l 440 -250 l 335 -250 l 335 -26 l 36 676 l 150 676 l 388 113 l 624 676 l 738 676 l 440 -26 z "},"δ":{"ha":828,"x_min":69,"x_max":758,"o":"m 601 635 q 722 478 686 547 q 758 329 758 408 q 713 156 758 235 q 587 31 667 76 q 413 -15 507 -15 q 239 31 318 -15 q 115 156 160 76 q 69 329 69 235 q 115 500 69 422 q 238 622 160 578 q 410 667 315 667 l 424 667 l 85 1010 l 85 1042 l 703 1042 l 703 940 l 300 940 l 601 635 m 414 83 q 583 150 518 83 q 649 324 649 217 q 618 451 649 394 q 533 539 588 507 q 410 571 478 571 q 243 503 307 571 q 179 326 179 435 q 244 150 179 217 q 414 83 308 83 z "},"ε":{"ha":706,"x_min":71,"x_max":642,"o":"m 642 115 q 351 -15 547 -15 q 71 176 71 -15 q 105 286 71 242 q 201 347 139 331 q 127 408 153 368 q 101 503 101 449 q 168 642 101 592 q 357 692 235 692 q 519 662 450 692 q 631 574 589 632 l 558 510 q 476 573 522 553 q 364 593 431 593 q 211 485 211 593 q 344 388 211 388 l 485 388 l 485 293 l 347 293 q 219 269 258 293 q 181 193 181 244 q 219 109 181 135 q 351 83 257 83 q 479 106 429 83 q 569 179 529 128 l 642 115 z "},"ζ":{"ha":632,"x_min":69,"x_max":632,"o":"m 356 615 q 217 403 256 474 q 178 275 178 332 q 223 160 178 203 q 367 96 268 118 l 421 85 q 555 14 510 67 q 600 -117 600 -39 q 567 -250 600 -185 l 460 -250 q 492 -135 492 -192 q 460 -47 492 -78 q 363 -4 428 -17 l 307 7 q 130 99 190 31 q 69 268 69 168 q 90 372 69 319 q 151 490 110 425 q 274 672 192 556 l 463 942 l 74 942 l 74 1042 l 632 1042 l 632 1010 l 356 615 z "},"η":{"ha":814,"x_min":29,"x_max":706,"o":"m 453 692 q 637 619 568 692 q 706 425 706 547 l 706 -250 l 599 -250 l 599 411 q 552 543 599 493 q 431 593 506 593 q 301 542 351 593 q 251 411 251 490 l 251 0 l 146 0 l 146 492 q 69 588 146 588 l 29 586 l 29 676 q 104 686 68 686 q 236 596 206 686 q 330 667 274 642 q 453 692 386 692 z "},"θ":{"ha":857,"x_min":71,"x_max":788,"o":"m 429 1057 q 513 1057 429 1057 q 692 920 596 1057 q 788 522 788 783 q 692 123 788 261 q 429 -15 596 -15 q 167 123 263 -15 q 71 522 71 261 q 167 920 71 783 q 429 1057 263 1057 m 429 958 q 256 862 321 958 q 182 576 190 765 l 676 576 q 602 862 668 765 q 429 958 536 958 m 429 82 q 603 182 536 82 q 676 475 669 282 l 182 475 q 255 182 189 282 q 429 82 321 82 z "},"ι":{"ha":432,"x_min":114,"x_max":425,"o":"m 313 -15 q 164 39 214 -15 q 114 199 114 93 l 114 676 l 221 676 l 221 211 q 248 113 221 143 q 335 82 275 82 q 425 90 374 82 l 425 0 q 313 -15 361 -15 z "},"κ":{"ha":706,"x_min":118,"x_max":688,"o":"m 118 676 l 225 676 l 225 0 l 118 0 l 118 676 m 688 0 l 553 0 l 239 367 l 531 676 l 668 676 l 372 368 l 688 0 z "},"λ":{"ha":761,"x_min":24,"x_max":743,"o":"m 743 89 l 743 0 q 689 -8 717 -8 q 606 19 638 -8 q 551 111 574 47 l 382 568 l 138 0 l 24 0 l 332 694 l 281 842 q 228 933 257 906 q 150 960 199 960 q 83 956 125 960 l 83 1046 q 168 1057 121 1057 q 290 1015 242 1057 q 374 879 338 974 l 642 157 q 672 105 656 121 q 713 89 689 89 l 743 89 z "},"μ":{"ha":822,"x_min":118,"x_max":793,"o":"m 793 90 l 793 0 q 721 -10 751 -10 q 590 72 624 -10 q 510 8 558 31 q 404 -15 463 -15 q 303 6 349 -15 q 225 64 257 26 l 225 -250 l 118 -250 l 118 676 l 225 676 l 225 272 q 273 137 225 190 q 397 83 321 83 q 522 137 474 83 q 571 272 571 190 l 571 676 l 678 676 l 678 189 q 696 111 678 136 q 753 86 714 86 q 793 90 767 86 z "},"ν":{"ha":749,"x_min":36,"x_max":713,"o":"m 713 676 l 394 -15 l 356 -15 l 36 676 l 150 676 l 375 167 l 599 676 l 713 676 z "},"ξ":{"ha":654,"x_min":82,"x_max":626,"o":"m 421 942 q 283 889 332 942 q 235 764 235 836 q 281 640 235 693 q 404 586 326 586 l 569 586 l 569 489 l 404 489 q 250 435 308 489 q 192 290 192 382 q 241 161 192 210 q 393 92 290 113 l 450 81 q 583 15 539 63 q 626 -117 626 -33 q 593 -250 626 -186 l 488 -250 q 518 -136 518 -185 q 489 -49 518 -79 q 393 -8 460 -18 l 333 1 q 149 94 215 19 q 82 278 82 168 q 130 441 82 372 q 264 542 178 510 q 163 626 197 572 q 128 744 128 681 q 151 856 128 804 q 221 942 175 907 l 90 942 l 90 1042 l 626 1042 l 626 942 l 421 942 z "},"ο":{"ha":847,"x_min":69,"x_max":778,"o":"m 422 -14 q 374 -14 422 -14 q 244 33 325 -14 q 117 162 164 81 q 69 339 69 243 q 117 517 69 436 q 245 645 164 599 q 424 692 326 692 q 602 644 521 692 q 731 517 683 597 q 778 339 778 436 q 731 162 778 243 q 601 33 683 81 q 422 -14 519 -14 m 422 85 q 456 85 422 85 q 547 118 490 85 q 635 209 603 151 q 668 338 668 267 q 636 468 668 410 q 548 560 604 526 q 424 593 492 593 q 299 560 354 593 q 211 468 243 526 q 179 338 179 410 q 211 209 179 267 q 299 118 243 151 q 422 85 354 85 z "},"π":{"ha":822,"x_min":32,"x_max":789,"o":"m 142 575 l 32 575 l 32 676 l 789 676 l 789 575 l 681 575 l 681 0 l 575 0 l 575 575 l 249 575 l 249 0 l 142 0 l 142 575 z "},"ρ":{"ha":863,"x_min":110,"x_max":793,"o":"m 446 692 q 496 692 446 692 q 625 647 546 692 q 749 521 704 601 q 793 339 793 440 q 750 158 793 239 q 631 31 707 78 q 463 -15 556 -15 q 321 15 386 -15 q 215 99 256 46 l 215 -250 l 110 -250 l 110 335 q 151 521 110 440 q 269 647 193 601 q 446 692 346 692 m 446 83 q 568 117 514 83 q 653 208 622 150 q 683 338 683 265 q 653 468 683 410 q 567 560 622 526 q 444 593 513 593 q 276 523 339 593 q 214 336 214 453 q 278 153 214 224 q 446 83 343 83 z "},"ς":{"ha":731,"x_min":69,"x_max":694,"o":"m 489 -250 q 518 -136 518 -189 q 491 -55 518 -83 q 401 -10 464 -26 l 331 8 q 135 128 201 42 q 69 339 69 214 q 113 521 69 440 q 233 647 156 601 q 408 692 310 692 q 574 653 500 692 q 694 540 647 614 l 618 479 q 411 593 533 593 q 292 560 344 593 q 209 471 239 528 q 179 343 179 414 q 388 97 179 150 l 460 79 q 628 -117 628 38 q 594 -250 628 -183 l 489 -250 z "},"σ":{"ha":881,"x_min":69,"x_max":861,"o":"m 861 575 l 657 575 q 739 467 710 531 q 768 329 768 403 q 722 154 768 233 q 596 30 676 75 q 418 -15 515 -15 q 241 31 321 -15 q 115 157 161 76 q 69 336 69 238 q 115 511 69 433 q 242 633 161 589 q 424 676 322 676 l 861 676 l 861 575 m 418 83 q 452 83 418 83 q 541 117 486 83 q 627 208 596 150 q 658 338 658 267 q 628 463 658 407 q 543 549 597 518 q 419 579 489 579 q 295 548 350 579 q 210 462 240 517 q 179 336 179 407 q 210 208 179 265 q 296 117 242 150 q 418 83 350 83 z "},"τ":{"ha":664,"x_min":24,"x_max":622,"o":"m 358 575 l 358 211 q 392 114 358 146 q 497 82 426 82 q 590 90 539 82 l 590 0 q 479 -15 529 -15 q 311 42 369 -15 q 253 204 253 99 l 253 575 l 24 575 l 24 676 l 622 676 l 622 575 l 358 575 z "},"υ":{"ha":788,"x_min":110,"x_max":679,"o":"m 394 -15 q 187 65 264 -15 q 110 278 110 144 l 110 676 l 217 676 l 217 272 q 265 134 217 186 q 394 82 314 82 q 523 135 474 82 q 572 272 572 188 l 572 676 l 679 676 l 679 278 q 601 65 679 144 q 394 -15 524 -15 z "},"φ":{"ha":1038,"x_min":69,"x_max":968,"o":"m 968 338 q 968 287 968 338 q 915 158 968 236 q 772 35 863 79 q 571 -15 682 -10 l 571 -250 l 464 -250 l 464 -14 q 263 35 353 -8 q 122 158 174 79 q 69 338 69 236 q 122 517 69 439 q 263 638 174 594 q 464 688 353 682 l 464 917 l 571 917 l 571 689 q 772 639 682 683 q 915 517 863 594 q 968 338 968 439 m 568 79 q 779 153 696 86 q 863 336 863 221 q 779 519 863 451 q 568 594 696 588 l 568 79 m 176 336 q 258 153 176 221 q 467 79 340 86 l 467 594 q 258 519 340 588 q 176 336 176 450 z "},"χ":{"ha":678,"x_min":7,"x_max":669,"o":"m 669 -161 l 669 -250 q 606 -258 638 -258 q 519 -233 554 -258 q 458 -149 485 -207 l 329 124 l 153 -250 l 35 -250 l 268 228 l 135 524 q 102 572 119 556 q 50 588 85 588 q 7 586 24 588 l 7 676 q 75 685 40 685 q 164 658 133 685 q 221 574 194 632 l 332 324 l 503 676 l 619 676 l 390 219 l 542 -99 q 578 -150 561 -137 q 631 -162 596 -162 q 669 -161 657 -162 z "},"ψ":{"ha":1026,"x_min":110,"x_max":918,"o":"m 460 -15 q 278 30 357 -15 q 154 156 199 75 q 110 339 110 236 l 110 676 l 215 676 l 215 347 q 247 212 215 272 q 335 117 279 151 q 460 82 392 82 l 460 917 l 567 917 l 567 82 q 691 117 635 82 q 780 212 747 151 q 813 347 813 272 l 813 676 l 918 676 l 918 339 q 874 156 918 236 q 749 30 829 75 q 567 -15 669 -15 l 567 -250 l 460 -250 l 460 -15 z "},"ω":{"ha":1089,"x_min":69,"x_max":1019,"o":"m 785 685 q 959 551 899 644 q 1019 324 1019 458 q 945 76 1019 168 q 743 -15 871 -15 q 623 14 674 -15 q 544 99 572 43 q 467 14 518 43 q 346 -15 415 -15 q 144 76 218 -15 q 69 324 69 168 q 130 551 69 458 q 304 685 190 644 l 343 590 q 178 322 178 511 q 224 148 178 213 q 349 83 271 83 q 456 131 417 83 q 494 258 494 178 l 494 450 l 596 450 l 596 258 q 634 130 596 176 q 740 83 672 83 q 865 147 818 83 q 911 321 911 211 q 871 485 911 418 q 747 590 831 551 l 785 685 z "},"ϊ":{"ha":432,"x_min":-36,"x_max":425,"o":"m 313 -15 q 164 39 214 -15 q 114 199 114 93 l 114 676 l 221 676 l 221 211 q 248 113 221 143 q 335 82 275 82 q 425 90 374 82 l 425 0 q 313 -15 361 -15 m 40 861 q -13 883 10 861 q -36 935 -36 904 q -13 988 -36 965 q 40 1010 10 1010 q 95 988 72 1010 q 118 935 118 965 q 95 883 118 904 q 40 861 72 861 m 294 861 q 240 883 264 861 q 217 935 217 906 q 240 988 217 965 q 294 1010 264 1010 q 349 988 326 1010 q 371 935 371 965 q 349 883 371 904 q 294 861 326 861 z "},"ϋ":{"ha":788,"x_min":110,"x_max":679,"o":"m 394 -15 q 187 65 264 -15 q 110 278 110 144 l 110 676 l 217 676 l 217 272 q 265 134 217 186 q 394 82 314 82 q 523 135 474 82 q 572 272 572 188 l 572 676 l 679 676 l 679 278 q 601 65 679 144 q 394 -15 524 -15 m 236 861 q 183 883 207 861 q 160 935 160 906 q 183 988 160 965 q 236 1010 207 1010 q 291 988 268 1010 q 314 935 314 965 q 291 883 314 904 q 236 861 268 861 m 532 861 q 478 883 501 861 q 454 935 454 906 q 478 988 454 965 q 532 1010 501 1010 q 586 988 564 1010 q 608 935 608 965 q 586 883 608 904 q 532 861 564 861 z "},"ό":{"ha":847,"x_min":69,"x_max":778,"o":"m 422 -14 q 374 -14 422 -14 q 244 33 325 -14 q 117 162 164 81 q 69 339 69 243 q 117 517 69 436 q 245 645 164 599 q 424 692 326 692 q 602 644 521 692 q 731 517 683 597 q 778 339 778 436 q 731 162 778 243 q 601 33 683 81 q 422 -14 519 -14 m 422 85 q 456 85 422 85 q 547 118 490 85 q 635 209 603 151 q 668 338 668 267 q 636 468 668 410 q 548 560 604 526 q 424 593 492 593 q 299 560 354 593 q 211 468 243 526 q 179 338 179 410 q 211 209 179 267 q 299 118 243 151 q 422 85 354 85 m 410 1083 l 539 1083 l 539 1064 l 451 786 l 368 786 l 410 1083 z "},"ύ":{"ha":788,"x_min":110,"x_max":679,"o":"m 394 -15 q 187 65 264 -15 q 110 278 110 144 l 110 676 l 217 676 l 217 272 q 265 134 217 186 q 394 82 314 82 q 523 135 474 82 q 572 272 572 188 l 572 676 l 679 676 l 679 278 q 601 65 679 144 q 394 -15 524 -15 m 371 1083 l 500 1083 l 500 1064 l 413 786 l 329 786 l 371 1083 z "},"ώ":{"ha":1089,"x_min":69,"x_max":1019,"o":"m 785 685 q 959 551 899 644 q 1019 324 1019 458 q 945 76 1019 168 q 743 -15 871 -15 q 623 14 674 -15 q 544 99 572 43 q 467 14 518 43 q 346 -15 415 -15 q 144 76 218 -15 q 69 324 69 168 q 130 551 69 458 q 304 685 190 644 l 343 590 q 178 322 178 511 q 224 148 178 213 q 349 83 271 83 q 456 131 417 83 q 494 258 494 178 l 494 450 l 596 450 l 596 258 q 634 130 596 176 q 740 83 672 83 q 865 147 818 83 q 911 321 911 211 q 871 485 911 418 q 747 590 831 551 l 785 685 m 532 1083 l 661 1083 l 661 1064 l 574 786 l 490 786 l 532 1083 z "},"Ѐ":{"ha":786,"x_min":126,"x_max":731,"o":"m 126 917 l 714 917 l 714 819 l 235 819 l 235 539 l 601 539 l 601 442 l 235 442 l 235 97 l 731 97 l 731 0 l 126 0 l 126 917 m 214 1244 l 214 1264 l 344 1264 l 463 1006 l 381 1006 l 214 1244 z "},"Ё":{"ha":786,"x_min":126,"x_max":731,"o":"m 126 917 l 714 917 l 714 819 l 235 819 l 235 539 l 601 539 l 601 442 l 235 442 l 235 97 l 731 97 l 731 0 l 126 0 l 126 917 m 258 1051 q 205 1073 228 1051 q 182 1125 182 1094 q 205 1177 182 1156 q 258 1199 228 1199 q 313 1177 290 1199 q 335 1125 335 1156 q 313 1073 335 1094 q 258 1051 290 1051 m 582 1050 q 528 1072 551 1050 q 506 1124 506 1093 q 528 1176 506 1154 q 582 1199 551 1199 q 636 1176 614 1199 q 658 1124 658 1154 q 636 1072 658 1093 q 582 1050 614 1050 z "},"Ђ":{"ha":1017,"x_min":26,"x_max":947,"o":"m 626 82 q 835 276 835 110 q 776 408 835 363 q 622 453 718 453 q 417 418 508 453 l 417 0 l 308 0 l 308 819 l 26 819 l 26 917 l 753 917 l 753 819 l 417 819 l 417 517 q 626 550 513 550 q 859 478 771 550 q 947 275 947 406 q 862 72 947 143 q 646 -15 776 0 l 626 82 z "},"Ѓ":{"ha":703,"x_min":126,"x_max":669,"o":"m 126 917 l 669 917 l 669 819 l 235 819 l 235 0 l 126 0 l 126 917 m 443 1264 l 574 1264 l 574 1244 l 407 1006 l 325 1006 l 443 1264 z "},"Є":{"ha":993,"x_min":67,"x_max":924,"o":"m 544 85 q 715 127 639 85 q 843 246 790 169 l 924 182 q 766 38 867 92 q 543 -15 665 -15 q 303 47 413 -15 q 130 218 193 110 q 67 458 67 326 q 130 699 67 590 q 303 869 193 807 q 543 932 413 932 q 765 878 665 932 q 924 735 865 825 l 843 671 q 715 790 790 747 q 544 832 639 832 q 374 792 451 832 q 246 679 296 751 q 183 515 196 607 l 624 515 l 624 418 l 181 418 q 240 247 190 322 q 369 128 290 171 q 544 85 449 85 z "},"Ѕ":{"ha":775,"x_min":57,"x_max":690,"o":"m 394 -15 q 199 38 288 -15 q 57 182 111 90 l 138 242 q 393 85 240 85 q 526 126 475 85 q 578 238 578 168 q 560 306 578 278 q 510 353 542 333 q 425 399 479 372 l 322 447 q 172 547 228 492 q 115 693 115 601 q 153 818 115 764 q 253 902 190 872 q 392 932 317 932 q 559 889 483 932 q 679 776 635 846 l 600 717 q 508 802 563 772 q 390 832 453 832 q 275 797 322 832 q 228 699 228 763 q 246 633 228 660 q 292 588 264 606 q 375 544 321 571 l 476 496 q 638 386 585 443 q 690 240 690 329 q 652 107 690 165 q 547 17 614 49 q 394 -15 479 -15 z "},"І":{"ha":360,"x_min":126,"x_max":235,"o":"m 126 917 l 235 917 l 235 0 l 126 0 l 126 917 z "},"Ї":{"ha":360,"x_min":-58,"x_max":418,"o":"m 126 917 l 235 917 l 235 0 l 126 0 l 126 917 m 18 1051 q -35 1073 -12 1051 q -58 1125 -58 1094 q -35 1177 -58 1156 q 18 1199 -12 1199 q 72 1177 50 1199 q 94 1125 94 1156 q 72 1073 94 1094 q 18 1051 50 1051 m 342 1050 q 288 1072 311 1050 q 265 1124 265 1093 q 288 1176 265 1154 q 342 1199 311 1199 q 396 1176 374 1199 q 418 1124 418 1154 q 396 1072 418 1093 q 342 1050 374 1050 z "},"Ј":{"ha":518,"x_min":33,"x_max":393,"o":"m 33 0 l 33 93 q 133 85 90 85 q 246 115 207 85 q 285 222 285 144 l 285 917 l 393 917 l 393 213 q 329 41 393 97 q 154 -15 265 -15 q 33 0 100 -15 z "},"Љ":{"ha":1340,"x_min":1,"x_max":1271,"o":"m 965 556 q 1128 520 1058 556 q 1234 422 1197 485 q 1271 278 1271 358 q 1234 134 1271 197 q 1128 35 1197 71 q 965 0 1058 0 l 654 0 l 654 819 l 338 819 q 299 328 328 507 q 212 70 269 150 q 56 -10 154 -10 q 1 0 24 -10 l 1 94 q 15 92 4 93 q 39 90 25 90 q 183 262 140 90 q 233 779 225 433 l 236 917 l 763 917 l 763 556 l 965 556 m 964 97 q 1108 147 1057 97 q 1158 276 1158 197 q 1108 407 1158 357 q 964 457 1057 457 l 763 457 l 763 97 l 964 97 z "},"Њ":{"ha":1340,"x_min":126,"x_max":1272,"o":"m 126 917 l 235 917 l 235 556 l 656 556 l 656 917 l 764 917 l 764 556 l 965 556 q 1128 520 1058 556 q 1235 422 1197 485 q 1272 278 1272 358 q 1235 134 1272 197 q 1128 35 1197 71 q 965 0 1058 0 l 656 0 l 656 458 l 235 458 l 235 0 l 126 0 l 126 917 m 964 97 q 1108 147 1057 97 q 1160 276 1160 197 q 1108 408 1160 357 q 964 458 1057 458 l 764 458 l 764 97 l 964 97 z "},"Ћ":{"ha":1071,"x_min":26,"x_max":961,"o":"m 626 550 q 869 460 778 550 q 961 204 961 369 l 961 0 l 853 0 l 853 196 q 790 387 853 321 q 622 453 726 453 q 417 418 508 453 l 417 0 l 308 0 l 308 819 l 26 819 l 26 917 l 753 917 l 753 819 l 417 819 l 417 515 q 626 550 510 550 z "},"Ќ":{"ha":879,"x_min":126,"x_max":836,"o":"m 126 917 l 235 917 l 235 0 l 126 0 l 126 917 m 836 0 l 699 0 l 247 492 l 660 917 l 799 917 l 389 492 l 836 0 m 517 1264 l 647 1264 l 647 1244 l 481 1006 l 399 1006 l 517 1264 z "},"Ѝ":{"ha":997,"x_min":126,"x_max":871,"o":"m 871 932 l 871 0 l 763 0 l 763 711 l 165 -15 l 126 -15 l 126 917 l 235 917 l 235 206 l 832 932 l 871 932 m 292 1244 l 292 1264 l 422 1264 l 540 1006 l 458 1006 l 292 1244 z "},"Ў":{"ha":915,"x_min":56,"x_max":874,"o":"m 874 917 l 544 215 q 431 39 486 92 q 283 -14 375 -14 q 208 0 246 -14 l 208 94 q 281 86 246 86 q 359 108 326 86 q 421 188 392 131 l 56 917 l 178 917 l 481 313 l 764 917 l 874 917 m 479 1008 q 327 1069 385 1008 q 269 1229 269 1129 l 269 1264 l 360 1264 l 360 1228 q 391 1126 360 1163 q 479 1089 422 1089 q 568 1125 536 1089 q 600 1228 600 1161 l 600 1264 l 690 1264 l 690 1229 q 633 1069 690 1129 q 479 1008 575 1008 z "},"Џ":{"ha":969,"x_min":126,"x_max":843,"o":"m 843 0 l 539 0 l 539 -196 l 431 -196 l 431 0 l 126 0 l 126 917 l 235 917 l 235 97 l 735 97 l 735 917 l 843 917 l 843 0 z "},"А":{"ha":921,"x_min":43,"x_max":878,"o":"m 685 186 l 235 186 l 157 0 l 43 0 l 440 932 l 481 932 l 878 0 l 763 0 l 685 186 m 460 735 l 276 283 l 643 283 l 460 735 z "},"Б":{"ha":803,"x_min":126,"x_max":742,"o":"m 126 917 l 669 917 l 669 819 l 235 819 l 235 542 l 436 542 q 599 507 529 542 q 705 411 668 472 q 742 272 742 350 q 705 131 742 193 q 599 35 668 69 q 436 0 529 0 l 126 0 l 126 917 m 435 97 q 578 146 528 97 q 629 271 629 194 q 578 396 629 347 q 435 444 528 444 l 235 444 l 235 97 l 435 97 z "},"В":{"ha":856,"x_min":126,"x_max":794,"o":"m 615 504 q 747 416 700 479 q 794 264 794 353 q 760 128 794 188 q 659 34 725 68 q 504 0 593 0 l 126 0 l 126 917 l 442 917 q 632 851 561 917 q 703 685 703 786 q 680 582 703 628 q 615 504 657 536 m 235 819 l 235 535 l 431 535 q 550 574 508 535 q 592 678 592 613 q 551 781 592 743 q 431 819 510 819 l 235 819 m 493 97 q 633 144 583 97 q 683 267 683 190 q 633 390 683 343 q 493 436 583 436 l 235 436 l 235 97 l 493 97 z "},"Г":{"ha":703,"x_min":126,"x_max":669,"o":"m 126 917 l 669 917 l 669 819 l 235 819 l 235 0 l 126 0 l 126 917 z "},"Д":{"ha":938,"x_min":14,"x_max":896,"o":"m 896 97 l 896 -196 l 788 -196 l 788 0 l 122 0 l 122 -196 l 14 -196 l 14 97 l 85 97 q 193 331 158 165 q 228 801 228 497 l 229 917 l 785 917 l 785 97 l 896 97 m 328 819 q 296 353 326 529 q 206 97 265 176 l 676 97 l 676 819 l 328 819 z "},"Е":{"ha":786,"x_min":126,"x_max":731,"o":"m 126 917 l 714 917 l 714 819 l 235 819 l 235 539 l 601 539 l 601 442 l 235 442 l 235 97 l 731 97 l 731 0 l 126 0 l 126 917 z "},"Ж":{"ha":1342,"x_min":42,"x_max":1299,"o":"m 219 917 l 604 492 l 181 0 l 42 0 l 465 492 l 79 917 l 219 917 m 617 917 l 725 917 l 725 0 l 617 0 l 617 917 m 1299 0 l 1161 0 l 738 492 l 1122 917 l 1263 917 l 876 492 l 1299 0 z "},"З":{"ha":810,"x_min":68,"x_max":743,"o":"m 585 496 q 701 406 660 467 q 743 267 743 346 q 700 122 743 186 q 582 21 657 57 q 415 -15 507 -15 q 212 39 301 -15 q 68 186 122 93 l 147 244 q 264 128 196 171 q 414 85 332 85 q 569 137 507 85 q 632 269 632 189 q 578 390 632 343 q 418 436 525 436 l 310 436 l 310 535 l 424 535 q 542 575 501 535 q 582 681 582 615 q 540 790 582 749 q 415 832 497 832 q 192 707 276 832 l 114 765 q 238 888 161 843 q 415 932 314 932 q 563 900 500 932 q 660 812 626 868 q 694 686 694 756 q 666 577 694 626 q 585 496 638 528 z "},"И":{"ha":997,"x_min":126,"x_max":871,"o":"m 871 932 l 871 0 l 763 0 l 763 711 l 165 -15 l 126 -15 l 126 917 l 235 917 l 235 206 l 832 932 l 871 932 z "},"Й":{"ha":997,"x_min":126,"x_max":871,"o":"m 871 932 l 871 0 l 763 0 l 763 711 l 165 -15 l 126 -15 l 126 917 l 235 917 l 235 206 l 832 932 l 871 932 m 497 1008 q 345 1069 403 1008 q 288 1229 288 1129 l 288 1264 l 378 1264 l 378 1228 q 409 1126 378 1163 q 497 1089 440 1089 q 586 1125 554 1089 q 618 1228 618 1161 l 618 1264 l 708 1264 l 708 1229 q 651 1069 708 1129 q 497 1008 593 1008 z "},"К":{"ha":879,"x_min":126,"x_max":836,"o":"m 126 917 l 235 917 l 235 0 l 126 0 l 126 917 m 836 0 l 699 0 l 247 492 l 660 917 l 799 917 l 389 492 l 836 0 z "},"Л":{"ha":929,"x_min":1,"x_max":804,"o":"m 804 917 l 804 0 l 696 0 l 696 819 l 338 819 q 297 326 328 504 q 209 69 267 147 q 56 -10 151 -10 q 1 0 24 -10 l 1 94 q 15 92 4 93 q 39 90 25 90 q 183 262 140 90 q 233 779 225 433 l 236 917 l 804 917 z "},"М":{"ha":1096,"x_min":126,"x_max":969,"o":"m 969 932 l 969 0 l 861 0 l 861 657 l 568 260 l 529 260 l 235 660 l 235 0 l 126 0 l 126 932 l 165 932 l 547 403 l 932 932 l 969 932 z "},"Н":{"ha":983,"x_min":126,"x_max":857,"o":"m 126 917 l 235 917 l 235 539 l 749 539 l 749 917 l 857 917 l 857 0 l 749 0 l 749 442 l 235 442 l 235 0 l 126 0 l 126 917 z "},"О":{"ha":1085,"x_min":67,"x_max":1018,"o":"m 542 -15 q 302 47 411 -15 q 130 219 193 110 q 67 458 67 328 q 130 699 67 590 q 302 869 193 807 q 542 932 411 932 q 781 869 671 932 q 954 699 890 807 q 1018 458 1018 590 q 954 218 1018 326 q 781 47 890 110 q 542 -15 671 -15 m 543 85 q 728 134 644 85 q 858 269 811 183 q 906 460 906 354 q 858 649 906 564 q 728 783 811 735 q 543 832 644 832 q 357 783 440 832 q 226 650 274 735 q 179 460 179 565 q 226 269 179 354 q 357 134 274 183 q 543 85 440 85 z "},"П":{"ha":969,"x_min":126,"x_max":843,"o":"m 126 917 l 843 917 l 843 0 l 735 0 l 735 819 l 235 819 l 235 0 l 126 0 l 126 917 z "},"Р":{"ha":796,"x_min":126,"x_max":742,"o":"m 126 917 l 449 917 q 603 883 538 917 q 706 788 669 849 q 742 651 742 728 q 706 513 742 574 q 603 417 669 451 q 449 383 538 383 l 235 383 l 235 0 l 126 0 l 126 917 m 446 481 q 581 527 533 481 q 629 650 629 574 q 581 772 629 725 q 446 819 533 819 l 235 819 l 235 481 l 446 481 z "},"С":{"ha":993,"x_min":67,"x_max":924,"o":"m 543 -15 q 303 47 413 -15 q 130 218 193 110 q 67 458 67 326 q 130 699 67 590 q 303 869 193 807 q 543 932 413 932 q 765 878 665 932 q 924 735 865 825 l 843 671 q 715 790 790 747 q 544 832 639 832 q 358 783 442 832 q 227 649 275 735 q 179 458 179 564 q 227 267 179 353 q 358 133 275 182 q 544 85 442 85 q 715 127 639 85 q 843 246 790 169 l 924 182 q 766 38 867 92 q 543 -15 665 -15 z "},"Т":{"ha":807,"x_min":26,"x_max":781,"o":"m 349 819 l 26 819 l 26 917 l 781 917 l 781 819 l 457 819 l 457 0 l 349 0 l 349 819 z "},"У":{"ha":915,"x_min":56,"x_max":874,"o":"m 874 917 l 544 215 q 431 39 486 92 q 283 -14 375 -14 q 208 0 246 -14 l 208 94 q 281 86 246 86 q 359 108 326 86 q 421 188 392 131 l 56 917 l 178 917 l 481 313 l 764 917 l 874 917 z "},"Ф":{"ha":1107,"x_min":60,"x_max":1047,"o":"m 1047 465 q 991 265 1047 350 q 835 133 935 179 q 607 86 735 88 l 607 -28 l 499 -28 l 499 86 q 272 133 371 88 q 116 265 172 179 q 60 465 60 350 q 116 664 60 579 q 272 794 172 749 q 499 840 371 839 l 499 944 l 607 944 l 607 840 q 835 794 735 839 q 991 664 935 749 q 1047 465 1047 579 m 172 463 q 261 258 172 332 q 499 185 350 185 l 499 742 q 261 668 350 742 q 172 463 172 594 m 607 185 q 845 258 756 185 q 935 463 935 332 q 845 668 935 594 q 607 742 756 742 l 607 185 z "},"Х":{"ha":832,"x_min":42,"x_max":790,"o":"m 664 0 l 417 376 l 168 0 l 42 0 l 357 469 l 64 917 l 189 917 l 417 560 l 643 917 l 768 917 l 479 468 l 790 0 l 664 0 z "},"Ц":{"ha":997,"x_min":126,"x_max":956,"o":"m 847 0 l 126 0 l 126 917 l 235 917 l 235 97 l 735 97 l 735 917 l 843 917 l 843 97 l 956 97 l 956 -196 l 847 -196 l 847 0 z "},"Ч":{"ha":900,"x_min":85,"x_max":775,"o":"m 775 917 l 775 0 l 667 0 l 667 369 q 562 340 621 349 q 446 331 503 331 q 179 418 274 331 q 85 681 85 506 l 85 917 l 193 917 l 193 688 q 258 490 193 553 q 449 428 324 428 q 563 438 504 428 q 667 468 622 447 l 667 917 l 775 917 z "},"Ш":{"ha":1339,"x_min":126,"x_max":1214,"o":"m 126 917 l 235 917 l 235 97 l 615 97 l 615 917 l 724 917 l 724 97 l 1106 97 l 1106 917 l 1214 917 l 1214 0 l 126 0 l 126 917 z "},"Щ":{"ha":1367,"x_min":126,"x_max":1325,"o":"m 1217 0 l 126 0 l 126 917 l 235 917 l 235 97 l 615 97 l 615 917 l 724 917 l 724 97 l 1106 97 l 1106 917 l 1214 917 l 1214 97 l 1325 97 l 1325 -196 l 1217 -196 l 1217 0 z "},"Ъ":{"ha":921,"x_min":26,"x_max":851,"o":"m 236 819 l 26 819 l 26 917 l 344 917 l 344 556 l 546 556 q 708 520 639 556 q 815 422 778 485 q 851 278 851 358 q 815 134 851 197 q 708 35 778 71 q 546 0 639 0 l 236 0 l 236 819 m 544 97 q 689 147 638 97 q 740 276 740 197 q 689 407 740 357 q 544 457 638 457 l 344 457 l 344 97 l 544 97 z "},"Ы":{"ha":1157,"x_min":126,"x_max":1032,"o":"m 126 917 l 235 917 l 235 556 l 436 556 q 599 520 529 556 q 705 422 668 485 q 742 278 742 358 q 705 134 742 197 q 599 35 668 71 q 436 0 529 0 l 126 0 l 126 917 m 435 97 q 579 147 528 97 q 631 276 631 197 q 579 407 631 357 q 435 457 528 457 l 235 457 l 235 97 l 435 97 m 924 917 l 1032 917 l 1032 0 l 924 0 l 924 917 z "},"Ь":{"ha":811,"x_min":126,"x_max":742,"o":"m 126 917 l 235 917 l 235 556 l 436 556 q 599 520 529 556 q 705 422 668 485 q 742 278 742 358 q 705 134 742 197 q 599 35 668 71 q 436 0 529 0 l 126 0 l 126 917 m 435 97 q 579 147 528 97 q 631 276 631 197 q 579 407 631 357 q 435 457 528 457 l 235 457 l 235 97 l 435 97 z "},"Э":{"ha":993,"x_min":68,"x_max":925,"o":"m 450 932 q 690 869 581 932 q 862 699 799 807 q 925 458 925 590 q 862 218 925 326 q 690 47 799 110 q 450 -15 581 -15 q 227 38 328 -15 q 68 182 126 92 l 150 246 q 278 127 203 169 q 449 85 354 85 q 624 128 544 85 q 752 247 703 171 q 811 418 801 322 l 382 418 l 382 515 l 808 515 q 746 679 796 607 q 619 792 696 751 q 449 832 542 832 q 278 790 354 832 q 150 671 203 747 l 68 735 q 228 878 128 825 q 450 932 328 932 z "},"Ю":{"ha":1357,"x_min":126,"x_max":1289,"o":"m 833 932 q 1065 869 961 932 q 1229 699 1169 807 q 1289 458 1289 590 q 1229 218 1289 326 q 1065 47 1169 110 q 833 -15 961 -15 q 606 45 708 -15 q 444 210 504 106 q 381 442 385 314 l 235 442 l 235 0 l 126 0 l 126 917 l 235 917 l 235 539 l 386 539 q 465 741 403 651 q 624 881 528 831 q 833 932 719 932 m 835 85 q 885 85 835 85 q 1013 133 935 85 q 1133 268 1090 182 q 1176 460 1176 354 q 1133 650 1176 565 q 1013 783 1090 735 q 835 832 935 832 q 657 783 735 832 q 536 650 579 735 q 493 460 493 565 q 536 267 493 353 q 657 133 579 182 q 835 85 735 85 z "},"Я":{"ha":860,"x_min":63,"x_max":733,"o":"m 733 917 l 733 0 l 625 0 l 625 357 l 443 357 l 186 0 l 63 0 l 329 371 q 172 470 231 399 q 114 638 114 542 q 153 783 114 719 q 263 882 192 847 q 428 917 335 917 l 733 917 m 625 819 l 428 819 q 281 769 336 819 q 226 638 226 719 q 281 505 226 554 q 428 456 336 456 l 625 456 l 625 819 z "},"а":{"ha":733,"x_min":61,"x_max":625,"o":"m 361 692 q 553 621 481 692 q 625 417 625 550 l 625 0 l 525 0 l 525 88 q 429 11 488 38 q 297 -15 371 -15 q 127 36 193 -15 q 61 175 61 88 q 128 313 61 261 q 304 364 194 364 l 518 364 l 518 422 q 474 549 518 506 q 354 593 431 593 q 246 566 293 593 q 157 485 199 539 l 86 543 q 204 655 132 618 q 361 692 276 692 m 311 74 q 414 98 367 74 q 490 165 461 122 q 518 260 518 208 l 518 276 l 317 276 q 208 252 246 276 q 171 181 171 228 q 211 101 171 129 q 311 74 251 74 z "},"б":{"ha":854,"x_min":83,"x_max":785,"o":"m 447 667 q 617 621 539 667 q 740 497 694 575 q 785 326 785 418 q 738 155 785 233 q 610 31 690 76 q 432 -14 529 -14 q 250 34 329 -14 q 127 169 171 82 q 83 367 83 256 l 83 485 q 115 740 83 640 q 237 907 146 840 q 500 1003 328 974 q 728 1057 672 1033 l 728 954 q 513 904 664 926 q 297 831 368 883 q 207 709 226 779 q 188 531 188 639 q 299 631 231 594 q 447 667 368 667 m 433 85 q 556 117 500 85 q 643 204 611 149 q 675 326 675 260 q 643 449 675 393 q 556 536 611 504 q 433 568 500 568 q 313 536 368 568 q 224 449 257 504 q 192 326 192 393 q 224 206 192 261 q 313 117 257 150 q 433 85 368 85 z "},"в":{"ha":756,"x_min":118,"x_max":672,"o":"m 544 367 q 638 304 604 346 q 672 204 672 263 q 607 57 672 114 q 432 0 542 0 l 118 0 l 118 676 l 397 676 q 556 628 497 676 q 615 497 615 579 q 597 423 615 457 q 544 367 578 389 m 225 400 l 399 400 q 482 424 454 400 q 510 492 510 449 q 399 581 510 581 l 225 581 l 225 400 m 425 94 q 528 125 492 94 q 565 204 565 156 q 528 278 565 251 q 425 306 492 306 l 225 306 l 225 94 l 425 94 z "},"г":{"ha":604,"x_min":118,"x_max":574,"o":"m 118 676 l 574 676 l 574 581 l 225 581 l 225 0 l 118 0 l 118 676 z "},"д":{"ha":803,"x_min":7,"x_max":753,"o":"m 753 94 l 753 -196 l 646 -196 l 646 0 l 114 0 l 114 -196 l 7 -196 l 7 94 l 83 94 q 150 238 131 143 q 172 486 169 333 l 176 676 l 643 676 l 643 94 l 753 94 m 274 485 q 250 242 271 343 q 196 94 229 142 l 536 94 l 536 581 l 278 581 l 274 485 z "},"е":{"ha":793,"x_min":69,"x_max":724,"o":"m 715 306 l 181 306 q 260 144 190 206 q 429 83 329 83 q 636 175 544 83 l 699 103 q 577 16 646 47 q 428 -15 508 -15 q 246 31 328 -15 q 117 158 164 78 q 69 338 69 239 q 115 516 69 435 q 240 644 161 597 q 415 692 319 692 q 572 653 501 692 q 683 544 643 614 q 724 386 724 475 q 715 306 724 347 m 413 594 q 370 594 413 594 q 265 541 328 594 q 185 400 203 488 l 614 400 q 555 542 613 490 q 413 594 497 594 z "},"ж":{"ha":1072,"x_min":28,"x_max":1043,"o":"m 188 676 l 467 367 l 158 0 l 28 0 l 338 367 l 54 676 l 188 676 m 481 676 l 588 676 l 588 0 l 481 0 l 481 676 m 1043 0 l 910 0 l 601 367 l 881 676 l 1013 676 l 732 369 l 1043 0 z "},"з":{"ha":650,"x_min":63,"x_max":578,"o":"m 463 361 q 548 295 518 339 q 578 194 578 251 q 508 42 578 99 q 322 -15 438 -15 q 174 19 239 -15 q 63 115 108 53 l 135 179 q 214 108 169 133 q 321 83 258 83 q 430 116 392 83 q 468 201 468 149 q 430 281 468 250 q 321 311 392 311 l 247 311 l 247 406 l 319 406 q 408 431 378 406 q 438 500 438 456 q 406 568 438 543 q 317 593 375 593 q 220 572 260 593 q 147 510 181 550 l 75 574 q 176 659 114 626 q 321 692 238 692 q 483 642 422 692 q 543 507 543 593 q 523 424 543 461 q 463 361 503 386 z "},"и":{"ha":793,"x_min":118,"x_max":676,"o":"m 676 692 l 676 0 l 569 0 l 569 478 l 157 -15 l 118 -15 l 118 676 l 225 676 l 225 197 l 638 692 l 676 692 z "},"й":{"ha":793,"x_min":118,"x_max":676,"o":"m 676 692 l 676 0 l 569 0 l 569 478 l 157 -15 l 118 -15 l 118 676 l 225 676 l 225 197 l 638 692 l 676 692 m 413 796 q 260 856 318 796 q 203 1015 203 917 l 203 1058 l 293 1058 l 293 1018 q 324 913 293 950 q 413 876 356 876 q 502 913 471 876 q 533 1018 533 950 l 533 1058 l 624 1058 l 624 1015 q 566 856 624 917 q 413 796 508 796 z "},"к":{"ha":715,"x_min":118,"x_max":688,"o":"m 118 676 l 225 676 l 225 0 l 118 0 l 118 676 m 688 0 l 553 0 l 239 367 l 524 676 l 657 676 l 369 369 l 688 0 z "},"л":{"ha":747,"x_min":14,"x_max":629,"o":"m 629 676 l 629 0 l 522 0 l 522 581 l 271 581 l 268 497 q 242 211 263 319 q 175 49 221 103 q 50 -6 129 -6 q 14 0 31 -6 l 14 90 q 42 88 31 88 q 135 190 107 88 q 167 500 163 292 l 171 676 l 629 676 z "},"м":{"ha":953,"x_min":118,"x_max":835,"o":"m 118 692 l 157 692 l 478 311 l 797 692 l 835 692 l 835 0 l 728 0 l 728 457 l 497 182 l 456 182 l 225 457 l 225 0 l 118 0 l 118 692 z "},"н":{"ha":781,"x_min":118,"x_max":664,"o":"m 118 676 l 225 676 l 225 407 l 557 407 l 557 676 l 664 676 l 664 0 l 557 0 l 557 313 l 225 313 l 225 0 l 118 0 l 118 676 z "},"о":{"ha":847,"x_min":69,"x_max":778,"o":"m 422 -14 q 374 -14 422 -14 q 244 33 325 -14 q 117 162 164 81 q 69 339 69 243 q 117 517 69 436 q 245 645 164 599 q 424 692 326 692 q 602 644 521 692 q 731 517 683 597 q 778 339 778 436 q 731 162 778 243 q 601 33 683 81 q 422 -14 519 -14 m 422 85 q 456 85 422 85 q 547 118 490 85 q 635 209 603 151 q 668 338 668 267 q 636 468 668 410 q 548 560 604 526 q 424 593 492 593 q 299 560 354 593 q 211 468 243 526 q 179 338 179 410 q 211 209 179 267 q 299 118 243 151 q 422 85 354 85 z "},"п":{"ha":775,"x_min":118,"x_max":658,"o":"m 118 676 l 658 676 l 658 0 l 550 0 l 550 581 l 225 581 l 225 0 l 118 0 l 118 676 z "},"р":{"ha":878,"x_min":118,"x_max":808,"o":"m 474 692 q 646 645 569 692 q 765 518 722 599 q 808 339 808 438 q 765 159 808 240 q 644 31 721 78 q 474 -15 568 -15 q 333 15 399 -15 q 225 97 267 44 l 225 -250 l 118 -250 l 118 676 l 218 676 l 218 568 q 326 659 257 626 q 474 692 394 692 m 458 83 q 581 116 526 83 q 667 207 636 149 q 699 338 699 265 q 667 468 699 410 q 581 560 636 526 q 458 593 526 593 q 344 565 397 593 q 257 481 290 538 q 224 339 224 424 q 256 197 224 254 q 342 111 289 139 q 458 83 396 83 z "},"с":{"ha":765,"x_min":69,"x_max":703,"o":"m 424 -15 q 245 32 326 -15 q 117 160 164 79 q 69 339 69 242 q 117 517 69 436 q 245 644 164 597 q 424 692 326 692 q 585 652 513 692 q 703 544 657 613 l 626 483 q 425 593 544 593 q 299 559 356 593 q 211 467 243 525 q 179 339 179 408 q 211 210 179 268 q 299 117 243 151 q 425 83 356 83 q 625 192 544 83 l 701 132 q 584 24 656 64 q 424 -15 513 -15 z "},"т":{"ha":618,"x_min":28,"x_max":589,"o":"m 256 581 l 28 581 l 28 676 l 589 676 l 589 581 l 361 581 l 361 0 l 256 0 l 256 581 z "},"у":{"ha":749,"x_min":36,"x_max":713,"o":"m 713 676 l 379 -94 q 284 -224 340 -183 q 150 -265 228 -265 q 46 -251 99 -265 l 46 -161 q 128 -168 99 -168 q 217 -144 181 -168 q 281 -60 254 -121 l 317 21 l 36 676 l 151 676 l 375 138 l 599 676 l 713 676 z "},"ф":{"ha":1010,"x_min":69,"x_max":940,"o":"m 940 336 q 940 284 940 336 q 891 153 940 232 q 755 32 842 75 q 558 -15 668 -11 l 558 -250 l 451 -250 l 451 -15 q 253 33 340 -11 q 118 155 167 76 q 69 338 69 233 q 119 519 69 442 q 255 641 168 597 q 451 689 342 685 l 451 1042 l 558 1042 l 558 689 q 756 641 669 685 q 892 519 843 597 q 940 336 940 440 m 179 336 q 179 278 179 336 q 253 152 179 219 q 453 79 326 85 l 453 594 q 253 521 326 589 q 179 336 179 453 m 557 79 q 757 153 683 85 q 831 338 831 221 q 757 522 831 454 q 557 594 683 589 l 557 79 z "},"х":{"ha":690,"x_min":28,"x_max":661,"o":"m 538 0 l 344 278 l 153 0 l 28 0 l 279 353 l 49 676 l 172 676 l 344 428 l 518 676 l 642 676 l 407 353 l 661 0 l 538 0 z "},"ц":{"ha":817,"x_min":118,"x_max":767,"o":"m 660 0 l 118 0 l 118 676 l 225 676 l 225 94 l 550 94 l 550 676 l 657 676 l 657 94 l 767 94 l 767 -196 l 660 -196 l 660 0 z "},"ч":{"ha":733,"x_min":69,"x_max":615,"o":"m 615 676 l 615 0 l 508 0 l 508 267 q 338 236 443 236 q 142 304 215 236 q 69 500 69 372 l 69 676 l 176 676 l 176 506 q 358 332 176 332 q 436 340 394 332 q 508 361 478 347 l 508 676 l 615 676 z "},"ш":{"ha":1124,"x_min":118,"x_max":1007,"o":"m 118 676 l 225 676 l 225 94 l 508 94 l 508 676 l 615 676 l 615 94 l 900 94 l 900 676 l 1007 676 l 1007 0 l 118 0 l 118 676 z "},"щ":{"ha":1167,"x_min":118,"x_max":1117,"o":"m 1010 0 l 118 0 l 118 676 l 225 676 l 225 94 l 508 94 l 508 676 l 615 676 l 615 94 l 900 94 l 900 676 l 1007 676 l 1007 94 l 1117 94 l 1117 -196 l 1010 -196 l 1010 0 z "},"ъ":{"ha":774,"x_min":28,"x_max":704,"o":"m 182 581 l 28 581 l 28 676 l 289 676 l 289 443 l 451 443 q 635 383 567 443 q 704 222 704 322 q 635 61 704 122 q 451 0 567 0 l 182 0 l 182 581 m 444 94 q 555 129 515 94 q 594 221 594 164 q 554 313 594 278 q 443 349 514 349 l 289 349 l 289 94 l 444 94 z "},"ы":{"ha":961,"x_min":118,"x_max":844,"o":"m 118 676 l 225 676 l 225 443 l 386 443 q 569 383 500 443 q 639 222 639 322 q 570 60 639 121 q 386 0 501 0 l 118 0 l 118 676 m 738 676 l 844 676 l 844 0 l 738 0 l 738 676 m 381 94 q 491 127 453 94 q 529 221 529 160 q 490 315 529 282 q 379 349 451 349 l 225 349 l 225 94 l 381 94 z "},"ь":{"ha":708,"x_min":118,"x_max":639,"o":"m 118 676 l 225 676 l 225 443 l 386 443 q 570 383 501 443 q 639 222 639 322 q 570 61 639 122 q 386 0 501 0 l 118 0 l 118 676 m 381 94 q 490 129 451 94 q 529 221 529 164 q 490 313 529 278 q 379 349 450 349 l 225 349 l 225 94 l 381 94 z "},"э":{"ha":765,"x_min":63,"x_max":696,"o":"m 342 692 q 520 644 439 692 q 649 517 601 597 q 696 339 696 436 q 649 160 696 242 q 520 32 601 79 q 342 -15 439 -15 q 181 24 253 -15 q 64 132 110 64 l 139 192 q 340 83 221 83 q 503 144 436 83 q 583 300 571 206 l 292 300 l 292 394 l 581 394 q 497 538 563 482 q 340 593 431 593 q 138 483 219 593 l 63 544 q 181 653 110 614 q 342 692 253 692 z "},"ю":{"ha":1110,"x_min":118,"x_max":1040,"o":"m 693 692 q 867 644 788 692 q 994 517 947 597 q 1040 339 1040 436 q 994 162 1040 243 q 867 33 947 81 q 692 -14 788 -14 q 524 29 600 -14 q 400 147 447 72 q 347 313 353 222 l 225 313 l 225 0 l 118 0 l 118 676 l 225 676 l 225 407 l 351 407 q 415 553 367 489 q 536 655 464 618 q 693 692 608 692 m 692 85 q 725 85 692 85 q 813 118 758 85 q 899 209 868 151 q 931 338 931 267 q 899 467 931 408 q 814 559 868 525 q 693 593 760 593 q 571 560 625 593 q 486 468 517 526 q 456 338 456 410 q 486 209 456 267 q 571 118 517 151 q 692 85 625 85 z "},"я":{"ha":729,"x_min":65,"x_max":611,"o":"m 611 676 l 611 0 l 504 0 l 504 247 l 376 247 l 190 0 l 65 0 l 263 261 q 145 335 188 283 q 103 460 103 388 q 168 617 103 558 q 342 676 233 676 l 611 676 m 504 581 l 349 581 q 249 549 285 581 q 213 461 213 517 q 249 374 213 407 q 350 342 286 342 l 504 342 l 504 581 z "},"ѐ":{"ha":793,"x_min":69,"x_max":724,"o":"m 715 306 l 181 306 q 260 144 190 206 q 429 83 329 83 q 636 175 544 83 l 699 103 q 577 16 646 47 q 428 -15 508 -15 q 246 31 328 -15 q 117 158 164 78 q 69 338 69 239 q 115 516 69 435 q 240 644 161 597 q 415 692 319 692 q 572 653 501 692 q 683 544 643 614 q 724 386 724 475 q 715 306 724 347 m 413 594 q 370 594 413 594 q 265 541 328 594 q 185 400 203 488 l 614 400 q 555 542 613 490 q 413 594 497 594 m 204 1064 l 204 1083 l 335 1083 l 453 786 l 371 786 l 204 1064 z "},"ё":{"ha":793,"x_min":69,"x_max":724,"o":"m 715 306 l 181 306 q 260 144 190 206 q 429 83 329 83 q 636 175 544 83 l 699 103 q 577 16 646 47 q 428 -15 508 -15 q 246 31 328 -15 q 117 158 164 78 q 69 338 69 239 q 115 516 69 435 q 240 644 161 597 q 415 692 319 692 q 572 653 501 692 q 683 544 643 614 q 724 386 724 475 q 715 306 724 347 m 413 594 q 370 594 413 594 q 265 541 328 594 q 185 400 203 488 l 614 400 q 555 542 613 490 q 413 594 497 594 m 264 861 q 211 883 235 861 q 188 935 188 906 q 211 988 188 965 q 264 1010 235 1010 q 319 988 296 1010 q 342 935 342 965 q 319 883 342 904 q 264 861 296 861 m 560 861 q 506 883 529 861 q 482 935 482 906 q 506 988 482 965 q 560 1010 529 1010 q 614 988 592 1010 q 636 935 636 965 q 614 883 636 904 q 560 861 592 861 z "},"ђ":{"ha":792,"x_min":7,"x_max":683,"o":"m 432 672 q 616 599 549 672 q 683 407 683 526 l 683 -46 q 623 -211 683 -157 q 460 -265 563 -265 q 375 -254 413 -265 l 375 -164 q 435 -168 408 -168 q 540 -140 503 -168 q 576 -39 576 -111 l 576 394 q 531 524 576 475 q 408 574 485 574 q 278 523 329 574 q 228 394 228 472 l 228 0 l 122 0 l 122 806 l 7 806 l 7 900 l 122 900 l 122 1042 l 228 1042 l 228 900 l 508 900 l 508 806 l 228 806 l 228 579 q 315 648 263 624 q 432 672 367 672 z "},"ѓ":{"ha":604,"x_min":118,"x_max":574,"o":"m 118 676 l 574 676 l 574 581 l 225 581 l 225 0 l 118 0 l 118 676 m 410 1083 l 540 1083 l 540 1064 l 374 786 l 292 786 l 410 1083 z "},"є":{"ha":765,"x_min":69,"x_max":703,"o":"m 626 192 l 701 132 q 584 24 656 64 q 424 -15 513 -15 q 245 32 326 -15 q 117 160 164 79 q 69 339 69 242 q 117 517 69 436 q 245 644 164 597 q 424 692 326 692 q 585 652 513 692 q 703 544 657 613 l 628 483 q 425 593 546 593 q 269 538 335 593 q 185 394 203 482 l 474 394 l 474 300 l 182 300 q 262 144 194 206 q 425 83 329 83 q 626 192 544 83 z "},"ѕ":{"ha":631,"x_min":54,"x_max":556,"o":"m 318 -15 q 166 22 233 -15 q 54 117 99 58 l 122 188 q 215 110 171 138 q 317 83 260 83 q 409 109 372 83 q 446 179 446 135 q 418 241 446 219 q 328 288 390 263 l 263 315 q 136 392 178 350 q 94 503 94 435 q 160 642 94 592 q 322 692 225 692 q 450 663 393 692 q 549 585 507 635 l 483 518 q 406 573 449 553 q 317 593 364 593 q 235 571 267 593 q 204 508 204 549 q 228 456 204 476 q 314 410 253 436 l 376 383 q 513 298 471 343 q 556 183 556 253 q 487 37 556 89 q 318 -15 418 -15 z "},"і":{"ha":372,"x_min":107,"x_max":267,"o":"m 188 857 q 130 879 153 857 q 107 935 107 901 q 130 990 107 967 q 188 1013 153 1013 q 243 990 219 1013 q 267 935 267 967 q 244 879 267 901 q 188 857 221 857 m 133 676 l 240 676 l 240 0 l 133 0 l 133 676 z "},"ї":{"ha":343,"x_min":14,"x_max":329,"o":"m 88 857 q 35 879 56 857 q 14 935 14 901 q 35 990 14 967 q 88 1013 57 1013 q 138 990 117 1013 q 160 935 160 967 q 138 879 160 901 q 88 857 117 857 m 257 857 q 204 879 225 857 q 183 935 183 901 q 205 990 183 967 q 257 1013 226 1013 q 308 990 286 1013 q 329 935 329 967 q 308 879 329 901 q 257 857 286 857 m 118 676 l 225 676 l 225 0 l 118 0 l 118 676 z "},"ј":{"ha":342,"x_min":-83,"x_max":251,"o":"m -83 -254 l -83 -164 q -21 -168 -49 -168 q 82 -139 46 -168 q 118 -39 118 -110 l 118 676 l 225 676 l 225 -46 q 165 -211 225 -157 q 3 -265 104 -265 q -83 -254 -43 -265 m 172 857 q 156 857 172 857 q 115 879 139 857 q 92 935 92 901 q 115 990 92 967 q 172 1013 139 1013 q 228 990 204 1013 q 251 935 251 967 q 228 879 251 901 q 172 857 206 857 z "},"љ":{"ha":1079,"x_min":14,"x_max":1008,"o":"m 757 443 q 940 383 872 443 q 1008 222 1008 322 q 940 61 1008 122 q 757 0 872 0 l 489 0 l 489 581 l 271 581 l 268 497 q 242 211 263 319 q 175 49 221 103 q 50 -6 129 -6 q 14 0 31 -6 l 14 90 q 42 88 31 88 q 135 190 107 88 q 167 500 163 292 l 171 676 l 596 676 l 596 443 l 757 443 m 750 94 q 860 129 821 94 q 899 221 899 164 q 859 313 899 278 q 749 349 819 349 l 596 349 l 596 94 l 750 94 z "},"њ":{"ha":1115,"x_min":118,"x_max":1044,"o":"m 785 432 q 974 374 904 432 q 1044 218 1044 317 q 975 58 1044 115 q 785 0 906 0 l 515 0 l 515 338 l 225 338 l 225 0 l 118 0 l 118 676 l 225 676 l 225 432 l 515 432 l 515 676 l 622 676 l 622 432 l 785 432 m 778 94 q 894 126 853 94 q 935 217 935 158 q 893 304 935 271 q 778 338 851 338 l 622 338 l 622 94 l 778 94 z "},"ћ":{"ha":792,"x_min":7,"x_max":683,"o":"m 432 672 q 616 599 549 672 q 683 407 683 526 l 683 0 l 576 0 l 576 394 q 531 524 576 475 q 408 574 485 574 q 278 523 329 574 q 228 394 228 472 l 228 0 l 122 0 l 122 804 l 7 804 l 7 899 l 122 899 l 122 1042 l 228 1042 l 228 899 l 508 899 l 508 804 l 228 804 l 228 579 q 315 648 263 624 q 432 672 367 672 z "},"ќ":{"ha":715,"x_min":118,"x_max":688,"o":"m 118 676 l 225 676 l 225 0 l 118 0 l 118 676 m 688 0 l 553 0 l 239 367 l 524 676 l 657 676 l 369 369 l 688 0 m 453 1083 l 583 1083 l 583 1064 l 417 786 l 335 786 l 453 1083 z "},"ѝ":{"ha":793,"x_min":118,"x_max":676,"o":"m 676 692 l 676 0 l 569 0 l 569 478 l 157 -15 l 118 -15 l 118 676 l 225 676 l 225 197 l 638 692 l 676 692 m 207 1064 l 207 1083 l 338 1083 l 456 786 l 374 786 l 207 1064 z "},"ў":{"ha":749,"x_min":36,"x_max":713,"o":"m 713 676 l 379 -94 q 284 -224 340 -183 q 150 -265 228 -265 q 46 -251 99 -265 l 46 -161 q 128 -168 99 -168 q 217 -144 181 -168 q 281 -60 254 -121 l 317 21 l 36 676 l 151 676 l 375 138 l 599 676 l 713 676 m 369 796 q 217 856 275 796 q 160 1015 160 917 l 160 1058 l 250 1058 l 250 1018 q 281 913 250 950 q 369 876 313 876 q 459 913 428 876 q 490 1018 490 950 l 490 1058 l 581 1058 l 581 1015 q 523 856 581 917 q 369 796 465 796 z "},"џ":{"ha":774,"x_min":118,"x_max":657,"o":"m 657 0 l 442 0 l 442 -196 l 335 -196 l 335 0 l 118 0 l 118 676 l 225 676 l 225 94 l 550 94 l 550 676 l 657 676 l 657 0 z "},"Ѣ":{"ha":908,"x_min":26,"x_max":839,"o":"m 224 697 l 26 697 l 26 788 l 224 788 l 224 917 l 332 917 l 332 788 l 593 788 l 593 697 l 332 697 l 332 529 l 540 529 q 699 495 632 529 q 803 401 767 461 q 839 265 839 342 q 803 128 839 188 q 699 34 767 68 q 540 0 632 0 l 224 0 l 224 697 m 539 97 q 678 144 629 97 q 726 264 726 190 q 678 385 726 339 q 539 431 629 431 l 332 431 l 332 97 l 539 97 z "},"ѣ":{"ha":790,"x_min":7,"x_max":721,"o":"m 199 581 l 7 581 l 7 676 l 199 676 l 199 1042 l 306 1042 l 306 676 l 526 676 l 526 581 l 306 581 l 306 429 l 468 429 q 652 371 583 429 q 721 217 721 313 q 652 59 721 118 q 468 0 583 0 l 199 0 l 199 581 m 461 94 q 572 127 532 94 q 611 215 611 160 q 571 301 611 268 q 460 335 531 335 l 306 335 l 306 94 l 461 94 z "},"Ѳ":{"ha":1085,"x_min":67,"x_max":1018,"o":"m 542 932 q 781 869 671 932 q 954 699 890 807 q 1018 458 1018 590 q 954 218 1018 326 q 781 47 890 110 q 542 -15 671 -15 q 302 47 411 -15 q 130 219 193 110 q 67 458 67 328 q 130 699 67 590 q 302 869 193 807 q 542 932 411 932 m 542 832 q 367 790 446 832 q 240 672 289 747 q 181 501 190 596 q 371 542 278 542 q 453 535 415 542 q 546 514 492 528 q 636 493 597 500 q 718 486 675 486 q 900 524 813 486 q 836 683 886 613 q 710 792 786 753 q 542 832 633 832 m 542 85 q 719 129 639 85 q 849 251 800 174 q 904 426 897 329 q 718 389 813 389 q 633 396 672 389 q 540 417 593 403 q 449 438 485 431 q 371 444 413 444 q 277 435 319 444 q 182 404 235 426 q 244 240 194 313 q 371 126 293 167 q 542 85 449 85 z "},"ѳ":{"ha":847,"x_min":69,"x_max":778,"o":"m 424 692 q 472 692 424 692 q 602 645 521 692 q 731 517 683 599 q 778 339 778 436 q 730 161 778 242 q 601 33 682 81 q 422 -14 519 -14 q 244 33 325 -14 q 117 160 164 79 q 69 339 69 242 q 117 517 69 436 q 245 645 164 599 q 424 692 326 692 m 424 593 q 267 538 332 593 q 185 393 201 482 q 297 415 242 415 q 359 409 331 415 q 425 392 388 403 q 491 375 464 381 q 550 369 518 369 q 663 392 604 369 q 580 537 646 481 q 424 593 514 593 m 422 85 q 586 147 518 85 q 665 303 654 208 q 550 278 606 278 q 491 283 517 278 q 419 301 465 289 q 356 319 383 313 q 297 325 328 325 q 182 301 244 325 q 260 146 193 207 q 422 85 328 85 z "},"Ѵ":{"ha":954,"x_min":43,"x_max":954,"o":"m 954 917 l 954 824 q 913 828 931 828 q 844 806 869 828 q 799 735 819 785 l 481 -15 l 440 -15 l 43 917 l 163 917 l 460 197 l 699 774 q 778 889 732 854 q 897 924 825 924 q 954 917 915 924 z "},"ѵ":{"ha":758,"x_min":36,"x_max":758,"o":"m 758 676 l 758 585 q 724 588 736 588 q 672 571 692 588 q 638 518 653 554 l 394 -15 l 356 -15 l 36 676 l 150 676 l 375 164 l 546 556 q 612 651 575 619 q 704 682 649 682 q 758 676 735 682 z "},"Ґ":{"ha":679,"x_min":126,"x_max":646,"o":"m 126 917 l 538 917 l 538 1111 l 646 1111 l 646 819 l 235 819 l 235 0 l 126 0 l 126 917 z "},"ґ":{"ha":604,"x_min":118,"x_max":574,"o":"m 118 676 l 467 676 l 467 871 l 574 871 l 574 581 l 225 581 l 225 0 l 118 0 l 118 676 z "},"Ғ":{"ha":731,"x_min":25,"x_max":703,"o":"m 265 819 l 265 472 l 500 472 l 500 382 l 265 382 l 265 0 l 157 0 l 157 382 l 25 382 l 25 472 l 157 472 l 157 917 l 703 917 l 703 819 l 265 819 z "},"ғ":{"ha":606,"x_min":7,"x_max":575,"o":"m 224 581 l 224 372 l 422 372 l 422 278 l 224 278 l 224 0 l 118 0 l 118 278 l 7 278 l 7 372 l 118 372 l 118 676 l 575 676 l 575 581 l 224 581 z "},"Җ":{"ha":1338,"x_min":42,"x_max":1336,"o":"m 219 917 l 604 492 l 181 0 l 42 0 l 465 492 l 79 917 l 219 917 m 617 917 l 725 917 l 725 0 l 617 0 l 617 917 m 1336 97 l 1336 -196 l 1228 -196 l 1228 0 l 1161 0 l 738 492 l 1122 917 l 1263 917 l 876 492 l 1215 97 l 1336 97 z "},"җ":{"ha":1121,"x_min":28,"x_max":1072,"o":"m 188 676 l 467 367 l 158 0 l 28 0 l 338 367 l 54 676 l 188 676 m 481 676 l 588 676 l 588 0 l 481 0 l 481 676 m 1072 94 l 1072 -196 l 965 -196 l 965 0 l 910 0 l 601 367 l 881 676 l 1013 676 l 732 369 l 964 94 l 1072 94 z "},"Ҙ":{"ha":810,"x_min":68,"x_max":743,"o":"m 585 496 q 701 406 660 467 q 743 267 743 346 q 700 122 743 186 q 582 21 657 57 q 415 -15 507 -15 q 212 39 301 -15 q 68 186 122 93 l 147 244 q 264 128 196 171 q 414 85 332 85 q 569 137 507 85 q 632 269 632 189 q 578 390 632 343 q 418 436 525 436 l 310 436 l 310 535 l 424 535 q 542 575 501 535 q 582 681 582 615 q 540 790 582 749 q 415 832 497 832 q 192 707 276 832 l 114 765 q 238 888 161 843 q 415 932 314 932 q 563 900 500 932 q 660 812 626 868 q 694 686 694 756 q 666 577 694 626 q 585 496 638 528 m 239 -251 l 239 -175 q 317 -181 282 -181 q 395 -158 365 -181 q 425 -90 425 -136 q 378 13 425 -35 l 424 36 q 491 -22 465 15 q 517 -106 517 -58 q 467 -219 517 -174 q 333 -265 418 -265 q 239 -251 288 -265 z "},"ҙ":{"ha":650,"x_min":63,"x_max":578,"o":"m 463 361 q 548 295 518 339 q 578 194 578 251 q 508 42 578 99 q 322 -15 438 -15 q 174 19 239 -15 q 63 115 108 53 l 135 179 q 214 108 169 133 q 321 83 258 83 q 430 116 392 83 q 468 201 468 149 q 430 281 468 250 q 321 311 392 311 l 247 311 l 247 406 l 319 406 q 408 431 378 406 q 438 500 438 456 q 406 568 438 543 q 317 593 375 593 q 220 572 260 593 q 147 510 181 550 l 75 574 q 176 659 114 626 q 321 692 238 692 q 483 642 422 692 q 543 507 543 593 q 523 424 543 461 q 463 361 503 386 m 169 -251 l 169 -175 q 247 -181 213 -181 q 326 -158 296 -181 q 356 -90 356 -136 q 308 13 356 -35 l 354 36 q 422 -22 396 15 q 447 -106 447 -58 q 398 -219 447 -174 q 264 -265 349 -265 q 169 -251 218 -265 z "},"Қ":{"ha":872,"x_min":126,"x_max":872,"o":"m 126 917 l 235 917 l 235 0 l 126 0 l 126 917 m 872 97 l 872 -196 l 764 -196 l 764 0 l 699 0 l 247 492 l 660 917 l 799 917 l 388 492 l 749 97 l 872 97 z "},"қ":{"ha":763,"x_min":118,"x_max":714,"o":"m 118 676 l 225 676 l 225 0 l 118 0 l 118 676 m 714 94 l 714 -196 l 607 -196 l 607 0 l 553 0 l 239 367 l 524 676 l 657 676 l 369 369 l 607 94 l 714 94 z "},"Ҡ":{"ha":1113,"x_min":28,"x_max":1071,"o":"m 28 917 l 468 917 l 468 0 l 360 0 l 360 819 l 28 819 l 28 917 m 1071 0 l 932 0 l 481 492 l 893 917 l 1033 917 l 622 492 l 1071 0 z "},"ҡ":{"ha":875,"x_min":28,"x_max":847,"o":"m 28 676 l 385 676 l 385 0 l 278 0 l 278 581 l 28 581 l 28 676 m 847 0 l 713 0 l 399 367 l 683 676 l 817 676 l 529 369 l 847 0 z "},"Ң":{"ha":1011,"x_min":126,"x_max":969,"o":"m 861 0 l 749 0 l 749 442 l 235 442 l 235 0 l 126 0 l 126 917 l 235 917 l 235 539 l 749 539 l 749 917 l 857 917 l 857 97 l 969 97 l 969 -196 l 861 -196 l 861 0 z "},"ң":{"ha":824,"x_min":118,"x_max":775,"o":"m 668 0 l 557 0 l 557 313 l 225 313 l 225 0 l 118 0 l 118 676 l 225 676 l 225 407 l 557 407 l 557 676 l 664 676 l 664 94 l 775 94 l 775 -196 l 668 -196 l 668 0 z "},"Ҫ":{"ha":993,"x_min":67,"x_max":924,"o":"m 543 -15 q 303 47 413 -15 q 130 218 193 110 q 67 458 67 326 q 130 699 67 590 q 303 869 193 807 q 543 932 413 932 q 765 878 665 932 q 924 735 865 825 l 843 671 q 715 790 790 747 q 544 832 639 832 q 358 783 442 832 q 227 649 275 735 q 179 458 179 564 q 227 267 179 353 q 358 133 275 182 q 544 85 442 85 q 715 127 639 85 q 843 246 790 169 l 924 182 q 766 38 867 92 q 543 -15 665 -15 m 376 -251 l 376 -175 q 454 -181 419 -181 q 533 -158 503 -181 q 563 -90 563 -136 q 515 13 563 -35 l 561 36 q 628 -22 603 15 q 654 -106 654 -58 q 605 -219 654 -174 q 471 -265 556 -265 q 376 -251 425 -265 z "},"ҫ":{"ha":765,"x_min":69,"x_max":703,"o":"m 424 -15 q 245 32 326 -15 q 117 160 164 79 q 69 339 69 242 q 117 517 69 436 q 245 644 164 597 q 424 692 326 692 q 585 652 513 692 q 703 544 657 613 l 626 483 q 425 593 544 593 q 299 559 356 593 q 211 467 243 525 q 179 339 179 408 q 211 210 179 268 q 299 117 243 151 q 425 83 356 83 q 625 192 544 83 l 701 132 q 584 24 656 64 q 424 -15 513 -15 m 242 -251 l 242 -175 q 319 -181 285 -181 q 398 -158 368 -181 q 428 -90 428 -136 q 381 13 428 -35 l 426 36 q 494 -22 468 15 q 519 -106 519 -58 q 470 -219 519 -174 q 336 -265 421 -265 q 242 -251 290 -265 z "},"Ү":{"ha":856,"x_min":56,"x_max":800,"o":"m 482 379 l 482 0 l 374 0 l 374 379 l 56 917 l 178 917 l 428 486 l 679 917 l 800 917 l 482 379 z "},"ү":{"ha":749,"x_min":36,"x_max":713,"o":"m 429 6 l 429 -250 l 322 -250 l 322 -4 l 36 676 l 150 676 l 375 107 l 599 676 l 713 676 l 429 6 z "}}}
